<svg width="157" height="55" viewBox="0 0 157 55" fill="none" xmlns="http://www.w3.org/2000/svg">
<path d="M37.9155 10.6915C38.4867 11.2534 38.9496 11.9067 39.2916 12.6342C39.6236 13.3506 39.8259 14.1213 39.8912 14.905C40.6753 14.9568 41.4492 15.1464 42.1673 15.4677C42.8996 15.7946 43.5623 16.246 44.1361 16.8104C46.7686 19.3998 46.8036 23.6473 44.2142 26.2798C43.7931 26.7079 43.3206 27.0744 42.8048 27.3738C43.3255 27.6646 43.8033 28.0226 44.2321 28.4444C46.8646 31.0338 46.8996 35.2813 44.3102 37.9138C43.7458 38.4875 43.0906 38.9498 42.3632 39.2894C41.6505 39.6213 40.881 39.8248 40.0974 39.8889C40.045 40.6736 39.856 41.4469 39.5371 42.165C39.2053 42.9023 38.7527 43.5639 38.1914 44.1345C35.6014 46.7676 31.3527 46.8039 28.7202 44.2145C28.2915 43.7928 27.9255 43.3209 27.6262 42.8051C27.3354 43.3258 26.9767 43.8042 26.5556 44.2324C23.9662 46.8646 19.7175 46.8984 17.0844 44.3084C16.5131 43.7465 16.0502 43.0932 15.7082 42.3658C15.3763 41.6494 15.1739 40.8787 15.1086 40.095C14.3246 40.0432 13.5512 39.853 12.8326 39.5322C12.1002 39.2053 11.4375 38.7539 10.8637 38.1896C8.23123 35.6002 8.19619 31.3527 10.7856 28.7202C11.2067 28.2921 11.6792 27.9255 12.195 27.6262C11.6743 27.3354 11.1965 26.9773 10.7677 26.5556C8.1353 23.9662 8.10025 19.7188 10.6896 17.0863C11.254 16.5126 11.9092 16.0503 12.6366 15.7107C13.3493 15.3788 14.1188 15.1753 14.9024 15.1111C14.9549 14.3265 15.1438 13.5531 15.4627 12.8351C15.7945 12.0977 16.2472 11.4363 16.8085 10.8656C19.3985 8.23255 23.6472 8.19621 26.2797 10.7856C26.7084 11.2073 27.0743 11.6792 27.3737 12.195C27.6645 11.6743 28.0232 11.1959 28.4443 10.7678C31.0337 8.13532 35.2824 8.10149 37.9155 10.6915ZM37.7027 13.3756C37.4515 12.8408 37.1084 12.357 36.686 11.9415C34.7416 10.0289 31.6056 10.0542 29.6943 11.9973C29.2775 12.421 28.9443 12.9098 28.7026 13.4517C28.4171 14.092 28.2705 14.8012 28.2775 15.5016L28.3692 26.6162L39.4812 26.5245C40.1842 26.5199 40.8908 26.3616 41.5269 26.065C42.0642 25.8151 42.5474 25.4738 42.9642 25.05C44.8755 23.1069 44.8496 19.9715 42.9065 18.0603C42.4828 17.6435 41.9934 17.3096 41.4521 17.0686C40.8144 16.7831 40.1164 16.6388 39.4159 16.6446L39.4103 16.6503C39.0709 16.9953 38.5161 17.0005 38.1705 16.6606C37.8255 16.3212 37.821 15.7658 38.1603 15.4208C38.1551 14.716 37.9987 14.0149 37.7027 13.3756ZM26.0649 13.473C25.8151 12.9357 25.4738 12.4525 25.05 12.0357C23.1069 10.1244 19.9709 10.1509 18.0584 12.0952C17.6428 12.5177 17.3077 13.0071 17.0636 13.5503C16.7812 14.1862 16.6376 14.8848 16.6421 15.5865L16.6478 15.5921C16.9928 15.9315 16.9974 16.4869 16.658 16.8319C16.3187 17.1769 15.7633 17.1815 15.4183 16.8421C14.7141 16.8466 14.0149 17.0025 13.3782 17.2997C12.8403 17.5502 12.3565 17.8921 11.9397 18.3159C10.0284 20.259 10.0542 23.3944 11.9973 25.3056C12.4211 25.7225 12.9098 26.0556 13.4518 26.2973C14.092 26.5828 14.8012 26.7294 15.5016 26.7224C15.5029 26.7224 15.5041 26.7224 15.5054 26.7224L26.6162 26.6307L26.5245 15.5187C26.5245 15.5175 26.5245 15.5163 26.5245 15.515C26.5193 14.8138 26.361 14.1084 26.0649 13.473ZM43.0025 29.6943C42.5788 29.2775 42.09 28.9443 41.5481 28.7026C41.2283 28.5602 40.8914 28.4526 40.5468 28.3804C40.2021 28.3095 39.8509 28.274 39.5007 28.2775C39.4983 28.2775 39.4964 28.2782 39.4946 28.2776L28.3837 28.3692L28.4754 39.4813C28.4754 39.4826 28.4754 39.4837 28.4754 39.485C28.4805 40.1861 28.6389 40.8915 28.9349 41.527C29.1848 42.0643 29.526 42.5475 29.9498 42.9643C31.8929 44.8756 35.0289 44.8491 36.9414 42.9047C37.357 42.4823 37.6921 41.9929 37.9362 41.4497C38.2198 40.8113 38.3634 40.1102 38.3583 39.4066C38.0133 39.0673 38.0087 38.5119 38.3481 38.1669C38.6874 37.8219 39.2428 37.8173 39.5878 38.1566L39.5884 38.1573C40.2908 38.1521 40.9875 37.9963 41.6218 37.7004C42.1597 37.4498 42.6434 37.108 43.0603 36.6842C44.9716 34.741 44.9457 31.6056 43.0025 29.6943ZM26.7224 39.4982L26.6307 28.3836L15.5186 28.4754C14.8156 28.48 14.109 28.6383 13.4735 28.9342C12.9356 29.1848 12.4524 29.5261 12.0356 29.9498C10.1243 31.8929 10.1502 35.0283 12.0933 36.9396C12.517 37.3563 13.0065 37.6902 13.5477 37.9312C14.1917 38.2191 14.8953 38.364 15.6013 38.355L15.5897 38.3669C15.929 38.0219 16.4844 38.0173 16.8294 38.3567C17.1751 38.6967 17.179 39.2514 16.8396 39.5964C16.8479 40.2957 17.0036 40.9911 17.2971 41.6242C17.5483 42.159 17.8914 42.6428 18.3139 43.0584C20.2583 44.971 23.3942 44.9457 25.3055 43.0026C25.7224 42.5788 26.0555 42.09 26.2972 41.5481C26.5827 40.9078 26.7294 40.1987 26.7224 39.4982Z" fill="#021F02"/>
<path d="M36.686 11.9415C37.1085 12.357 37.4516 12.8408 37.7027 13.3756C37.9988 14.0148 38.1552 14.7159 38.1604 15.4207C37.821 15.7657 37.8256 16.3211 38.1706 16.6604C38.5163 17.0004 39.071 16.9952 39.4104 16.6502L39.4159 16.6446C40.1163 16.6388 40.8143 16.7831 41.4521 17.0686C41.9934 17.3096 42.4828 17.6435 42.9065 18.0602C44.8496 19.9715 44.8755 23.1069 42.9642 25.05C42.5474 25.4737 42.0642 25.815 41.5269 26.065C40.8909 26.3616 40.1841 26.5199 39.4812 26.5245L28.3693 26.6162L28.2776 15.5016C28.2705 14.8011 28.4172 14.092 28.7027 13.4517C28.9443 12.9097 29.2776 12.421 29.6944 11.9973C31.6057 10.0542 34.7417 10.0289 36.686 11.9415Z" fill="#9F2049"/>
<path d="M25.0502 12.0357C25.474 12.4525 25.8152 12.9357 26.0652 13.4729C26.3612 14.1084 26.5195 14.8138 26.5246 15.5149C26.5246 15.5162 26.5247 15.5174 26.5247 15.5187L26.6163 26.6306L15.5055 26.7224C15.5042 26.7224 15.5031 26.7224 15.5018 26.7224C14.8013 26.7294 14.0922 26.5828 13.4519 26.2973C12.9099 26.0556 12.4212 25.7224 11.9975 25.3056C10.0544 23.3943 10.0285 20.2589 11.9398 18.3158C12.3566 17.8921 12.8405 17.5502 13.3783 17.2996C14.015 17.0024 14.7142 16.8466 15.4184 16.842C15.7634 17.1814 16.3188 17.1768 16.6582 16.8318C16.9976 16.4868 16.993 15.9314 16.648 15.5921L16.6423 15.5865C16.6378 14.8848 16.7814 14.1862 17.0638 13.5503C17.3079 13.0071 17.643 12.5177 18.0586 12.0952C19.971 10.1508 23.1071 10.1243 25.0502 12.0357Z" fill="white"/>
<path d="M41.5481 28.7026C42.0901 28.9443 42.5788 29.2775 43.0025 29.6943C44.9456 31.6056 44.9715 34.741 43.0602 36.6841C42.6434 37.1078 42.1596 37.4497 41.6217 37.7003C40.9875 37.9962 40.2908 38.152 39.5884 38.1572L39.5878 38.1565C39.2428 37.8172 38.6874 37.8218 38.348 38.1668C38.0086 38.5118 38.0132 39.0672 38.3582 39.4065C38.3634 40.1101 38.2198 40.8112 37.9361 41.4495C37.692 41.9928 37.357 42.4821 36.9414 42.9046C35.0288 44.849 31.8929 44.8755 29.9498 42.9642C29.526 42.5474 29.1848 42.0642 28.9348 41.5269C28.6388 40.8915 28.4805 40.186 28.4753 39.4849C28.4753 39.4836 28.4753 39.4825 28.4753 39.4812L28.3838 28.3692L39.4946 28.2775C39.4965 28.2781 39.4983 28.2775 39.5008 28.2775C39.851 28.274 40.2022 28.3095 40.5468 28.3804C40.8914 28.4526 41.2283 28.5602 41.5481 28.7026Z" fill="white"/>
<path d="M26.6307 28.3837L26.7224 39.4982C26.7295 40.1986 26.5828 40.9078 26.2973 41.5481C26.0557 42.09 25.7224 42.5788 25.3056 43.0025C23.3943 44.9456 20.2583 44.9708 18.314 43.0583C17.8915 42.6427 17.5484 42.1589 17.2972 41.6241C17.0037 40.9912 16.848 40.2956 16.8397 39.5964C17.1791 39.2514 17.1751 38.6966 16.8295 38.3566C16.4845 38.0173 15.9291 38.0218 15.5898 38.3668L15.6014 38.355C14.8954 38.3639 14.1918 38.2191 13.5478 37.9312C13.0065 37.6902 12.5171 37.3563 12.0934 36.9395C10.1503 35.0282 10.1244 31.8929 12.0357 29.9498C12.4525 29.526 12.9357 29.1848 13.4736 28.9342C14.109 28.6382 14.8157 28.4799 15.5187 28.4754L26.6307 28.3837Z" fill="#9F2049"/>
<path d="M63.0599 35.7188C62.6743 35.7188 62.2888 35.5646 61.9032 35.2561C61.5176 34.9476 61.3248 34.4541 61.3248 33.7754C61.3248 33.2664 61.4482 32.6957 61.6949 32.0634C61.9417 31.431 62.2733 30.8063 62.6898 30.1894C63.1062 29.557 63.5843 28.9786 64.1242 28.4542C64.664 27.9144 65.227 27.4902 65.8131 27.1818C66.3992 26.8579 66.9776 26.6959 67.5482 26.6959C68.2269 26.6959 68.5662 26.935 68.5662 27.4131C68.5662 27.4748 68.5585 27.5288 68.5431 27.5751C68.5431 27.6213 68.5354 27.6753 68.5199 27.737C68.3657 27.5057 68.0727 27.39 67.6408 27.39C67.1472 27.39 66.6614 27.5442 66.1832 27.8527C65.7205 28.1457 65.2887 28.539 64.8877 29.0326C64.5021 29.5107 64.1627 30.0274 63.8697 30.5827C63.5766 31.1379 63.3453 31.6778 63.1756 32.2022C63.0214 32.7112 62.9443 33.143 62.9443 33.4978C62.9443 33.8371 63.0214 34.107 63.1756 34.3075C63.3299 34.508 63.5304 34.6083 63.7771 34.6083C64.1936 34.6083 64.6949 34.3461 65.281 33.8217C65.8825 33.2973 66.4917 32.5569 67.1087 31.6007C67.7256 30.6444 68.2809 29.5262 68.7744 28.246C69.1138 27.3514 69.4608 26.4414 69.8155 25.516C70.1857 24.5906 70.5559 23.7037 70.926 22.8554C71.2962 21.9917 71.651 21.2282 71.9903 20.565C72.345 19.8863 72.6766 19.3542 72.9851 18.9686C73.309 18.5676 73.5943 18.3671 73.8411 18.3671C73.9645 18.3671 74.0725 18.4211 74.165 18.529C74.2576 18.6216 74.3038 18.745 74.3038 18.8992C74.3038 19.146 74.1727 19.5701 73.9105 20.1717C73.6638 20.7578 73.3321 21.4673 72.9157 22.3001C72.5147 23.1176 72.0905 24.0122 71.6432 24.9839C71.196 25.9556 70.7641 26.9427 70.3477 27.9452C69.9466 28.9478 69.615 29.9195 69.3528 30.8603C69.106 31.7857 68.9827 32.6341 68.9827 33.4052C68.9827 33.8371 69.0058 34.161 69.0521 34.3769C69.0983 34.5929 69.2526 34.7008 69.5148 34.7008C69.8387 34.7008 70.2166 34.562 70.6484 34.2844C71.0803 34.0068 71.5121 33.6135 71.944 33.1045C72.3759 32.5955 72.7538 31.9863 73.0777 31.2768L73.3553 31.485C73.0622 32.2716 72.6612 32.9811 72.1522 33.6135C71.6432 34.2304 71.0957 34.7163 70.5096 35.071C69.9389 35.4412 69.3914 35.6263 68.867 35.6263C68.2963 35.6263 67.8953 35.4335 67.6639 35.0479C67.448 34.6777 67.34 34.2921 67.34 33.8911C67.34 33.6289 67.3786 33.2818 67.4557 32.85C67.5328 32.4181 67.6408 31.94 67.7796 31.4156C67.286 32.233 66.7616 32.9734 66.2064 33.6366C65.6511 34.2844 65.1036 34.7934 64.5638 35.1635C64.0393 35.5337 63.5381 35.7188 63.0599 35.7188Z" fill="black"/>
<path d="M74.3653 35.7188C73.8409 35.7188 73.4167 35.4874 73.0928 35.0247C72.7844 34.5466 72.6301 33.9991 72.6301 33.3821C72.6301 32.9348 72.6995 32.4181 72.8383 31.832C72.9926 31.2459 73.1777 30.6675 73.3936 30.0968C73.6095 29.5262 73.8332 29.0557 74.0645 28.6856C74.2959 28.3154 74.4964 28.1303 74.6661 28.1303C74.7432 28.1303 74.8743 28.1766 75.0594 28.2691C75.2444 28.3463 75.3987 28.4542 75.5221 28.593C75.3524 28.8552 75.1442 29.2563 74.8974 29.7961C74.6506 30.3359 74.4347 30.9143 74.2496 31.5313C74.0645 32.1482 73.972 32.7189 73.972 33.2433C73.972 33.3667 73.9874 33.5595 74.0183 33.8217C74.0491 34.0685 74.1262 34.2921 74.2496 34.4926C74.373 34.6931 74.5581 34.7934 74.8049 34.7934C75.0979 34.7934 75.3987 34.6468 75.7072 34.3538C76.0156 34.0453 76.3241 33.652 76.6326 33.1739C76.9565 32.6957 77.265 32.1791 77.558 31.6238C77.8511 31.0685 78.121 30.5364 78.3678 30.0274C78.63 29.5185 78.8459 29.0943 79.0155 28.755C79.1081 28.7704 79.2392 28.8013 79.4089 28.8475C79.5939 28.8938 79.7559 28.9555 79.8947 29.0326C80.0489 29.1097 80.1261 29.2177 80.1261 29.3565C80.1261 29.4182 80.0489 29.6264 79.8947 29.9812C79.7405 30.3205 79.5554 30.7446 79.3394 31.2536C79.1389 31.7472 78.9616 32.2485 78.8073 32.7574C78.6531 33.2664 78.576 33.7137 78.576 34.0993C78.576 34.3769 78.63 34.6006 78.7379 34.7702C78.8613 34.9399 79.0618 35.0247 79.3394 35.0247C79.6633 35.0247 80.0567 34.8782 80.5194 34.5852C80.9821 34.2921 81.4525 33.8679 81.9306 33.3127C82.4088 32.742 82.8329 32.0634 83.2031 31.2768L83.5039 31.485C83.18 32.3179 82.7558 33.0582 82.2314 33.706C81.707 34.3384 81.1517 34.8319 80.5656 35.1867C79.9795 35.5414 79.4089 35.7188 78.8536 35.7188C78.2367 35.7188 77.8125 35.5491 77.5811 35.2098C77.3498 34.8859 77.2341 34.4849 77.2341 34.0068C77.2341 33.8217 77.2495 33.6366 77.2804 33.4515C77.3112 33.251 77.3498 33.0505 77.3961 32.85C76.9642 33.6057 76.4938 34.2767 75.9848 34.8628C75.4912 35.4335 74.9514 35.7188 74.3653 35.7188Z" fill="black"/>
<path d="M81.317 41.5027C81.1936 41.5027 81.0779 41.4333 80.97 41.2945C80.8466 41.1711 80.754 41.0323 80.6923 40.878C80.6306 40.7392 80.5998 40.6544 80.5998 40.6235C80.8157 39.8678 81.0317 39.1891 81.2476 38.5876C81.4481 38.0015 81.6563 37.3923 81.8723 36.7599C82.0728 36.143 82.2733 35.418 82.4738 34.5852C82.6743 33.7368 82.8825 32.688 83.0984 31.4387C83.3144 30.1894 83.5303 28.6393 83.7462 26.7885C83.7617 26.6496 83.7925 26.5494 83.8388 26.4877C83.885 26.426 84.0007 26.3952 84.1858 26.3952C84.5868 26.3952 84.8722 26.5108 85.0418 26.7422C85.2115 26.9581 85.2963 27.1972 85.2963 27.4594C85.2963 27.6753 85.2501 28.0609 85.1575 28.6162C85.065 29.1714 84.9339 29.8269 84.7642 30.5827C85.0264 30.0737 85.3503 29.557 85.7359 29.0326C86.1369 28.5082 86.5919 28.0686 87.1009 27.7139C87.6099 27.3591 88.1651 27.1818 88.7667 27.1818C89.4453 27.1818 90.0006 27.4285 90.4324 27.9221C90.8797 28.4002 91.1034 29.0326 91.1034 29.8192C91.1034 30.4207 90.9645 31.0608 90.6869 31.7395C90.4247 32.4027 90.0468 33.0351 89.5533 33.6366C89.0751 34.2227 88.5045 34.7008 87.8412 35.071C87.178 35.4412 86.4454 35.6263 85.6434 35.6263C85.2423 35.6263 84.9184 35.58 84.6717 35.4874C84.4249 35.3949 84.3015 35.3024 84.3015 35.2098C84.3015 35.1481 84.3555 35.1096 84.4634 35.0941C84.5868 35.0941 84.7256 35.0941 84.8799 35.0941C85.4968 35.0941 86.0829 34.9476 86.6382 34.6546C87.2089 34.3461 87.7178 33.9451 88.1651 33.4515C88.6124 32.9579 88.9595 32.4104 89.2062 31.8089C89.4684 31.2074 89.5995 30.6135 89.5995 30.0274C89.5995 29.5339 89.4916 29.1174 89.2756 28.7781C89.0751 28.4234 88.7435 28.246 88.2808 28.246C87.8798 28.246 87.4788 28.3771 87.0778 28.6393C86.6922 28.8861 86.322 29.21 85.9673 29.611C85.6279 29.9966 85.3195 30.4053 85.0418 30.8372C84.7796 31.2536 84.5791 31.6315 84.4403 31.9708C84.1627 33.1276 83.8851 34.2381 83.6074 35.3024C83.3298 36.382 83.0599 37.3537 82.7977 38.2174C82.5509 39.0966 82.3273 39.8138 82.1267 40.3691C81.9108 40.9243 81.7334 41.2636 81.5946 41.387C81.5175 41.4641 81.425 41.5027 81.317 41.5027Z" fill="black"/>
<path d="M93.7321 35.7188C93.0689 35.7188 92.5908 35.4874 92.2977 35.0247C92.0201 34.5774 91.8813 34.0145 91.8813 33.3358C91.8813 32.5955 92.0201 31.7163 92.2977 30.6984C92.5754 29.6804 92.9378 28.6085 93.3851 27.4825C93.8478 26.3566 94.3491 25.2615 94.8889 24.1973C95.4288 23.1176 95.9686 22.1382 96.5084 21.259C97.0482 20.3799 97.5418 19.6781 97.9891 19.1537C98.4518 18.6293 98.8143 18.3671 99.0765 18.3671C99.2461 18.3671 99.3849 18.4674 99.4929 18.6679C99.6009 18.8529 99.6857 19.0843 99.7474 19.3619C99.8091 19.6241 99.8399 19.8632 99.8399 20.0791C99.8399 20.4956 99.732 21.0431 99.516 21.7218C99.3155 22.385 99.0225 23.133 98.6369 23.9659C98.2667 24.7834 97.8194 25.6163 97.295 26.4646C96.786 27.2974 96.2231 28.0995 95.6061 28.8707C95.0046 29.6418 94.3645 30.3051 93.6859 30.8603C93.5933 31.2768 93.5162 31.6855 93.4545 32.0865C93.4082 32.4721 93.3851 32.8423 93.3851 33.197C93.3851 34.3846 93.7244 34.9785 94.4031 34.9785C94.8195 34.9785 95.2282 34.7934 95.6293 34.4232C96.0457 34.053 96.4313 33.5903 96.786 33.0351C97.1562 32.4644 97.4724 31.8783 97.7346 31.2768L98.0816 31.4618C97.4647 32.7729 96.7938 33.814 96.0688 34.5852C95.3439 35.3409 94.565 35.7188 93.7321 35.7188ZM93.8941 30.0737C94.4339 29.5339 94.9583 28.9169 95.4673 28.2229C95.9763 27.5134 96.4467 26.7807 96.8786 26.025C97.3259 25.2692 97.7192 24.5366 98.0585 23.8271C98.3978 23.1176 98.66 22.4852 98.8451 21.93C99.0302 21.3593 99.1227 20.9197 99.1227 20.6112C99.1227 20.457 99.0996 20.3568 99.0533 20.3105C99.0225 20.2642 98.9916 20.2411 98.9608 20.2411C98.8374 20.2411 98.6215 20.4416 98.313 20.8426C98.0199 21.2282 97.6729 21.7526 97.2719 22.4158C96.8709 23.079 96.4621 23.8348 96.0457 24.6831C95.6293 25.5314 95.2282 26.4183 94.8426 27.3437C94.4725 28.2691 94.1563 29.1791 93.8941 30.0737Z" fill="black"/>
<path d="M98.39 36.1121C97.9119 36.1121 97.5108 35.9502 97.1869 35.6263C96.8476 35.3178 96.678 34.8396 96.678 34.1918C96.678 33.6366 96.8013 33.0428 97.0481 32.4104C97.2949 31.7626 97.6342 31.1302 98.0661 30.5133C98.498 29.8809 98.9838 29.3102 99.5236 28.8013C100.079 28.2768 100.657 27.8604 101.259 27.5519C101.876 27.2435 102.485 27.0892 103.087 27.0892C103.688 27.0892 104.189 27.2512 104.59 27.5751C104.991 27.8835 105.192 28.3 105.192 28.8244C105.192 29.21 105.084 29.4722 104.868 29.611C104.667 29.7498 104.398 29.8192 104.058 29.8192C104.135 29.5416 104.174 29.2717 104.174 29.0095C104.174 28.6547 104.089 28.354 103.919 28.1072C103.75 27.845 103.457 27.7139 103.04 27.7139C102.608 27.7139 102.169 27.8681 101.722 28.1766C101.274 28.4696 100.842 28.8707 100.426 29.3796C100.009 29.8732 99.6393 30.413 99.3154 30.9991C98.9915 31.5852 98.737 32.1636 98.5519 32.7343C98.3669 33.305 98.2743 33.814 98.2743 34.2613C98.2743 34.8628 98.4825 35.1635 98.899 35.1635C99.2537 35.1635 99.6393 35.0016 100.056 34.6777C100.472 34.3384 100.896 33.9142 101.328 33.4052C101.775 32.8808 102.2 32.341 102.601 31.7857C103.002 31.2305 103.356 30.7215 103.665 30.2588C103.727 30.1663 103.765 30.12 103.781 30.12C103.919 30.1354 104.104 30.1971 104.336 30.3051C104.567 30.3976 104.683 30.5287 104.683 30.6984C104.683 30.8372 104.613 31.03 104.475 31.2768C104.336 31.5081 104.182 31.778 104.012 32.0865C103.842 32.395 103.688 32.7112 103.549 33.0351C103.41 33.3435 103.341 33.6366 103.341 33.9142C103.341 34.1456 103.403 34.3769 103.526 34.6083C103.649 34.8242 103.85 34.9322 104.128 34.9322C104.544 34.9322 105.092 34.6314 105.77 34.0299C106.449 33.413 107.135 32.4952 107.829 31.2768L108.061 31.5081C107.737 32.341 107.32 33.0736 106.811 33.706C106.302 34.3384 105.755 34.8319 105.169 35.1867C104.598 35.5414 104.035 35.7188 103.48 35.7188C102.909 35.7188 102.485 35.5491 102.207 35.2098C101.945 34.8705 101.814 34.5003 101.814 34.0993C101.814 33.8988 101.837 33.6752 101.883 33.4284C101.22 34.323 100.611 34.9939 100.056 35.4412C99.5159 35.8885 98.9607 36.1121 98.39 36.1121Z" fill="black"/>
<path d="M109.161 31.6932C109.33 31.2305 109.824 30.9297 110.641 30.7909C111.459 30.6367 112.423 30.5596 113.533 30.5596C114.351 30.5596 115.114 30.5904 115.824 30.6521C116.548 30.6984 117.081 30.7369 117.42 30.7678C116.818 31.1534 116.248 31.3616 115.708 31.3924C115.183 31.4233 114.651 31.4387 114.112 31.4387H111.775C111.374 31.4387 110.965 31.4618 110.549 31.5081C110.132 31.5544 109.669 31.6161 109.161 31.6932Z" fill="black"/>
<path d="M121.963 36.2046C121.238 36.2046 120.66 36.0427 120.228 35.7188C119.812 35.4103 119.519 35.0247 119.349 34.562C119.164 34.0993 119.071 33.6366 119.071 33.1739C119.071 32.7112 119.133 32.3564 119.256 32.1096C119.38 31.8629 119.526 31.6778 119.696 31.5544C119.881 31.431 120.051 31.3385 120.205 31.2768C120.375 31.2151 120.49 31.1534 120.552 31.0917C121.015 30.5827 121.439 30.0506 121.824 29.4953C122.21 28.9401 122.549 28.354 122.842 27.737V27.4594C122.842 26.8887 122.935 26.4877 123.12 26.2563C123.32 26.0096 123.529 25.8862 123.745 25.8862C123.991 25.8862 124.115 25.9864 124.115 26.1869C124.115 26.264 124.092 26.3874 124.045 26.5571C123.999 26.7268 123.976 26.9427 123.976 27.2049C123.976 27.7139 124.076 28.2691 124.277 28.8707C124.477 29.4568 124.678 30.0814 124.878 30.7446C125.079 31.3924 125.179 32.0711 125.179 32.7806C125.179 33.1816 125.133 33.5595 125.04 33.9142C125.58 33.8217 126.089 33.5826 126.567 33.197C127.045 32.796 127.508 32.1636 127.955 31.2999L128.164 31.5313C127.87 32.3796 127.431 33.0274 126.845 33.4746C126.259 33.9065 125.619 34.1764 124.925 34.2844C124.678 34.9476 124.284 35.4335 123.745 35.7419C123.22 36.0504 122.626 36.2046 121.963 36.2046ZM123.583 33.8911C123.614 33.7368 123.637 33.5749 123.652 33.4052C123.667 33.2356 123.675 33.0351 123.675 32.8037C123.675 32.0788 123.583 31.3616 123.398 30.6521C123.228 29.9272 123.081 29.2485 122.958 28.6162C122.603 29.2023 122.225 29.7652 121.824 30.3051C121.439 30.8295 121.069 31.2691 120.714 31.6238C120.945 32.1174 121.3 32.5801 121.778 33.0119C122.272 33.4438 122.873 33.7368 123.583 33.8911ZM122.009 35.3949C122.195 35.3949 122.441 35.3332 122.75 35.2098C123.058 35.0864 123.297 34.7702 123.467 34.2613C122.819 34.1379 122.241 33.8834 121.732 33.4978C121.238 33.1122 120.868 32.7266 120.621 32.341C120.282 32.3564 120.112 32.6263 120.112 33.1507C120.112 33.706 120.274 34.2227 120.598 34.7008C120.937 35.1635 121.408 35.3949 122.009 35.3949Z" fill="black"/>
<path d="M130.008 36.0427C129.067 36.0427 128.358 35.7805 127.88 35.2561C127.417 34.7471 127.185 34.1147 127.185 33.359C127.185 32.6649 127.355 31.9323 127.694 31.1611C128.049 30.3899 128.512 29.665 129.083 28.9863C129.669 28.3077 130.309 27.7602 131.003 27.3437C131.697 26.9118 132.383 26.6959 133.062 26.6959C133.417 26.6959 133.741 26.7885 134.034 26.9735C134.342 27.1586 134.496 27.5365 134.496 28.1072C134.496 28.6933 134.319 29.2485 133.964 29.7729C133.625 30.2819 133.17 30.7369 132.599 31.1379C132.044 31.539 131.427 31.8706 130.748 32.1328C130.085 32.3796 129.422 32.5338 128.759 32.5955C128.728 32.7497 128.705 32.8963 128.689 33.0351C128.674 33.1739 128.666 33.305 128.666 33.4284C128.666 33.9065 128.79 34.3538 129.036 34.7702C129.299 35.1713 129.784 35.3718 130.494 35.3718C131.157 35.3718 131.813 35.1867 132.46 34.8165C133.108 34.4309 133.71 33.9296 134.265 33.3127C134.82 32.6957 135.291 32.0171 135.676 31.2768L135.954 31.485C135.537 32.4104 135.005 33.2124 134.358 33.8911C133.725 34.5697 133.031 35.0941 132.275 35.4643C131.535 35.8499 130.779 36.0427 130.008 36.0427ZM128.874 32.1559C129.291 32.0171 129.761 31.8166 130.286 31.5544C130.81 31.2768 131.311 30.9529 131.789 30.5827C132.283 30.2125 132.684 29.8038 132.993 29.3565C133.316 28.9092 133.478 28.4388 133.478 27.9452C133.478 27.7756 133.448 27.6445 133.386 27.5519C133.324 27.4594 133.193 27.4131 132.993 27.4131C132.622 27.4131 132.229 27.5596 131.813 27.8527C131.396 28.1303 130.995 28.5005 130.61 28.9632C130.224 29.4259 129.877 29.9349 129.568 30.4902C129.26 31.0454 129.029 31.6007 128.874 32.1559Z" fill="black"/>
<path d="M142.687 35.4874C142.147 35.4874 141.738 35.3486 141.46 35.071C141.198 34.7934 141.067 34.4386 141.067 34.0068C141.067 33.6829 141.121 33.3435 141.229 32.9888C141.352 32.6341 141.468 32.2716 141.576 31.9014C141.684 31.5158 141.738 31.1457 141.738 30.7909C141.738 30.3591 141.645 30.066 141.46 29.9118C141.291 29.7421 141.075 29.6573 140.813 29.6573C140.334 29.6573 139.849 29.8578 139.355 30.2588C138.861 30.6444 138.383 31.1457 137.921 31.7626C137.458 32.3641 137.026 32.9888 136.625 33.6366C136.224 34.2844 135.869 34.8628 135.561 35.3718C135.314 35.3718 135.083 35.3255 134.867 35.233C134.635 35.1558 134.458 35.0324 134.335 34.8628C134.335 34.7857 134.419 34.5466 134.589 34.1456C134.743 33.7446 134.928 33.251 135.144 32.6649C135.36 32.0788 135.553 31.4773 135.723 30.8603C135.892 30.2434 135.977 29.6804 135.977 29.1714C136.07 29.0635 136.216 28.9555 136.417 28.8475C136.617 28.7396 136.826 28.6856 137.041 28.6856C137.458 28.6856 137.666 28.8861 137.666 29.2871C137.666 29.5339 137.597 29.9503 137.458 30.5364C137.319 31.1071 137.142 31.7086 136.926 32.341C137.342 31.7086 137.805 31.084 138.314 30.467C138.838 29.8346 139.394 29.3102 139.98 28.8938C140.566 28.4774 141.152 28.2691 141.738 28.2691C142.339 28.2691 142.771 28.4851 143.034 28.9169C143.311 29.3488 143.45 29.8269 143.45 30.3513C143.45 30.8295 143.373 31.2768 143.219 31.6932C143.064 32.0942 142.902 32.4875 142.733 32.8731C142.579 33.2433 142.501 33.6212 142.501 34.0068C142.501 34.3307 142.563 34.562 142.687 34.7008C142.825 34.8242 142.995 34.8859 143.196 34.8859C143.581 34.8859 143.967 34.7085 144.352 34.3538C144.738 33.9836 145.108 33.5209 145.463 32.9657C145.833 32.4104 146.157 31.8474 146.434 31.2768L146.689 31.5775C146.211 32.7035 145.64 33.6366 144.977 34.3769C144.314 35.1173 143.55 35.4874 142.687 35.4874Z" fill="black"/>
<path d="M147.101 36.1121C146.623 36.1121 146.222 35.9502 145.898 35.6263C145.559 35.3178 145.389 34.8396 145.389 34.1918C145.389 33.6366 145.513 33.0428 145.759 32.4104C146.006 31.7626 146.346 31.1302 146.777 30.5133C147.209 29.8809 147.695 29.3102 148.235 28.8013C148.79 28.2768 149.369 27.8604 149.97 27.5519C150.587 27.2435 151.196 27.0892 151.798 27.0892C152.399 27.0892 152.901 27.2512 153.302 27.5751C153.703 27.8835 153.903 28.3 153.903 28.8244C153.903 29.21 153.795 29.4722 153.579 29.611C153.379 29.7498 153.109 29.8192 152.769 29.8192C152.847 29.5416 152.885 29.2717 152.885 29.0095C152.885 28.6547 152.8 28.354 152.631 28.1072C152.461 27.845 152.168 27.7139 151.752 27.7139C151.32 27.7139 150.88 27.8681 150.433 28.1766C149.986 28.4696 149.554 28.8707 149.137 29.3796C148.721 29.8732 148.351 30.413 148.027 30.9991C147.703 31.5852 147.448 32.1636 147.263 32.7343C147.078 33.305 146.986 33.814 146.986 34.2613C146.986 34.8628 147.194 35.1635 147.61 35.1635C147.965 35.1635 148.351 35.0016 148.767 34.6777C149.183 34.3384 149.608 33.9142 150.039 33.4052C150.487 32.8808 150.911 32.341 151.312 31.7857C151.713 31.2305 152.068 30.7215 152.376 30.2588C152.438 30.1663 152.476 30.12 152.492 30.12C152.631 30.1354 152.816 30.1971 153.047 30.3051C153.278 30.3976 153.394 30.5287 153.394 30.6984C153.394 30.8372 153.325 31.03 153.186 31.2768C153.047 31.5081 152.893 31.778 152.723 32.0865C152.554 32.395 152.399 32.7112 152.261 33.0351C152.122 33.3435 152.052 33.6366 152.052 33.9142C152.052 34.1456 152.114 34.3769 152.237 34.6083C152.361 34.8242 152.561 34.9322 152.839 34.9322C153.255 34.9322 153.803 34.6314 154.482 34.0299C155.16 33.413 155.847 32.4952 156.541 31.2768L156.772 31.5081C156.448 32.341 156.032 33.0736 155.523 33.706C155.014 34.3384 154.466 34.8319 153.88 35.1867C153.309 35.5414 152.746 35.7188 152.191 35.7188C151.62 35.7188 151.196 35.5491 150.919 35.2098C150.656 34.8705 150.525 34.5003 150.525 34.0993C150.525 33.8988 150.548 33.6752 150.595 33.4284C149.932 34.323 149.322 34.9939 148.767 35.4412C148.227 35.8885 147.672 36.1121 147.101 36.1121Z" fill="black"/>
</svg>
