<svg width="259" height="55" viewBox="0 0 259 55" fill="none" xmlns="http://www.w3.org/2000/svg">
<path fill-rule="evenodd" clip-rule="evenodd" d="M108.4 22.5587H122.723V8.23577C122.723 4.28061 119.517 1.07428 115.561 1.07428C111.606 1.07428 108.4 4.28061 108.4 8.23577C104.445 8.23577 101.239 11.4421 101.239 15.3972C101.239 19.3523 104.445 22.5587 108.4 22.5587V22.5587Z" fill="#B8ECBB"/>
<path fill-rule="evenodd" clip-rule="evenodd" d="M122.723 8.23571V22.5586H137.045C141.001 22.5586 144.207 19.3523 144.207 15.3971C144.207 11.4419 141.001 8.23571 137.045 8.23571C137.045 4.28055 133.839 1.07422 129.884 1.07422C125.929 1.07422 122.723 4.28055 122.723 8.23571Z" fill="#88DF8E"/>
<path fill-rule="evenodd" clip-rule="evenodd" d="M137.045 22.5585H122.723V36.8814C122.723 40.8365 125.929 44.0428 129.884 44.0428C133.839 44.0428 137.045 40.8365 137.045 36.8814C141.001 36.8814 144.207 33.675 144.207 29.72C144.207 25.7648 141.001 22.5585 137.045 22.5585V22.5585Z" fill="#B8ECBB"/>
<path fill-rule="evenodd" clip-rule="evenodd" d="M122.723 36.8814V22.5586H108.4C104.445 22.5586 101.238 25.7649 101.238 29.7201C101.238 32.4965 102.818 34.9039 105.128 36.0922C106.109 36.5968 107.221 36.8814 108.4 36.8814C108.4 37.503 108.479 38.1061 108.628 38.681C109.426 41.7651 112.227 44.0429 115.561 44.0429C119.516 44.0429 122.723 40.8366 122.723 36.8814V36.8814Z" fill="#88DF8E"/>
<path fill-rule="evenodd" clip-rule="evenodd" d="M105.535 51.7774C105.535 47.0686 106.649 42.6203 108.628 38.681C108.479 38.106 108.4 37.503 108.4 36.8815C107.221 36.8815 106.109 36.5967 105.128 36.092C102.645 40.7721 101.238 46.1104 101.238 51.7774C101.238 52.964 102.2 53.9259 103.387 53.9259C104.573 53.9259 105.535 52.9639 105.535 51.7774Z" fill="#B8ECBB"/>
<path d="M141.109 22.5585C143.599 21.1402 145.281 18.4614 145.281 15.397C145.281 11.1985 142.123 7.72371 138.058 7.22334C137.557 3.15787 134.083 0 129.884 0C126.82 0 124.141 1.68222 122.723 4.17182C121.304 1.68222 118.626 0 115.561 0C111.363 0 107.888 3.15787 107.387 7.22334C103.322 7.72371 100.164 11.1985 100.164 15.397C100.164 18.4614 101.846 21.1402 104.336 22.5585C101.846 23.9768 100.164 26.6556 100.164 29.72C100.164 32.5232 101.573 35.0023 103.719 36.4904C101.391 41.2139 100.164 46.4778 100.164 51.7774C100.164 53.5543 101.61 55 103.387 55C105.164 55 106.609 53.5543 106.609 51.7774C106.609 48.1374 107.286 44.6263 108.621 41.3086C110.085 43.5967 112.649 45.117 115.561 45.117C118.626 45.117 121.304 43.4348 122.723 40.9452C124.141 43.4348 126.82 45.117 129.884 45.117C134.083 45.117 137.557 41.9592 138.058 37.8937C142.123 37.3933 145.281 33.9184 145.281 29.7199C145.281 26.6556 143.599 23.9768 141.109 22.5585V22.5585ZM129.884 2.14843C133.096 2.14843 135.734 4.65017 135.954 7.80739L130.502 13.2602C130.082 13.6797 130.082 14.3599 130.502 14.7795C130.711 14.9893 130.986 15.0941 131.261 15.0941C131.536 15.0941 131.811 14.9892 132.021 14.7795L137.474 9.32665C140.631 9.5474 143.133 12.1847 143.133 15.3971C143.133 18.7536 140.402 21.4844 137.045 21.4844H125.316L126.374 20.4262C126.794 20.0067 126.794 19.3265 126.374 18.907C125.955 18.4874 125.275 18.4876 124.855 18.907L123.797 19.9654V8.23568C123.797 4.87919 126.527 2.14843 129.884 2.14843V2.14843ZM102.313 15.397C102.313 12.1846 104.814 9.5473 107.972 9.32655L113.424 14.7794C113.634 14.9892 113.909 15.094 114.184 15.094C114.459 15.094 114.734 14.9891 114.943 14.7794C115.363 14.3599 115.363 13.6797 114.943 13.2602L109.491 7.80728C109.711 4.65027 112.349 2.14843 115.561 2.14843C118.918 2.14843 121.648 4.87919 121.648 8.23568V19.965L120.59 18.9068C120.171 18.4872 119.491 18.4873 119.071 18.9068C118.651 19.3263 118.651 20.0065 119.071 20.426L120.129 21.4843H108.4C105.043 21.4843 102.313 18.7536 102.313 15.397V15.397ZM104.461 51.7772C104.461 52.3696 103.979 52.8515 103.387 52.8515C102.794 52.8515 102.313 52.3696 102.313 51.7772C102.313 46.819 103.457 41.8946 105.629 37.4744C106.19 37.6755 106.778 37.8186 107.387 37.8937C107.415 38.1143 107.452 38.3316 107.496 38.5466C105.482 42.6857 104.461 47.1349 104.461 51.7772ZM115.561 42.9686C112.349 42.9686 109.711 40.4668 109.491 37.3096L111.525 35.2751C111.945 34.8556 111.945 34.1754 111.525 33.7558C111.106 33.3362 110.426 33.3363 110.006 33.7558L107.971 35.7904C104.814 35.5696 102.312 32.9322 102.312 29.7199C102.312 26.3634 105.043 23.6326 108.4 23.6326H120.129L119.071 24.6909C118.651 25.1104 118.651 25.7906 119.071 26.2101C119.281 26.4199 119.556 26.5247 119.83 26.5247C120.105 26.5247 120.38 26.4198 120.59 26.2101L121.648 25.1518V36.8812C121.648 40.2379 118.918 42.9686 115.561 42.9686V42.9686ZM137.474 35.7905L132.021 30.3376C131.601 29.9182 130.921 29.9182 130.502 30.3376C130.082 30.7571 130.082 31.4373 130.502 31.8568L135.955 37.3097C135.734 40.467 133.097 42.9687 129.884 42.9687C126.528 42.9687 123.797 40.238 123.797 36.8814V25.1519L124.855 26.2102C125.065 26.42 125.34 26.5248 125.615 26.5248C125.89 26.5248 126.165 26.4199 126.374 26.2102C126.794 25.7907 126.794 25.1105 126.374 24.691L125.316 23.6327H137.045C140.402 23.6327 143.133 26.3634 143.133 29.72C143.133 32.9323 140.631 35.5697 137.474 35.7905V35.7905Z" fill="black"/>
<path d="M114.184 30.023H114.183C113.59 30.023 113.109 30.5039 113.109 31.0972C113.109 31.6905 113.591 32.1714 114.184 32.1714C114.777 32.1714 115.258 31.6905 115.258 31.0972C115.258 30.5039 114.777 30.023 114.184 30.023Z" fill="black"/>
<path d="M4.3956 43.5952C2.9436 43.5952 1.848 43.3444 1.1088 42.8428C0.3696 42.3676 0 41.5624 0 40.4272C0 40.348 0.066 40.3084 0.198 40.3084C0.3828 40.3084 0.7128 40.3744 1.188 40.5064C1.6632 40.6384 2.574 40.7044 3.9204 40.7044C6.1908 40.7044 8.2896 40.4536 10.2168 39.952C12.144 39.424 13.8072 38.7112 15.2064 37.8136C16.632 36.916 17.7276 35.9128 18.4932 34.804C19.2852 33.6688 19.6812 32.5072 19.6812 31.3192C19.6812 30.2368 19.3776 29.3656 18.7704 28.7056C18.1632 28.0456 17.358 27.544 16.3548 27.2008C15.378 26.8576 14.3088 26.6332 13.1472 26.5276C11.9856 26.3956 10.8372 26.3296 9.702 26.3296C9.2004 26.3296 8.6856 26.3428 8.1576 26.3692C7.656 26.3692 7.1808 26.3692 6.732 26.3692C6.1248 28.5076 5.5308 30.6592 4.95 32.824C4.3692 34.9888 3.7752 37.0876 3.168 39.1204C2.508 39.1204 1.9536 38.9356 1.5048 38.566C1.056 38.1964 0.8316 37.7476 0.8316 37.2196C0.8316 36.9028 0.8976 36.5332 1.0296 36.1108C1.1616 35.6884 1.2804 35.3056 1.386 34.9624C1.5444 34.4344 1.8216 33.55 2.2176 32.3092C2.6136 31.0684 3.0888 29.6164 3.6432 27.9532C4.224 26.29 4.8576 24.5476 5.544 22.726C6.2304 20.9044 6.93 19.1224 7.6428 17.38C8.382 15.6376 9.0948 14.0932 9.7812 12.7468C8.6724 12.9316 7.7352 13.1956 6.9696 13.5388C6.2304 13.882 5.6496 14.1988 5.2272 14.4892C4.8048 14.7532 4.5012 14.8852 4.3164 14.8852C4.1316 14.8852 3.8676 14.7532 3.5244 14.4892C3.2076 14.2252 3.0492 14.0008 3.0492 13.816C4.3692 13.2616 5.742 12.76 7.1676 12.3112C8.6196 11.8624 10.3752 11.638 12.4344 11.638C13.3056 11.638 14.2692 11.7172 15.3252 11.8756C16.3812 12.0076 17.3844 12.298 18.3348 12.7468C19.2852 13.1692 20.064 13.8028 20.6712 14.6476C21.2784 15.466 21.582 16.5616 21.582 17.9344C21.582 19.228 21.3048 20.3368 20.7504 21.2608C20.196 22.1584 19.47 22.9108 18.5724 23.518C17.6748 24.0988 16.698 24.5608 15.642 24.904C14.586 25.2472 13.5432 25.498 12.5136 25.6564C14.4672 25.762 16.038 26.0392 17.226 26.488C18.4404 26.9368 19.3512 27.478 19.9584 28.1116C20.592 28.7188 21.0144 29.3656 21.2256 30.052C21.4368 30.7384 21.5424 31.3984 21.5424 32.032C21.5424 33.5632 21.1464 34.9492 20.3544 36.19C19.5624 37.4308 18.5196 38.5132 17.226 39.4372C15.9324 40.3612 14.52 41.1268 12.9888 41.734C11.4576 42.3676 9.9396 42.8296 8.4348 43.12C6.93 43.4368 5.5836 43.5952 4.3956 43.5952ZM6.9696 25.4584C8.4216 25.4056 9.8604 25.2472 11.286 24.9832C12.738 24.6928 14.058 24.244 15.246 23.6368C16.434 23.0296 17.3844 22.2376 18.0972 21.2608C18.8364 20.284 19.206 19.0696 19.206 17.6176C19.206 16.2448 18.876 15.1888 18.216 14.4496C17.5824 13.7104 16.7508 13.1956 15.7212 12.9052C14.718 12.6148 13.6488 12.4696 12.5136 12.4696C12.3816 12.4696 12.2496 12.4696 12.1176 12.4696C12.012 12.4696 11.8932 12.4828 11.7612 12.5092C10.8108 14.3572 9.9396 16.39 9.1476 18.6076C8.382 20.8252 7.656 23.1088 6.9696 25.4584Z" fill="black"/>
<path d="M30.191 41.1796C29.2934 41.1796 28.5806 40.942 28.0526 40.4668C27.551 39.9916 27.3002 39.3712 27.3002 38.6056C27.3002 37.8136 27.485 36.982 27.8546 36.1108C28.2242 35.2396 28.5806 34.3816 28.9238 33.5368C29.2934 32.6656 29.4782 31.8868 29.4782 31.2004C29.4782 30.3556 29.2274 29.7352 28.7258 29.3392C28.2506 28.9168 27.7622 28.534 27.2606 28.1908C26.6534 29.7484 26.0198 31.2268 25.3598 32.626C24.6998 34.0252 24.1586 35.0812 23.7362 35.794L23.3798 35.1208C23.7494 34.4344 24.2246 33.4312 24.8054 32.1112C25.4126 30.7912 26.0066 29.2864 26.5874 27.5968C26.3234 27.3328 26.1914 27.016 26.1914 26.6464C26.1914 25.8544 26.4158 25.2076 26.8646 24.706C27.3134 24.2044 27.6434 23.9536 27.8546 23.9536C28.145 23.9536 28.3034 24.0856 28.3298 24.3496C28.3826 24.5872 28.409 24.772 28.409 24.904C28.409 25.036 28.3298 25.3 28.1714 25.696C28.0394 26.0656 27.9734 26.29 27.9734 26.3692C27.9734 26.7388 28.1714 27.082 28.5674 27.3988C28.9898 27.6892 29.465 28.0324 29.993 28.4284C30.521 28.798 30.983 29.26 31.379 29.8144C31.8014 30.3424 32.0126 31.0288 32.0126 31.8736C32.0126 32.6656 31.841 33.4708 31.4978 34.2892C31.181 35.1076 30.851 35.8864 30.5078 36.6256C30.191 37.3648 30.0326 38.0116 30.0326 38.566C30.0326 39.0412 30.1514 39.358 30.389 39.5164C30.6266 39.6748 30.9038 39.754 31.2206 39.754C31.8542 39.754 32.501 39.556 33.161 39.16C33.8474 38.764 34.5074 38.2624 35.141 37.6552C35.7746 37.048 36.3422 36.4144 36.8438 35.7544C37.3454 35.068 37.715 34.4344 37.9526 33.8536L38.4674 34.2496C37.9658 35.3584 37.2794 36.454 36.4082 37.5364C35.537 38.5924 34.5602 39.4636 33.4778 40.15C32.4218 40.8364 31.3262 41.1796 30.191 41.1796Z" fill="black"/>
<path d="M39.0082 42.0112C38.1898 42.0112 37.5034 41.734 36.949 41.1796C36.3682 40.6516 36.0778 39.8332 36.0778 38.7244C36.0778 37.774 36.289 36.7576 36.7114 35.6752C37.1338 34.5664 37.7146 33.484 38.4538 32.428C39.193 31.3456 40.0246 30.3688 40.9486 29.4976C41.899 28.6 42.889 27.8872 43.9186 27.3592C44.9746 26.8312 46.0174 26.5672 47.047 26.5672C48.0766 26.5672 48.9346 26.8444 49.621 27.3988C50.3074 27.9268 50.6506 28.6396 50.6506 29.5372C50.6506 30.1972 50.4658 30.646 50.0962 30.8836C49.753 31.1212 49.291 31.24 48.7102 31.24C48.8422 30.7648 48.9082 30.3028 48.9082 29.854C48.9082 29.2468 48.763 28.732 48.4726 28.3096C48.1822 27.8608 47.6806 27.6364 46.9678 27.6364C46.2286 27.6364 45.4762 27.9004 44.7106 28.4284C43.945 28.93 43.2058 29.6164 42.493 30.4876C41.7802 31.3324 41.1466 32.2564 40.5922 33.2596C40.0378 34.2628 39.6022 35.2528 39.2854 36.2296C38.9686 37.2064 38.8102 38.0776 38.8102 38.8432C38.8102 39.8728 39.1666 40.3876 39.8794 40.3876C40.4866 40.3876 41.1466 40.1104 41.8594 39.556C42.5722 38.9752 43.2982 38.2492 44.0374 37.378C44.803 36.4804 45.529 35.5564 46.2154 34.606C46.9018 33.6556 47.509 32.7844 48.037 31.9924C48.1426 31.834 48.2086 31.7548 48.235 31.7548C48.4726 31.7812 48.7894 31.8868 49.1854 32.0716C49.5814 32.23 49.7794 32.4544 49.7794 32.7448C49.7794 32.9824 49.6606 33.3124 49.423 33.7348C49.1854 34.1308 48.9214 34.5928 48.631 35.1208C48.3406 35.6488 48.0766 36.19 47.839 36.7444C47.6014 37.2724 47.4826 37.774 47.4826 38.2492C47.4826 38.6452 47.5882 39.0412 47.7994 39.4372C48.0106 39.8068 48.3538 39.9916 48.829 39.9916C49.5418 39.9916 50.479 39.4768 51.6406 38.4472C52.8022 37.3912 53.977 35.8204 55.165 33.7348L55.561 34.1308C55.0066 35.5564 54.2938 36.8104 53.4226 37.8928C52.5514 38.9752 51.6142 39.82 50.611 40.4272C49.6342 41.0344 48.6706 41.338 47.7202 41.338C46.7434 41.338 46.0174 41.0476 45.5422 40.4668C45.0934 39.886 44.869 39.2524 44.869 38.566C44.869 38.2228 44.9086 37.84 44.9878 37.4176C43.8526 38.9488 42.8098 40.0972 41.8594 40.8628C40.9354 41.6284 39.985 42.0112 39.0082 42.0112Z" fill="black"/>
<path d="M54.157 51.238C53.3386 51.238 52.705 51.0796 52.2562 50.7628C51.781 50.4724 51.5434 49.9576 51.5434 49.2184C51.5434 48.3736 51.8338 47.5816 52.4146 46.8424C52.969 46.1296 53.7214 45.4432 54.6718 44.7832C55.6222 44.1232 56.665 43.45 57.8002 42.7636C58.9618 42.1036 60.1102 41.3908 61.2454 40.6252C61.2454 39.6748 61.0474 38.8036 60.6514 38.0116C60.2554 37.2196 59.5426 36.4144 58.513 35.596C59.437 35.332 60.2158 34.87 60.8494 34.21C61.5094 33.55 61.9978 32.824 62.3146 32.032C62.6578 31.2136 62.8294 30.4612 62.8294 29.7748C62.8294 29.1676 62.6974 28.666 62.4334 28.27C62.1958 27.874 61.813 27.676 61.285 27.676C60.4138 27.676 59.635 28.006 58.9486 28.666C58.2622 29.326 57.6286 30.1972 57.0478 31.2796C56.467 32.362 55.873 33.55 55.2658 34.8436L54.7906 34.4476C55.3714 32.8636 55.9654 31.4512 56.5726 30.2104C57.2062 28.9696 57.9454 27.9928 58.7902 27.28C59.635 26.5408 60.6514 26.1712 61.8394 26.1712C62.737 26.1712 63.5026 26.4616 64.1362 27.0424C64.7962 27.6232 65.1262 28.4152 65.1262 29.4184C65.1262 30.3688 64.9018 31.2532 64.453 32.0716C64.0042 32.89 63.4234 33.616 62.7106 34.2496C61.9978 34.8568 61.2454 35.3584 60.4534 35.7544C61.8262 36.8104 62.7502 37.9984 63.2254 39.3184C64.2286 38.5528 65.113 37.7212 65.8786 36.8236C66.6706 35.8996 67.2514 34.87 67.621 33.7348L68.0566 34.21C67.687 35.398 67.093 36.4804 66.2746 37.4572C65.4562 38.4076 64.519 39.2788 63.463 40.0708C63.5158 40.2556 63.5554 40.4668 63.5818 40.7044C63.6082 40.942 63.6214 41.1664 63.6214 41.3776C63.6214 42.5656 63.3574 43.7404 62.8294 44.902C62.3014 46.09 61.5886 47.1592 60.691 48.1096C59.7934 49.06 58.777 49.8124 57.6418 50.3668C56.533 50.9476 55.3714 51.238 54.157 51.238ZM53.8798 50.0896C54.355 50.0896 54.9754 49.8916 55.741 49.4956C56.5066 49.126 57.2854 48.5716 58.0774 47.8324C58.8694 47.1196 59.5558 46.2352 60.1366 45.1792C60.7174 44.1232 61.0738 42.9088 61.2058 41.536C59.8066 42.4336 58.447 43.2652 57.127 44.0308C55.8334 44.7964 54.7642 45.5488 53.9194 46.288C53.0746 47.0536 52.6522 47.8852 52.6522 48.7828C52.6522 49.2316 52.771 49.5616 53.0086 49.7728C53.2462 49.984 53.5366 50.0896 53.8798 50.0896Z" fill="black"/>
<path d="M74.5266 23.0428C74.1042 23.0428 73.7214 22.9372 73.3782 22.726C73.0614 22.5148 72.903 22.1848 72.903 21.736C72.903 21.1816 73.2198 20.7064 73.8534 20.3104C74.5134 19.888 75.1602 19.6768 75.7938 19.6768C76.1898 19.6768 76.5066 19.7692 76.7442 19.954C76.9818 20.1388 77.1006 20.4556 77.1006 20.9044C77.1006 21.406 76.8234 21.8944 76.269 22.3696C75.741 22.8184 75.1602 23.0428 74.5266 23.0428ZM69.7746 41.1796C68.745 41.1796 67.9794 40.8496 67.4778 40.1896C66.9762 39.556 66.7254 38.7772 66.7254 37.8532C66.7254 37.246 66.831 36.4804 67.0422 35.5564C67.2798 34.6324 67.5834 33.6688 67.953 32.6656C68.3226 31.636 68.745 30.6724 69.2202 29.7748C69.7218 28.8772 70.2498 28.1512 70.8042 27.5968C71.3586 27.016 71.8998 26.7256 72.4278 26.7256C72.6654 26.7256 72.8634 26.8048 73.0218 26.9632C73.2066 27.0952 73.299 27.3064 73.299 27.5968C73.299 27.9136 73.0878 28.4284 72.6654 29.1412C72.2694 29.854 71.7942 30.6724 71.2398 31.5964C70.6854 32.5204 70.197 33.4972 69.7746 34.5268C69.3786 35.53 69.1806 36.4936 69.1806 37.4176C69.1806 38.368 69.339 39.0016 69.6558 39.3184C69.9726 39.6352 70.461 39.7936 71.121 39.7936C72.0186 39.7936 72.969 39.3448 73.9722 38.4472C75.0018 37.5496 76.0842 35.9788 77.2194 33.7348L77.5758 34.1308C76.8102 36.4012 75.7014 38.1436 74.2494 39.358C72.8238 40.5724 71.3322 41.1796 69.7746 41.1796Z" fill="black"/>
<path d="M79.7621 41.338C78.6269 41.338 77.8085 40.942 77.3069 40.15C76.8317 39.3844 76.5941 38.4208 76.5941 37.2592C76.5941 35.992 76.8317 34.4872 77.3069 32.7448C77.7821 31.0024 78.4025 29.1676 79.1681 27.2404C79.9601 25.3132 80.8181 23.4388 81.7421 21.6172C82.6661 19.7692 83.5901 18.0928 84.5141 16.588C85.4381 15.0832 86.2829 13.882 87.0485 12.9844C87.8405 12.0868 88.4609 11.638 88.9097 11.638C89.2001 11.638 89.4377 11.8096 89.6225 12.1528C89.8073 12.4696 89.9525 12.8656 90.0581 13.3408C90.1637 13.7896 90.2165 14.1988 90.2165 14.5684C90.2165 15.2812 90.0317 16.2184 89.6621 17.38C89.3189 18.5152 88.8173 19.7956 88.1573 21.2212C87.5237 22.6204 86.7581 24.046 85.8605 25.498C84.9893 26.9236 84.0257 28.2964 82.9697 29.6164C81.9401 30.9364 80.8445 32.0716 79.6829 33.022C79.5245 33.7348 79.3925 34.4344 79.2869 35.1208C79.2077 35.7808 79.1681 36.4144 79.1681 37.0216C79.1681 39.0544 79.7489 40.0708 80.9105 40.0708C81.6233 40.0708 82.3229 39.754 83.0093 39.1204C83.7221 38.4868 84.3821 37.6948 84.9893 36.7444C85.6229 35.7676 86.1641 34.7644 86.6129 33.7348L87.2069 34.0516C86.1509 36.2956 85.0025 38.0776 83.7617 39.3976C82.5209 40.6912 81.1877 41.338 79.7621 41.338ZM80.0393 31.6756C80.9633 30.7516 81.8609 29.6956 82.7321 28.5076C83.6033 27.2932 84.4085 26.0392 85.1477 24.7456C85.9133 23.452 86.5865 22.198 87.1673 20.9836C87.7481 19.7692 88.1969 18.6868 88.5137 17.7364C88.8305 16.7596 88.9889 16.0072 88.9889 15.4792C88.9889 15.2152 88.9493 15.0436 88.8701 14.9644C88.8173 14.8852 88.7645 14.8456 88.7117 14.8456C88.5005 14.8456 88.1309 15.1888 87.6029 15.8752C87.1013 16.5352 86.5073 17.4328 85.8209 18.568C85.1345 19.7032 84.4349 20.9968 83.7221 22.4488C83.0093 23.9008 82.3229 25.4188 81.6629 27.0028C81.0293 28.5868 80.4881 30.1444 80.0393 31.6756Z" fill="black"/>
<path d="M171.169 43.5952C170.218 43.5952 169.162 43.3972 168.001 43.0012C166.866 42.6052 165.691 42.1168 164.476 41.536C163.262 40.9816 162.061 40.4404 160.873 39.9124C160.213 40.6516 159.526 41.2192 158.814 41.6152C158.101 42.0376 157.322 42.2488 156.477 42.2488C155.632 42.2488 154.92 42.0508 154.339 41.6548C153.732 41.2588 153.283 40.7836 152.992 40.2292C152.676 39.7012 152.517 39.226 152.517 38.8036C152.517 38.3284 152.742 37.9192 153.19 37.576C153.613 37.2328 154.352 37.0612 155.408 37.0612C156.094 37.0612 156.847 37.1404 157.665 37.2988C158.51 37.4572 159.381 37.6552 160.279 37.8928C160.912 36.784 161.493 35.4904 162.021 34.012C162.576 32.5336 163.117 30.9628 163.645 29.2996C164.173 27.6364 164.701 25.9732 165.229 24.31C164.014 23.914 163.051 23.3332 162.338 22.5676C161.652 21.802 161.308 20.9704 161.308 20.0728C161.308 19.3864 161.533 18.7 161.982 18.0136C162.43 17.3008 163.024 16.9444 163.764 16.9444C163.579 17.2084 163.447 17.5912 163.368 18.0928C163.288 18.5944 163.249 19.03 163.249 19.3996C163.249 20.4028 163.46 21.2476 163.882 21.934C164.305 22.594 164.846 23.1088 165.506 23.4784C166.192 21.3664 166.932 19.4128 167.724 17.6176C168.542 15.8224 169.466 14.3836 170.496 13.3012C171.525 12.1924 172.7 11.638 174.02 11.638C174.548 11.638 175.102 11.7568 175.683 11.9944C176.29 12.232 176.805 12.6412 177.228 13.222C177.65 13.8028 177.861 14.6212 177.861 15.6772C177.861 16.5748 177.676 17.5516 177.307 18.6076C176.937 19.6372 176.37 20.6272 175.604 21.5776C174.838 22.5016 173.862 23.2672 172.674 23.8744C171.486 24.4552 170.086 24.7588 168.476 24.7852H167.724C167.196 26.3956 166.628 28.0324 166.021 29.6956C165.44 31.3588 164.82 32.9428 164.16 34.4476C163.5 35.926 162.787 37.246 162.021 38.4076C163.843 38.962 165.678 39.5164 167.526 40.0708C169.4 40.5988 171.063 40.8628 172.515 40.8628C173.571 40.8628 174.508 40.6516 175.327 40.2292C174.904 41.4436 174.337 42.3016 173.624 42.8032C172.938 43.3312 172.119 43.5952 171.169 43.5952ZM167.961 24.0328C169.149 24.0328 170.218 23.7028 171.169 23.0428C172.146 22.3564 172.964 21.5116 173.624 20.5084C174.31 19.4788 174.825 18.436 175.168 17.38C175.538 16.324 175.723 15.4 175.723 14.608C175.723 13.8424 175.578 13.3276 175.287 13.0636C174.997 12.7732 174.667 12.628 174.297 12.628C173.479 12.628 172.713 13.156 172 14.212C171.288 15.268 170.601 16.6672 169.941 18.4096C169.308 20.1256 168.648 22 167.961 24.0328ZM156.319 41.1004C156.9 41.1004 157.441 40.942 157.942 40.6252C158.47 40.3084 158.946 39.8596 159.368 39.2788C158.55 38.9356 157.744 38.6584 156.952 38.4472C156.187 38.2096 155.487 38.0908 154.854 38.0908C154.352 38.0908 154.009 38.1568 153.824 38.2888C153.639 38.4208 153.547 38.6056 153.547 38.8432C153.547 39.292 153.811 39.7804 154.339 40.3084C154.84 40.8364 155.5 41.1004 156.319 41.1004Z" fill="black"/>
<path d="M180.107 41.4172C178.972 41.4172 178.167 41.0608 177.691 40.348C177.216 39.6616 176.979 38.8168 176.979 37.8136C176.979 36.9952 177.111 36.1504 177.375 35.2792C177.639 34.408 177.982 33.5896 178.404 32.824C178.853 32.0584 179.341 31.438 179.869 30.9628C180.424 30.4876 180.978 30.25 181.533 30.25C181.77 30.25 182.047 30.316 182.364 30.448C182.127 30.6592 181.836 31.0552 181.493 31.636C181.176 32.1904 180.873 32.8372 180.582 33.5764C180.292 34.2892 180.041 35.002 179.83 35.7148C179.645 36.4276 179.553 37.0348 179.553 37.5364C179.553 38.3284 179.685 38.9092 179.949 39.2788C180.213 39.622 180.556 39.7936 180.978 39.7936C181.533 39.7936 182.193 39.5032 182.958 38.9224C183.724 38.3152 184.476 37.5496 185.215 36.6256C184.476 36.0184 183.895 35.2264 183.473 34.2496C183.077 33.2464 182.879 32.23 182.879 31.2004C182.879 30.3292 183.024 29.5108 183.315 28.7452C183.631 27.9796 184.08 27.3724 184.661 26.9236C185.242 26.4484 185.941 26.2108 186.76 26.2108C187.842 26.2108 188.568 26.5012 188.938 27.082C189.307 27.6628 189.492 28.3888 189.492 29.26C189.492 30.2896 189.241 31.438 188.74 32.7052C188.238 33.946 187.605 35.1472 186.839 36.3088C187.314 36.5728 187.816 36.7048 188.344 36.7048C188.951 36.7048 189.69 36.5068 190.561 36.1108C191.433 35.6884 192.106 34.936 192.581 33.8536L193.056 34.2496C192.528 35.4904 191.776 36.3748 190.799 36.9028C189.849 37.4044 188.938 37.6552 188.067 37.6552C187.354 37.6552 186.72 37.5232 186.166 37.2592C185.268 38.4472 184.278 39.4372 183.196 40.2292C182.14 41.0212 181.11 41.4172 180.107 41.4172ZM185.928 35.596C186.588 34.6192 187.129 33.6028 187.552 32.5468C188.001 31.4644 188.225 30.448 188.225 29.4976C188.225 28.732 188.106 28.1776 187.869 27.8344C187.657 27.4648 187.38 27.28 187.037 27.28C186.509 27.28 185.968 27.6628 185.413 28.4284C184.859 29.194 184.582 30.1576 184.582 31.3192C184.582 32.0848 184.687 32.8636 184.899 33.6556C185.136 34.4212 185.479 35.068 185.928 35.596Z" fill="black"/>
<path d="M195.204 41.9716C192.854 41.9716 191.679 40.6648 191.679 38.0512C191.679 36.8896 191.891 35.464 192.313 33.7744C192.762 32.0584 193.316 30.3028 193.976 28.5076C193.712 28.4548 193.461 28.4152 193.224 28.3888C192.986 28.336 192.762 28.27 192.551 28.1908V27.478C192.762 27.5044 193.013 27.5308 193.303 27.5572C193.593 27.5836 193.923 27.61 194.293 27.6364C194.847 26.2108 195.441 24.838 196.075 23.518C196.709 22.1716 197.329 20.9836 197.936 19.954C198.57 18.898 199.164 18.0664 199.718 17.4592C200.299 16.8256 200.787 16.5088 201.183 16.5088C201.395 16.5088 201.579 16.588 201.738 16.7464C201.923 16.8784 202.015 17.0896 202.015 17.38C202.015 17.8288 201.738 18.568 201.183 19.5976C200.629 20.6008 199.943 21.802 199.124 23.2012C198.306 24.6004 197.514 26.1184 196.748 27.7552H198.213C199.085 27.7552 199.995 27.742 200.946 27.7156C201.923 27.6892 202.899 27.6232 203.876 27.5176V28.2304C200.999 28.5472 198.675 28.7056 196.907 28.7056H196.313C195.705 30.1048 195.191 31.5436 194.768 33.022C194.346 34.5004 194.135 35.9392 194.135 37.3384C194.135 38.4736 194.306 39.292 194.649 39.7936C194.993 40.2688 195.56 40.5064 196.352 40.5064C197.725 40.5064 199.071 39.8992 200.391 38.6848C201.711 37.4704 202.873 35.8204 203.876 33.7348L204.391 34.1308C203.757 35.6092 202.952 36.9424 201.975 38.1304C201.025 39.3184 199.969 40.2556 198.807 40.942C197.646 41.6284 196.445 41.9716 195.204 41.9716Z" fill="black"/>
<path d="M206.496 41.9716C204.146 41.9716 202.972 40.6648 202.972 38.0512C202.972 36.8896 203.183 35.464 203.605 33.7744C204.054 32.0584 204.608 30.3028 205.268 28.5076C205.004 28.4548 204.754 28.4152 204.516 28.3888C204.278 28.336 204.054 28.27 203.843 28.1908V27.478C204.054 27.5044 204.305 27.5308 204.595 27.5572C204.886 27.5836 205.216 27.61 205.585 27.6364C206.14 26.2108 206.734 24.838 207.367 23.518C208.001 22.1716 208.621 20.9836 209.228 19.954C209.862 18.898 210.456 18.0664 211.01 17.4592C211.591 16.8256 212.08 16.5088 212.476 16.5088C212.687 16.5088 212.872 16.588 213.03 16.7464C213.215 16.8784 213.307 17.0896 213.307 17.38C213.307 17.8288 213.03 18.568 212.476 19.5976C211.921 20.6008 211.235 21.802 210.416 23.2012C209.598 24.6004 208.806 26.1184 208.04 27.7552H209.506C210.377 27.7552 211.288 27.742 212.238 27.7156C213.215 27.6892 214.192 27.6232 215.168 27.5176V28.2304C212.291 28.5472 209.968 28.7056 208.199 28.7056H207.605C206.998 30.1048 206.483 31.5436 206.06 33.022C205.638 34.5004 205.427 35.9392 205.427 37.3384C205.427 38.4736 205.598 39.292 205.942 39.7936C206.285 40.2688 206.852 40.5064 207.644 40.5064C209.017 40.5064 210.364 39.8992 211.684 38.6848C213.004 37.4704 214.165 35.8204 215.168 33.7348L215.683 34.1308C215.05 35.6092 214.244 36.9424 213.268 38.1304C212.317 39.3184 211.261 40.2556 210.1 40.942C208.938 41.6284 207.737 41.9716 206.496 41.9716Z" fill="black"/>
<path d="M218.699 41.8924C217.089 41.8924 215.874 41.4436 215.056 40.546C214.264 39.6748 213.868 38.5924 213.868 37.2988C213.868 36.1108 214.158 34.8568 214.739 33.5368C215.346 32.2168 216.138 30.976 217.115 29.8144C218.118 28.6528 219.214 27.7156 220.402 27.0028C221.59 26.2636 222.765 25.894 223.926 25.894C224.533 25.894 225.088 26.0524 225.589 26.3692C226.117 26.686 226.381 27.3328 226.381 28.3096C226.381 29.3128 226.078 30.2632 225.471 31.1608C224.89 32.032 224.111 32.8108 223.134 33.4972C222.184 34.1836 221.128 34.7512 219.966 35.2C218.831 35.6224 217.696 35.8864 216.561 35.992C216.508 36.256 216.468 36.5068 216.442 36.7444C216.415 36.982 216.402 37.2064 216.402 37.4176C216.402 38.236 216.613 39.0016 217.036 39.7144C217.485 40.4008 218.316 40.744 219.531 40.744C220.666 40.744 221.788 40.4272 222.897 39.7936C224.005 39.1336 225.035 38.2756 225.985 37.2196C226.936 36.1636 227.741 35.002 228.401 33.7348L228.876 34.0912C228.163 35.6752 227.253 37.048 226.144 38.2096C225.061 39.3712 223.873 40.2688 222.58 40.9024C221.313 41.5624 220.019 41.8924 218.699 41.8924ZM216.759 35.2396C217.471 35.002 218.277 34.6588 219.174 34.21C220.072 33.7348 220.93 33.1804 221.748 32.5468C222.593 31.9132 223.279 31.2136 223.807 30.448C224.362 29.6824 224.639 28.8772 224.639 28.0324C224.639 27.742 224.586 27.5176 224.481 27.3592C224.375 27.2008 224.151 27.1216 223.807 27.1216C223.174 27.1216 222.501 27.3724 221.788 27.874C221.075 28.3492 220.389 28.9828 219.729 29.7748C219.069 30.5668 218.475 31.438 217.947 32.3884C217.419 33.3388 217.023 34.2892 216.759 35.2396Z" fill="black"/>
<path d="M234.46 41.1796C233.563 41.1796 232.85 40.942 232.322 40.4668C231.82 39.9916 231.569 39.3712 231.569 38.6056C231.569 37.8136 231.754 36.982 232.124 36.1108C232.493 35.2396 232.85 34.3816 233.193 33.5368C233.563 32.6656 233.747 31.8868 233.747 31.2004C233.747 30.3556 233.497 29.7352 232.995 29.3392C232.52 28.9168 232.031 28.534 231.53 28.1908C230.923 29.7484 230.289 31.2268 229.629 32.626C228.969 34.0252 228.428 35.0812 228.005 35.794L227.649 35.1208C228.019 34.4344 228.494 33.4312 229.075 32.1112C229.682 30.7912 230.276 29.2864 230.857 27.5968C230.593 27.3328 230.461 27.016 230.461 26.6464C230.461 25.8544 230.685 25.2076 231.134 24.706C231.583 24.2044 231.913 23.9536 232.124 23.9536C232.414 23.9536 232.573 24.0856 232.599 24.3496C232.652 24.5872 232.678 24.772 232.678 24.904C232.678 25.036 232.599 25.3 232.441 25.696C232.309 26.0656 232.243 26.29 232.243 26.3692C232.243 26.7388 232.441 27.082 232.837 27.3988C233.259 27.6892 233.734 28.0324 234.262 28.4284C234.79 28.798 235.252 29.26 235.648 29.8144C236.071 30.3424 236.282 31.0288 236.282 31.8736C236.282 32.6656 236.11 33.4708 235.767 34.2892C235.45 35.1076 235.12 35.8864 234.777 36.6256C234.46 37.3648 234.302 38.0116 234.302 38.566C234.302 39.0412 234.421 39.358 234.658 39.5164C234.896 39.6748 235.173 39.754 235.49 39.754C236.123 39.754 236.77 39.556 237.43 39.16C238.117 38.764 238.777 38.2624 239.41 37.6552C240.044 37.048 240.611 36.4144 241.113 35.7544C241.615 35.068 241.984 34.4344 242.222 33.8536L242.737 34.2496C242.235 35.3584 241.549 36.454 240.677 37.5364C239.806 38.5924 238.829 39.4636 237.747 40.15C236.691 40.8364 235.595 41.1796 234.46 41.1796Z" fill="black"/>
<path d="M243.079 51.238C242.419 51.238 241.839 51.0532 241.337 50.6836C240.835 50.3404 240.585 49.8256 240.585 49.1392C240.585 48.004 240.941 47.0272 241.654 46.2088C242.393 45.3904 243.343 44.638 244.505 43.9516C245.693 43.2916 246.947 42.6316 248.267 41.9716C248.637 40.9948 249.006 39.9124 249.376 38.7244C249.772 37.51 250.141 36.1768 250.485 34.7248C249.64 36.0976 248.729 37.2856 247.752 38.2888C246.802 39.2656 245.785 39.754 244.703 39.754C243.937 39.754 243.211 39.5032 242.525 39.0016C241.865 38.4736 241.535 37.6552 241.535 36.5464C241.535 35.8072 241.654 34.9492 241.891 33.9724C242.155 32.9956 242.472 32.0452 242.842 31.1212C243.211 30.1972 243.594 29.4316 243.99 28.8244C244.386 28.2172 244.729 27.9136 245.02 27.9136C245.125 27.9136 245.31 27.9532 245.574 28.0324C245.865 28.1116 246.129 28.2304 246.366 28.3888C246.63 28.5208 246.762 28.666 246.762 28.8244C246.525 29.1676 246.261 29.656 245.97 30.2896C245.68 30.9232 245.389 31.636 245.099 32.428C244.835 33.1936 244.611 33.946 244.426 34.6852C244.241 35.4244 244.149 36.058 244.149 36.586C244.149 37.0612 244.254 37.444 244.465 37.7344C244.677 38.0248 245.046 38.17 245.574 38.17C246.076 38.17 246.63 37.9324 247.237 37.4572C247.871 36.9556 248.491 36.322 249.099 35.5564C249.732 34.7908 250.313 33.9724 250.841 33.1012C250.92 32.8108 250.986 32.5204 251.039 32.23C251.118 31.9132 251.184 31.5964 251.237 31.2796C251.316 30.91 251.501 30.4876 251.791 30.0124C252.108 29.5108 252.597 29.26 253.257 29.26C253.494 29.26 253.771 29.2996 254.088 29.3788C254.088 29.8012 253.956 30.5932 253.692 31.7548C253.455 32.89 253.098 34.2232 252.623 35.7544C252.174 37.2856 251.633 38.8564 250.999 40.4668C252.24 39.9916 253.455 39.2128 254.643 38.1304C255.831 37.0216 256.794 35.5564 257.533 33.7348L258.048 34.1308C257.652 35.398 257.045 36.5068 256.227 37.4572C255.435 38.3812 254.537 39.1864 253.534 39.8728C252.531 40.5328 251.541 41.0872 250.564 41.536C249.877 43.2256 249.125 44.8096 248.307 46.288C247.515 47.7664 246.67 48.9544 245.772 49.852C244.901 50.776 244.003 51.238 243.079 51.238ZM242.881 49.9708C243.277 49.9708 243.937 49.4428 244.861 48.3868C245.812 47.3572 246.815 45.5356 247.871 42.922C246.789 43.5028 245.785 44.0704 244.861 44.6248C243.937 45.2056 243.198 45.826 242.644 46.486C242.089 47.146 241.812 47.9116 241.812 48.7828C241.812 48.994 241.891 49.2448 242.05 49.5352C242.208 49.8256 242.485 49.9708 242.881 49.9708Z" fill="black"/>
</svg>
