<svg width="143" height="55" viewBox="0 0 143 55" fill="none" xmlns="http://www.w3.org/2000/svg">
<path d="M37.9155 10.6915C38.4867 11.2534 38.9496 11.9067 39.2916 12.6342C39.6236 13.3506 39.8259 14.1213 39.8912 14.905C40.6753 14.9568 41.4492 15.1464 42.1673 15.4677C42.8996 15.7946 43.5623 16.246 44.1361 16.8104C46.7686 19.3998 46.8036 23.6473 44.2142 26.2798C43.7931 26.7079 43.3206 27.0744 42.8048 27.3738C43.3255 27.6646 43.8033 28.0226 44.2321 28.4444C46.8646 31.0338 46.8996 35.2813 44.3102 37.9138C43.7458 38.4875 43.0906 38.9498 42.3632 39.2894C41.6505 39.6213 40.881 39.8248 40.0974 39.8889C40.045 40.6736 39.856 41.4469 39.5371 42.165C39.2053 42.9023 38.7527 43.5639 38.1914 44.1345C35.6014 46.7676 31.3527 46.8039 28.7202 44.2145C28.2915 43.7928 27.9255 43.3209 27.6262 42.8051C27.3354 43.3258 26.9767 43.8042 26.5556 44.2324C23.9662 46.8646 19.7175 46.8984 17.0844 44.3084C16.5131 43.7465 16.0502 43.0932 15.7082 42.3658C15.3763 41.6494 15.1739 40.8787 15.1086 40.095C14.3246 40.0432 13.5512 39.853 12.8326 39.5322C12.1002 39.2053 11.4375 38.7539 10.8637 38.1896C8.23123 35.6002 8.19619 31.3527 10.7856 28.7202C11.2067 28.2921 11.6792 27.9255 12.195 27.6262C11.6743 27.3354 11.1965 26.9773 10.7677 26.5556C8.1353 23.9662 8.10025 19.7188 10.6896 17.0863C11.254 16.5126 11.9092 16.0503 12.6366 15.7107C13.3493 15.3788 14.1188 15.1753 14.9024 15.1111C14.9549 14.3265 15.1438 13.5531 15.4627 12.8351C15.7945 12.0977 16.2472 11.4363 16.8085 10.8656C19.3985 8.23255 23.6472 8.19621 26.2797 10.7856C26.7084 11.2073 27.0743 11.6792 27.3737 12.195C27.6645 11.6743 28.0232 11.1959 28.4443 10.7678C31.0337 8.13532 35.2824 8.10149 37.9155 10.6915ZM37.7027 13.3756C37.4515 12.8408 37.1084 12.357 36.686 11.9415C34.7416 10.0289 31.6056 10.0542 29.6943 11.9973C29.2775 12.421 28.9443 12.9098 28.7026 13.4517C28.4171 14.092 28.2705 14.8012 28.2775 15.5016L28.3692 26.6162L39.4812 26.5245C40.1842 26.5199 40.8908 26.3616 41.5269 26.065C42.0642 25.8151 42.5474 25.4738 42.9642 25.05C44.8755 23.1069 44.8496 19.9715 42.9065 18.0603C42.4828 17.6435 41.9934 17.3096 41.4521 17.0686C40.8144 16.7831 40.1164 16.6388 39.4159 16.6446L39.4103 16.6503C39.0709 16.9953 38.5161 17.0005 38.1705 16.6606C37.8255 16.3212 37.821 15.7658 38.1603 15.4208C38.1551 14.716 37.9987 14.0149 37.7027 13.3756ZM26.0649 13.473C25.8151 12.9357 25.4738 12.4525 25.05 12.0357C23.1069 10.1244 19.9709 10.1509 18.0584 12.0952C17.6428 12.5177 17.3077 13.0071 17.0636 13.5503C16.7812 14.1862 16.6376 14.8848 16.6421 15.5865L16.6478 15.5921C16.9928 15.9315 16.9974 16.4869 16.658 16.8319C16.3187 17.1769 15.7633 17.1815 15.4183 16.8421C14.7141 16.8466 14.0149 17.0025 13.3782 17.2997C12.8403 17.5502 12.3565 17.8921 11.9397 18.3159C10.0284 20.259 10.0542 23.3944 11.9973 25.3056C12.4211 25.7225 12.9098 26.0556 13.4518 26.2973C14.092 26.5828 14.8012 26.7294 15.5016 26.7224C15.5029 26.7224 15.5041 26.7224 15.5054 26.7224L26.6162 26.6307L26.5245 15.5187C26.5245 15.5175 26.5245 15.5163 26.5245 15.515C26.5193 14.8138 26.361 14.1084 26.0649 13.473ZM43.0025 29.6943C42.5788 29.2775 42.09 28.9443 41.5481 28.7026C41.2283 28.5602 40.8914 28.4526 40.5468 28.3804C40.2021 28.3095 39.8509 28.274 39.5007 28.2775C39.4983 28.2775 39.4964 28.2782 39.4946 28.2776L28.3837 28.3692L28.4754 39.4813C28.4754 39.4826 28.4754 39.4837 28.4754 39.485C28.4805 40.1861 28.6389 40.8915 28.9349 41.527C29.1848 42.0643 29.526 42.5475 29.9498 42.9643C31.8929 44.8756 35.0289 44.8491 36.9414 42.9047C37.357 42.4823 37.6921 41.9929 37.9362 41.4497C38.2198 40.8113 38.3634 40.1102 38.3583 39.4066C38.0133 39.0673 38.0087 38.5119 38.3481 38.1669C38.6874 37.8219 39.2428 37.8173 39.5878 38.1566L39.5884 38.1573C40.2908 38.1521 40.9875 37.9963 41.6218 37.7004C42.1597 37.4498 42.6434 37.108 43.0603 36.6842C44.9716 34.741 44.9457 31.6056 43.0025 29.6943ZM26.7224 39.4982L26.6307 28.3836L15.5186 28.4754C14.8156 28.48 14.109 28.6383 13.4735 28.9342C12.9356 29.1848 12.4524 29.5261 12.0356 29.9498C10.1243 31.8929 10.1502 35.0283 12.0933 36.9396C12.517 37.3563 13.0065 37.6902 13.5477 37.9312C14.1917 38.2191 14.8953 38.364 15.6013 38.355L15.5897 38.3669C15.929 38.0219 16.4844 38.0173 16.8294 38.3567C17.1751 38.6967 17.179 39.2514 16.8396 39.5964C16.8479 40.2957 17.0036 40.9911 17.2971 41.6242C17.5483 42.159 17.8914 42.6428 18.3139 43.0584C20.2583 44.971 23.3942 44.9457 25.3055 43.0026C25.7224 42.5788 26.0555 42.09 26.2972 41.5481C26.5827 40.9078 26.7294 40.1987 26.7224 39.4982Z" fill="#021F02"/>
<path d="M36.686 11.9415C37.1085 12.357 37.4516 12.8408 37.7027 13.3756C37.9988 14.0148 38.1552 14.7159 38.1604 15.4207C37.821 15.7657 37.8256 16.3211 38.1706 16.6604C38.5163 17.0004 39.071 16.9952 39.4104 16.6502L39.4159 16.6446C40.1163 16.6388 40.8143 16.7831 41.4521 17.0686C41.9934 17.3096 42.4828 17.6435 42.9065 18.0602C44.8496 19.9715 44.8755 23.1069 42.9642 25.05C42.5474 25.4737 42.0642 25.815 41.5269 26.065C40.8909 26.3616 40.1841 26.5199 39.4812 26.5245L28.3693 26.6162L28.2776 15.5016C28.2705 14.8011 28.4172 14.092 28.7027 13.4517C28.9443 12.9097 29.2776 12.421 29.6944 11.9973C31.6057 10.0542 34.7417 10.0289 36.686 11.9415Z" fill="#FC8C3D"/>
<path d="M25.0502 12.0356C25.474 12.4525 25.8152 12.9356 26.0652 13.4729C26.3612 14.1084 26.5195 14.8138 26.5246 15.5149C26.5246 15.5162 26.5247 15.5174 26.5247 15.5186L26.6163 26.6306L15.5055 26.7223C15.5042 26.7223 15.5031 26.7223 15.5018 26.7224C14.8013 26.7294 14.0922 26.5827 13.4519 26.2972C12.9099 26.0556 12.4212 25.7223 11.9975 25.3056C10.0544 23.3943 10.0285 20.2589 11.9398 18.3158C12.3566 17.8921 12.8405 17.5502 13.3783 17.2996C14.015 17.0023 14.7142 16.8466 15.4184 16.842C15.7634 17.1814 16.3188 17.1768 16.6582 16.8318C16.9976 16.4868 16.993 15.9314 16.648 15.592L16.6423 15.5865C16.6378 14.8848 16.7814 14.1861 17.0638 13.5503C17.3079 13.0071 17.643 12.5177 18.0586 12.0952C19.971 10.1508 23.1071 10.1243 25.0502 12.0356Z" fill="white"/>
<path d="M41.5481 28.7026C42.0901 28.9443 42.5788 29.2775 43.0025 29.6943C44.9456 31.6056 44.9715 34.741 43.0602 36.6841C42.6434 37.1078 42.1596 37.4497 41.6217 37.7003C40.9875 37.9962 40.2908 38.152 39.5884 38.1572L39.5878 38.1565C39.2428 37.8172 38.6874 37.8218 38.348 38.1668C38.0086 38.5118 38.0132 39.0672 38.3582 39.4065C38.3634 40.1101 38.2198 40.8112 37.9361 41.4495C37.692 41.9928 37.357 42.4821 36.9414 42.9046C35.0288 44.849 31.8929 44.8755 29.9498 42.9642C29.526 42.5474 29.1848 42.0642 28.9348 41.5269C28.6388 40.8915 28.4805 40.186 28.4753 39.4849C28.4753 39.4836 28.4753 39.4825 28.4753 39.4812L28.3838 28.3692L39.4946 28.2775C39.4965 28.2781 39.4983 28.2775 39.5008 28.2775C39.851 28.274 40.2022 28.3095 40.5468 28.3804C40.8914 28.4526 41.2283 28.5602 41.5481 28.7026Z" fill="white"/>
<path d="M26.6307 28.3837L26.7224 39.4982C26.7295 40.1986 26.5828 40.9078 26.2973 41.5481C26.0557 42.09 25.7224 42.5788 25.3056 43.0025C23.3943 44.9456 20.2583 44.9708 18.314 43.0583C17.8915 42.6427 17.5484 42.1589 17.2972 41.6241C17.0037 40.9912 16.848 40.2956 16.8397 39.5964C17.1791 39.2514 17.1751 38.6966 16.8295 38.3566C16.4845 38.0173 15.9291 38.0218 15.5898 38.3668L15.6014 38.355C14.8954 38.3639 14.1918 38.2191 13.5478 37.9312C13.0065 37.6902 12.5171 37.3563 12.0934 36.9395C10.1503 35.0282 10.1244 31.8929 12.0357 29.9498C12.4525 29.526 12.9357 29.1848 13.4736 28.9342C14.109 28.6382 14.8157 28.4799 15.5187 28.4754L26.6307 28.3837Z" fill="#FC8C3D"/>
<path d="M63.6152 35.7188C62.952 35.7188 62.4738 35.4874 62.1808 35.0247C61.9032 34.5774 61.7643 34.0145 61.7643 33.3358C61.7643 32.5955 61.9032 31.7163 62.1808 30.6984C62.4584 29.6804 62.8209 28.6085 63.2682 27.4825C63.7309 26.3566 64.2321 25.2615 64.772 24.1973C65.3118 23.1176 65.8516 22.1382 66.3915 21.259C66.9313 20.3799 67.4249 19.6781 67.8721 19.1537C68.3349 18.6293 68.6973 18.3671 68.9595 18.3671C69.1292 18.3671 69.268 18.4674 69.376 18.6679C69.4839 18.8529 69.5688 19.0843 69.6304 19.3619C69.6921 19.6241 69.723 19.8632 69.723 20.0791C69.723 20.4956 69.615 21.0431 69.3991 21.7218C69.1986 22.385 68.9055 23.133 68.5199 23.9659C68.1498 24.7834 67.7025 25.6163 67.1781 26.4646C66.6691 27.2974 66.1061 28.0995 65.4892 28.8707C64.8876 29.6418 64.2476 30.3051 63.5689 30.8603C63.4764 31.2768 63.3993 31.6855 63.3376 32.0865C63.2913 32.4721 63.2682 32.8423 63.2682 33.197C63.2682 34.3846 63.6075 34.9785 64.2861 34.9785C64.7026 34.9785 65.1113 34.7934 65.5123 34.4232C65.9288 34.053 66.3143 33.5903 66.6691 33.0351C67.0393 32.4644 67.3554 31.8783 67.6177 31.2768L67.9647 31.4618C67.3477 32.7729 66.6768 33.814 65.9519 34.5852C65.227 35.3409 64.4481 35.7188 63.6152 35.7188ZM63.7771 30.0737C64.317 29.5339 64.8414 28.9169 65.3504 28.2229C65.8593 27.5134 66.3298 26.7807 66.7616 26.025C67.2089 25.2692 67.6022 24.5366 67.9415 23.8271C68.2809 23.1176 68.5431 22.4852 68.7282 21.93C68.9132 21.3593 69.0058 20.9197 69.0058 20.6112C69.0058 20.457 68.9827 20.3568 68.9364 20.3105C68.9055 20.2642 68.8747 20.2411 68.8438 20.2411C68.7204 20.2411 68.5045 20.4416 68.196 20.8426C67.903 21.2282 67.556 21.7526 67.1549 22.4158C66.7539 23.079 66.3452 23.8348 65.9288 24.6831C65.5123 25.5314 65.1113 26.4183 64.7257 27.3437C64.3555 28.2691 64.0393 29.1791 63.7771 30.0737Z" fill="black"/>
<path d="M68.7589 35.7651C68.0957 35.7651 67.6252 35.5568 67.3476 35.1404C67.07 34.7394 66.9312 34.2458 66.9312 33.6597C66.9312 33.1816 67.0083 32.688 67.1625 32.179C67.3168 31.6701 67.5173 31.1919 67.7641 30.7446C68.0263 30.2974 68.3116 29.9349 68.6201 29.6573C68.944 29.3796 69.2679 29.2408 69.5918 29.2408C69.7306 29.2408 69.8925 29.2794 70.0776 29.3565C69.9388 29.4799 69.7691 29.7113 69.5686 30.0506C69.3835 30.3745 69.2062 30.7524 69.0365 31.1842C68.8669 31.6007 68.7203 32.0171 68.5969 32.4335C68.489 32.85 68.435 33.2047 68.435 33.4978C68.435 33.9605 68.5121 34.2998 68.6663 34.5157C68.8206 34.7163 69.0211 34.8165 69.2679 34.8165C69.5918 34.8165 69.9774 34.6468 70.4246 34.3075C70.8719 33.9528 71.3115 33.5055 71.7434 32.9657C71.3115 32.6109 70.9722 32.1482 70.7254 31.5775C70.4941 30.9914 70.3784 30.3976 70.3784 29.7961C70.3784 29.2871 70.4632 28.809 70.6329 28.3617C70.818 27.9144 71.0802 27.5596 71.4195 27.2974C71.7588 27.0198 72.1675 26.881 72.6457 26.881C73.278 26.881 73.7022 27.0507 73.9181 27.39C74.1341 27.7293 74.242 28.1535 74.242 28.6624C74.242 29.264 74.0955 29.9349 73.8024 30.6752C73.5094 31.4002 73.1392 32.1019 72.6919 32.7806C72.9696 32.9348 73.2626 33.0119 73.5711 33.0119C73.9258 33.0119 74.3577 32.8963 74.8667 32.6649C75.3757 32.4181 75.769 31.9785 76.0466 31.3462L76.3242 31.5775C76.0158 32.3024 75.5762 32.8191 75.0055 33.1276C74.4502 33.4207 73.9181 33.5672 73.4091 33.5672C72.9927 33.5672 72.6225 33.4901 72.2986 33.3358C71.7742 34.0299 71.1958 34.6083 70.5635 35.071C69.9465 35.5337 69.345 35.7651 68.7589 35.7651ZM72.1598 32.3641C72.5454 31.7935 72.8616 31.1996 73.1084 30.5827C73.3706 29.9503 73.5017 29.3565 73.5017 28.8013C73.5017 28.354 73.4323 28.0301 73.2935 27.8296C73.1701 27.6136 73.0081 27.5057 72.8076 27.5057C72.4991 27.5057 72.183 27.7293 71.8591 28.1766C71.5352 28.6239 71.3732 29.1868 71.3732 29.8655C71.3732 30.3128 71.4349 30.7678 71.5583 31.2305C71.6971 31.6778 71.8976 32.0557 72.1598 32.3641Z" fill="black"/>
<path d="M77.579 36.089C76.2063 36.089 75.5199 35.3255 75.5199 33.7985C75.5199 33.1199 75.6433 32.287 75.8901 31.2999C76.1523 30.2974 76.4762 29.2717 76.8618 28.2229C76.7075 28.192 76.561 28.1689 76.4222 28.1535C76.2834 28.1226 76.1523 28.084 76.0289 28.0378V27.6213C76.1523 27.6368 76.2988 27.6522 76.4685 27.6676C76.6381 27.683 76.8309 27.6985 77.0469 27.7139C77.3708 26.881 77.7178 26.079 78.088 25.3078C78.4581 24.5212 78.8206 23.8271 79.1753 23.2256C79.5455 22.6086 79.8925 22.1228 80.2164 21.768C80.5558 21.3979 80.8411 21.2128 81.0724 21.2128C81.1958 21.2128 81.3038 21.259 81.3963 21.3516C81.5043 21.4287 81.5583 21.5521 81.5583 21.7218C81.5583 21.984 81.3963 22.4158 81.0724 23.0174C80.7485 23.6035 80.3475 24.3052 79.8694 25.1227C79.3913 25.9401 78.9285 26.827 78.4813 27.7833H79.3373C79.8463 27.7833 80.3784 27.7756 80.9336 27.7602C81.5043 27.7447 82.075 27.7062 82.6457 27.6445V28.0609C80.9645 28.246 79.6072 28.3385 78.5738 28.3385H78.2268C77.872 29.156 77.5713 29.9966 77.3245 30.8603C77.0777 31.724 76.9543 32.5646 76.9543 33.3821C76.9543 34.0453 77.0546 34.5235 77.2551 34.8165C77.4556 35.0941 77.7872 35.2329 78.2499 35.2329C79.0519 35.2329 79.8385 34.8782 80.6097 34.1687C81.3809 33.4592 82.0596 32.4952 82.6457 31.2768L82.9464 31.5081C82.5763 32.3718 82.1058 33.1507 81.5352 33.8448C80.9799 34.5389 80.363 35.0864 79.6843 35.4874C79.0057 35.8885 78.3039 36.089 77.579 36.089Z" fill="black"/>
<path d="M83.8061 35.7651C83.1428 35.7651 82.6724 35.5568 82.3948 35.1404C82.1172 34.7394 81.9784 34.2458 81.9784 33.6597C81.9784 33.1816 82.0555 32.688 82.2097 32.179C82.3639 31.6701 82.5645 31.1919 82.8112 30.7446C83.0734 30.2974 83.3588 29.9349 83.6672 29.6573C83.9911 29.3796 84.315 29.2408 84.6389 29.2408C84.7778 29.2408 84.9397 29.2794 85.1248 29.3565C84.986 29.4799 84.8163 29.7113 84.6158 30.0506C84.4307 30.3745 84.2534 30.7524 84.0837 31.1842C83.914 31.6007 83.7675 32.0171 83.6441 32.4335C83.5361 32.85 83.4822 33.2047 83.4822 33.4978C83.4822 33.9605 83.5593 34.2998 83.7135 34.5157C83.8678 34.7163 84.0683 34.8165 84.315 34.8165C84.6389 34.8165 85.0245 34.6468 85.4718 34.3075C85.9191 33.9528 86.3587 33.5055 86.7906 32.9657C86.3587 32.6109 86.0194 32.1482 85.7726 31.5775C85.5412 30.9914 85.4256 30.3976 85.4256 29.7961C85.4256 29.2871 85.5104 28.809 85.68 28.3617C85.8651 27.9144 86.1273 27.5596 86.4667 27.2974C86.806 27.0198 87.2147 26.881 87.6928 26.881C88.3252 26.881 88.7494 27.0507 88.9653 27.39C89.1812 27.7293 89.2892 28.1535 89.2892 28.6624C89.2892 29.264 89.1427 29.9349 88.8496 30.6752C88.5566 31.4002 88.1864 32.1019 87.7391 32.7806C88.0167 32.9348 88.3098 33.0119 88.6183 33.0119C88.973 33.0119 89.4049 32.8963 89.9139 32.6649C90.4228 32.4181 90.8161 31.9785 91.0938 31.3462L91.3714 31.5775C91.0629 32.3024 90.6234 32.8191 90.0527 33.1276C89.4974 33.4207 88.9653 33.5672 88.4563 33.5672C88.0399 33.5672 87.6697 33.4901 87.3458 33.3358C86.8214 34.0299 86.243 34.6083 85.6106 35.071C84.9937 35.5337 84.3922 35.7651 83.8061 35.7651ZM87.207 32.3641C87.5926 31.7935 87.9088 31.1996 88.1556 30.5827C88.4178 29.9503 88.5489 29.3565 88.5489 28.8013C88.5489 28.354 88.4795 28.0301 88.3406 27.8296C88.2172 27.6136 88.0553 27.5057 87.8548 27.5057C87.5463 27.5057 87.2301 27.7293 86.9062 28.1766C86.5823 28.6239 86.4204 29.1868 86.4204 29.8655C86.4204 30.3128 86.4821 30.7678 86.6055 31.2305C86.7443 31.6778 86.9448 32.0557 87.207 32.3641Z" fill="black"/>
<path d="M102.32 35.7419C101.78 35.7419 101.387 35.5723 101.14 35.2329C100.893 34.9091 100.77 34.5157 100.77 34.053C100.77 33.6674 100.824 33.2818 100.932 32.8963C101.055 32.5107 101.171 32.1328 101.279 31.7626C101.402 31.3924 101.464 31.0608 101.464 30.7678C101.464 30.4593 101.395 30.2434 101.256 30.12C101.117 29.9966 100.963 29.9349 100.793 29.9349C100.407 29.9349 99.9833 30.2357 99.5206 30.8372C99.0733 31.4387 98.4872 32.287 97.7623 33.3821C97.5155 33.7523 97.3073 34.1302 97.1376 34.5157C96.9679 34.8859 96.806 35.2252 96.6517 35.5337C96.5284 35.5337 96.3741 35.5183 96.189 35.4874C96.0039 35.4566 95.8343 35.4026 95.68 35.3255C95.5412 35.2638 95.4718 35.179 95.4718 35.071C95.4718 34.963 95.5412 34.7085 95.68 34.3075C95.8343 33.8911 96.0039 33.4129 96.189 32.8731C96.3895 32.3179 96.5592 31.7626 96.698 31.2074C96.8523 30.6367 96.9294 30.1508 96.9294 29.7498C96.9294 29.4876 96.8831 29.2794 96.7906 29.1251C96.7134 28.9555 96.5669 28.8707 96.351 28.8707C96.0117 28.8707 95.6029 29.0789 95.1248 29.4953C94.6467 29.8963 94.1531 30.4285 93.6441 31.0917C93.1351 31.7549 92.6493 32.4875 92.1866 33.2896C91.7393 34.0762 91.3768 34.8628 91.0992 35.6494C90.8833 35.6494 90.6211 35.5954 90.3126 35.4874C90.0041 35.3795 89.8499 35.2715 89.8499 35.1635C89.8499 35.071 89.9347 34.8011 90.1044 34.3538C90.2586 33.8911 90.4437 33.3435 90.6596 32.7112C90.8601 32.0634 91.0375 31.4079 91.1917 30.7446C91.3614 30.0814 91.4462 29.4953 91.4462 28.9863C91.5388 28.8784 91.6853 28.7704 91.8858 28.6624C92.0863 28.5545 92.2945 28.5005 92.5105 28.5005C92.9269 28.5005 93.1351 28.701 93.1351 29.102C93.1351 29.3025 93.0734 29.6496 92.95 30.1431C92.8421 30.6213 92.7033 31.1534 92.5336 31.7395C92.8421 31.2459 93.1891 30.7446 93.5747 30.2357C93.9757 29.7113 94.3922 29.2331 94.824 28.8013C95.2559 28.3694 95.6878 28.0224 96.1196 27.7602C96.5669 27.4825 96.9988 27.3437 97.4152 27.3437C97.8934 27.3437 98.2173 27.5211 98.3869 27.8758C98.572 28.2152 98.6645 28.6239 98.6645 29.102C98.6645 29.4876 98.6183 29.8963 98.5257 30.3282C98.4486 30.7446 98.3561 31.1379 98.2481 31.5081C98.1401 31.8629 98.0399 32.1482 97.9473 32.3641C98.2712 31.778 98.626 31.2151 99.0116 30.6752C99.4126 30.12 99.8445 29.6727 100.307 29.3334C100.77 28.9786 101.263 28.8013 101.788 28.8013C102.281 28.8013 102.621 28.9478 102.806 29.2408C103.006 29.5339 103.107 29.8809 103.107 30.2819C103.107 30.6829 103.037 31.1225 102.898 31.6007C102.76 32.0788 102.613 32.5415 102.459 32.9888C102.32 33.4361 102.251 33.8217 102.251 34.1456C102.251 34.3461 102.297 34.5312 102.389 34.7008C102.497 34.8551 102.682 34.9322 102.945 34.9322C103.376 34.9322 103.778 34.7394 104.148 34.3538C104.533 33.9528 104.888 33.4746 105.212 32.9194C105.536 32.3487 105.813 31.8012 106.045 31.2768L106.322 31.6007C106.076 32.2485 105.759 32.8963 105.374 33.5441C104.988 34.1764 104.533 34.7008 104.009 35.1173C103.5 35.5337 102.937 35.7419 102.32 35.7419Z" fill="black"/>
<path d="M106.727 36.1121C106.249 36.1121 105.848 35.9502 105.524 35.6263C105.185 35.3178 105.015 34.8396 105.015 34.1918C105.015 33.6366 105.138 33.0428 105.385 32.4104C105.632 31.7626 105.971 31.1302 106.403 30.5133C106.835 29.8809 107.321 29.3102 107.861 28.8013C108.416 28.2768 108.994 27.8604 109.596 27.5519C110.213 27.2435 110.822 27.0892 111.423 27.0892C112.025 27.0892 112.526 27.2512 112.927 27.5751C113.328 27.8835 113.529 28.3 113.529 28.8244C113.529 29.21 113.421 29.4722 113.205 29.611C113.004 29.7498 112.734 29.8192 112.395 29.8192C112.472 29.5416 112.511 29.2717 112.511 29.0095C112.511 28.6547 112.426 28.354 112.256 28.1072C112.087 27.845 111.794 27.7139 111.377 27.7139C110.945 27.7139 110.506 27.8681 110.058 28.1766C109.611 28.4696 109.179 28.8707 108.763 29.3796C108.346 29.8732 107.976 30.413 107.652 30.9991C107.328 31.5852 107.074 32.1636 106.889 32.7343C106.704 33.305 106.611 33.814 106.611 34.2613C106.611 34.8628 106.819 35.1635 107.236 35.1635C107.591 35.1635 107.976 35.0016 108.393 34.6777C108.809 34.3384 109.233 33.9142 109.665 33.4052C110.112 32.8808 110.537 32.341 110.938 31.7857C111.339 31.2305 111.693 30.7215 112.002 30.2588C112.064 30.1663 112.102 30.12 112.118 30.12C112.256 30.1354 112.441 30.1971 112.673 30.3051C112.904 30.3976 113.02 30.5287 113.02 30.6984C113.02 30.8372 112.95 31.03 112.812 31.2768C112.673 31.5081 112.519 31.778 112.349 32.0865C112.179 32.395 112.025 32.7112 111.886 33.0351C111.747 33.3435 111.678 33.6366 111.678 33.9142C111.678 34.1456 111.74 34.3769 111.863 34.6083C111.986 34.8242 112.187 34.9322 112.465 34.9322C112.881 34.9322 113.429 34.6314 114.107 34.0299C114.786 33.4129 115.472 32.4952 116.166 31.2768L116.398 31.5081C116.074 32.341 115.657 33.0736 115.148 33.706C114.639 34.3384 114.092 34.8319 113.506 35.1867C112.935 35.5414 112.372 35.7188 111.817 35.7188C111.246 35.7188 110.822 35.5491 110.544 35.2098C110.282 34.8705 110.151 34.5003 110.151 34.0993C110.151 33.8988 110.174 33.6752 110.22 33.4284C109.557 34.3229 108.948 34.9939 108.393 35.4412C107.853 35.8885 107.298 36.1121 106.727 36.1121Z" fill="black"/>
<path d="M123.166 35.4874C122.626 35.4874 122.217 35.3486 121.94 35.071C121.677 34.7934 121.546 34.4386 121.546 34.0068C121.546 33.6829 121.6 33.3435 121.708 32.9888C121.832 32.634 121.947 32.2716 122.055 31.9014C122.163 31.5158 122.217 31.1457 122.217 30.7909C122.217 30.359 122.125 30.066 121.94 29.9118C121.77 29.7421 121.554 29.6573 121.292 29.6573C120.814 29.6573 120.328 29.8578 119.834 30.2588C119.341 30.6444 118.863 31.1457 118.4 31.7626C117.937 32.3641 117.505 32.9888 117.104 33.6366C116.703 34.2844 116.349 34.8628 116.04 35.3718C115.793 35.3718 115.562 35.3255 115.346 35.2329C115.115 35.1558 114.937 35.0324 114.814 34.8628C114.814 34.7857 114.899 34.5466 115.068 34.1456C115.223 33.7446 115.408 33.251 115.624 32.6649C115.84 32.0788 116.032 31.4773 116.202 30.8603C116.372 30.2434 116.457 29.6804 116.457 29.1714C116.549 29.0635 116.696 28.9555 116.896 28.8475C117.097 28.7396 117.305 28.6856 117.521 28.6856C117.937 28.6856 118.145 28.8861 118.145 29.2871C118.145 29.5339 118.076 29.9503 117.937 30.5364C117.798 31.1071 117.621 31.7086 117.405 32.341C117.822 31.7086 118.284 31.084 118.793 30.467C119.318 29.8346 119.873 29.3102 120.459 28.8938C121.045 28.4774 121.631 28.2691 122.217 28.2691C122.819 28.2691 123.251 28.4851 123.513 28.9169C123.791 29.3488 123.929 29.8269 123.929 30.3513C123.929 30.8295 123.852 31.2768 123.698 31.6932C123.544 32.0942 123.382 32.4875 123.212 32.8731C123.058 33.2433 122.981 33.6212 122.981 34.0068C122.981 34.3307 123.042 34.562 123.166 34.7008C123.305 34.8242 123.474 34.8859 123.675 34.8859C124.06 34.8859 124.446 34.7085 124.832 34.3538C125.217 33.9836 125.587 33.5209 125.942 32.9657C126.312 32.4104 126.636 31.8474 126.914 31.2768L127.168 31.5775C126.69 32.7035 126.12 33.6366 125.456 34.3769C124.793 35.1173 124.03 35.4874 123.166 35.4874Z" fill="black"/>
<path d="M130.912 25.0301C130.665 25.0301 130.442 24.9685 130.241 24.8451C130.056 24.7217 129.964 24.5289 129.964 24.2667C129.964 23.9428 130.149 23.6651 130.519 23.4338C130.904 23.187 131.282 23.0636 131.652 23.0636C131.884 23.0636 132.069 23.1176 132.208 23.2256C132.347 23.3335 132.416 23.5186 132.416 23.7808C132.416 24.0739 132.254 24.3592 131.93 24.6368C131.622 24.899 131.282 25.0301 130.912 25.0301ZM128.136 35.6263C127.534 35.6263 127.087 35.4335 126.794 35.0479C126.501 34.6777 126.354 34.2227 126.354 33.6829C126.354 33.3281 126.416 32.8808 126.54 32.341C126.678 31.8012 126.856 31.2382 127.072 30.6521C127.288 30.0506 127.534 29.4876 127.812 28.9632C128.105 28.4388 128.413 28.0146 128.737 27.6907C129.061 27.3514 129.377 27.1818 129.686 27.1818C129.825 27.1818 129.94 27.228 130.033 27.3206C130.141 27.3977 130.195 27.5211 130.195 27.6907C130.195 27.8758 130.072 28.1766 129.825 28.593C129.593 29.0095 129.316 29.4876 128.992 30.0274C128.668 30.5673 128.383 31.1379 128.136 31.7395C127.905 32.3256 127.789 32.8885 127.789 33.4284C127.789 33.9836 127.881 34.3538 128.066 34.5389C128.252 34.724 128.537 34.8165 128.922 34.8165C129.447 34.8165 130.002 34.5543 130.588 34.0299C131.19 33.5055 131.822 32.5878 132.485 31.2768L132.694 31.5081C132.246 32.8346 131.598 33.8525 130.75 34.562C129.917 35.2715 129.046 35.6263 128.136 35.6263Z" fill="black"/>
<path d="M133.161 36.1121C132.683 36.1121 132.282 35.9502 131.958 35.6263C131.619 35.3178 131.449 34.8396 131.449 34.1918C131.449 33.6366 131.573 33.0428 131.819 32.4104C132.066 31.7626 132.405 31.1302 132.837 30.5133C133.269 29.8809 133.755 29.3102 134.295 28.8013C134.85 28.2768 135.428 27.8604 136.03 27.5519C136.647 27.2435 137.256 27.0892 137.858 27.0892C138.459 27.0892 138.96 27.2512 139.362 27.5751C139.763 27.8835 139.963 28.3 139.963 28.8244C139.963 29.21 139.855 29.4722 139.639 29.611C139.439 29.7498 139.169 29.8192 138.829 29.8192C138.907 29.5416 138.945 29.2717 138.945 29.0095C138.945 28.6547 138.86 28.354 138.691 28.1072C138.521 27.845 138.228 27.7139 137.811 27.7139C137.38 27.7139 136.94 27.8681 136.493 28.1766C136.045 28.4696 135.614 28.8707 135.197 29.3796C134.781 29.8732 134.41 30.413 134.087 30.9991C133.763 31.5852 133.508 32.1636 133.323 32.7343C133.138 33.305 133.045 33.814 133.045 34.2613C133.045 34.8628 133.254 35.1635 133.67 35.1635C134.025 35.1635 134.41 35.0016 134.827 34.6777C135.243 34.3384 135.668 33.9142 136.099 33.4052C136.547 32.8808 136.971 32.341 137.372 31.7857C137.773 31.2305 138.128 30.7215 138.436 30.2588C138.498 30.1663 138.536 30.12 138.552 30.12C138.691 30.1354 138.876 30.1971 139.107 30.3051C139.338 30.3976 139.454 30.5287 139.454 30.6984C139.454 30.8372 139.385 31.03 139.246 31.2768C139.107 31.5081 138.953 31.778 138.783 32.0865C138.613 32.395 138.459 32.7112 138.32 33.0351C138.182 33.3435 138.112 33.6366 138.112 33.9142C138.112 34.1456 138.174 34.3769 138.297 34.6083C138.421 34.8242 138.621 34.9322 138.899 34.9322C139.315 34.9322 139.863 34.6314 140.541 34.0299C141.22 33.4129 141.906 32.4952 142.6 31.2768L142.832 31.5081C142.508 32.341 142.092 33.0736 141.583 33.706C141.074 34.3384 140.526 34.8319 139.94 35.1867C139.369 35.5414 138.806 35.7188 138.251 35.7188C137.68 35.7188 137.256 35.5491 136.979 35.2098C136.716 34.8705 136.585 34.5003 136.585 34.0993C136.585 33.8988 136.608 33.6752 136.655 33.4284C135.991 34.3229 135.382 34.9939 134.827 35.4412C134.287 35.8885 133.732 36.1121 133.161 36.1121Z" fill="black"/>
</svg>
