<svg width="130" height="55" viewBox="0 0 130 55" fill="none" xmlns="http://www.w3.org/2000/svg">
<path d="M37.9155 10.6915C38.4867 11.2534 38.9496 11.9067 39.2916 12.6342C39.6236 13.3506 39.8259 14.1213 39.8912 14.905C40.6753 14.9568 41.4492 15.1463 42.1673 15.4677C42.8996 15.7946 43.5623 16.246 44.1361 16.8104C46.7686 19.3998 46.8036 23.6472 44.2142 26.2797C43.7931 26.7079 43.3206 27.0744 42.8048 27.3738C43.3255 27.6646 43.8033 28.0226 44.2321 28.4444C46.8646 31.0338 46.8996 35.2813 44.3102 37.9138C43.7458 38.4875 43.0906 38.9498 42.3632 39.2893C41.6505 39.6213 40.881 39.8248 40.0974 39.8889C40.045 40.6736 39.856 41.4469 39.5371 42.165C39.2053 42.9023 38.7527 43.5638 38.1914 44.1345C35.6014 46.7676 31.3527 46.8039 28.7202 44.2145C28.2915 43.7928 27.9255 43.3209 27.6262 42.8051C27.3354 43.3258 26.9767 43.8042 26.5556 44.2323C23.9662 46.8646 19.7175 46.8984 17.0844 44.3084C16.5131 43.7465 16.0502 43.0932 15.7082 42.3658C15.3763 41.6494 15.1739 40.8786 15.1086 40.0949C14.3246 40.0432 13.5512 39.853 12.8326 39.5322C12.1002 39.2053 11.4375 38.7539 10.8637 38.1896C8.23123 35.6001 8.19619 31.3527 10.7856 28.7202C11.2067 28.2921 11.6792 27.9255 12.195 27.6262C11.6743 27.3354 11.1965 26.9773 10.7677 26.5556C8.1353 23.9662 8.10025 19.7187 10.6896 17.0863C11.254 16.5125 11.9092 16.0503 12.6366 15.7107C13.3493 15.3788 14.1188 15.1752 14.9024 15.1111C14.9549 14.3264 15.1438 13.5531 15.4627 12.8351C15.7945 12.0977 16.2472 11.4363 16.8085 10.8656C19.3985 8.23253 23.6472 8.1962 26.2797 10.7856C26.7084 11.2073 27.0743 11.6792 27.3737 12.195C27.6645 11.6743 28.0232 11.1959 28.4443 10.7678C31.0337 8.1353 35.2824 8.10147 37.9155 10.6915ZM37.7027 13.3756C37.4515 12.8408 37.1084 12.357 36.686 11.9415C34.7416 10.0289 31.6056 10.0542 29.6943 11.9973C29.2775 12.421 28.9443 12.9098 28.7026 13.4517C28.4171 14.092 28.2705 14.8011 28.2775 15.5016L28.3692 26.6161L39.4812 26.5245C40.1842 26.5199 40.8908 26.3616 41.5269 26.0649C42.0642 25.8151 42.5474 25.4738 42.9642 25.05C44.8755 23.1069 44.8496 19.9715 42.9065 18.0602C42.4828 17.6435 41.9934 17.3096 41.4521 17.0686C40.8144 16.7831 40.1164 16.6388 39.4159 16.6446L39.4103 16.6503C39.0709 16.9953 38.5161 17.0005 38.1705 16.6605C37.8255 16.3212 37.821 15.7658 38.1603 15.4208C38.1551 14.716 37.9987 14.0149 37.7027 13.3756ZM26.0649 13.4729C25.8151 12.9357 25.4738 12.4525 25.05 12.0357C23.1069 10.1244 19.9709 10.1509 18.0584 12.0952C17.6428 12.5177 17.3077 13.0071 17.0636 13.5503C16.7812 14.1862 16.6376 14.8848 16.6421 15.5865L16.6478 15.5921C16.9928 15.9315 16.9974 16.4869 16.658 16.8319C16.3187 17.1769 15.7633 17.1814 15.4183 16.8421C14.7141 16.8466 14.0149 17.0025 13.3782 17.2997C12.8403 17.5502 12.3565 17.8921 11.9397 18.3159C10.0284 20.259 10.0542 23.3943 11.9973 25.3056C12.4211 25.7225 12.9098 26.0556 13.4518 26.2973C14.092 26.5828 14.8012 26.7294 15.5016 26.7224C15.5029 26.7224 15.5041 26.7224 15.5054 26.7224L26.6162 26.6307L26.5245 15.5187C26.5245 15.5174 26.5245 15.5163 26.5245 15.515C26.5193 14.8138 26.361 14.1084 26.0649 13.4729ZM43.0025 29.6943C42.5788 29.2775 42.09 28.9443 41.5481 28.7026C41.2283 28.5602 40.8914 28.4526 40.5468 28.3804C40.2021 28.3095 39.8509 28.274 39.5007 28.2775C39.4983 28.2775 39.4964 28.2782 39.4946 28.2775L28.3837 28.3692L28.4754 39.4813C28.4754 39.4826 28.4754 39.4837 28.4754 39.485C28.4805 40.1861 28.6389 40.8915 28.9349 41.527C29.1848 42.0643 29.526 42.5474 29.9498 42.9643C31.8929 44.8756 35.0289 44.8491 36.9414 42.9047C37.357 42.4822 37.6921 41.9928 37.9362 41.4496C38.2198 40.8113 38.3634 40.1102 38.3583 39.4066C38.0133 39.0673 38.0087 38.5119 38.3481 38.1669C38.6874 37.8219 39.2428 37.8173 39.5878 38.1566L39.5884 38.1573C40.2908 38.1521 40.9875 37.9963 41.6218 37.7004C42.1597 37.4498 42.6434 37.108 43.0603 36.6842C44.9716 34.741 44.9457 31.6056 43.0025 29.6943ZM26.7224 39.4982L26.6307 28.3836L15.5186 28.4754C14.8156 28.4799 14.109 28.6383 13.4735 28.9342C12.9356 29.1848 12.4524 29.526 12.0356 29.9498C10.1243 31.8929 10.1502 35.0282 12.0933 36.9395C12.517 37.3563 13.0065 37.6902 13.5477 37.9312C14.1917 38.2191 14.8953 38.364 15.6013 38.355L15.5897 38.3669C15.929 38.0219 16.4844 38.0173 16.8294 38.3567C17.1751 38.6967 17.179 39.2514 16.8396 39.5964C16.8479 40.2956 17.0036 40.9911 17.2971 41.6242C17.5483 42.159 17.8914 42.6428 18.3139 43.0584C20.2583 44.9709 23.3942 44.9457 25.3055 43.0026C25.7224 42.5788 26.0555 42.09 26.2972 41.5481C26.5827 40.9078 26.7294 40.1987 26.7224 39.4982Z" fill="#021F02"/>
<path d="M36.686 11.9415C37.1085 12.357 37.4516 12.8408 37.7027 13.3756C37.9988 14.0148 38.1552 14.7159 38.1604 15.4207C37.821 15.7657 37.8256 16.3211 38.1706 16.6604C38.5163 17.0004 39.071 16.9952 39.4104 16.6502L39.4159 16.6446C40.1163 16.6388 40.8143 16.7831 41.4521 17.0686C41.9934 17.3096 42.4828 17.6435 42.9065 18.0602C44.8496 19.9715 44.8755 23.1069 42.9642 25.05C42.5474 25.4737 42.0642 25.815 41.5269 26.065C40.8909 26.3616 40.1841 26.5199 39.4812 26.5245L28.3693 26.6162L28.2776 15.5016C28.2705 14.8011 28.4172 14.092 28.7027 13.4517C28.9443 12.9097 29.2776 12.421 29.6944 11.9973C31.6057 10.0542 34.7417 10.0289 36.686 11.9415Z" fill="#763283"/>
<path d="M25.0502 12.0357C25.474 12.4525 25.8152 12.9357 26.0652 13.4729C26.3612 14.1084 26.5195 14.8138 26.5246 15.5149C26.5246 15.5162 26.5247 15.5174 26.5247 15.5187L26.6163 26.6306L15.5055 26.7224C15.5042 26.7224 15.5031 26.7224 15.5018 26.7224C14.8013 26.7294 14.0922 26.5828 13.4519 26.2973C12.9099 26.0556 12.4212 25.7224 11.9975 25.3056C10.0544 23.3943 10.0285 20.2589 11.9398 18.3158C12.3566 17.8921 12.8405 17.5502 13.3783 17.2996C14.015 17.0024 14.7142 16.8466 15.4184 16.842C15.7634 17.1814 16.3188 17.1768 16.6582 16.8318C16.9976 16.4868 16.993 15.9314 16.648 15.5921L16.6423 15.5865C16.6378 14.8848 16.7814 14.1862 17.0638 13.5503C17.3079 13.0071 17.643 12.5177 18.0586 12.0952C19.971 10.1508 23.1071 10.1243 25.0502 12.0357Z" fill="white"/>
<path d="M41.5481 28.7026C42.0901 28.9443 42.5788 29.2775 43.0025 29.6943C44.9456 31.6056 44.9715 34.741 43.0602 36.6841C42.6434 37.1078 42.1596 37.4497 41.6217 37.7003C40.9875 37.9962 40.2908 38.152 39.5884 38.1572L39.5878 38.1565C39.2428 37.8172 38.6874 37.8218 38.348 38.1668C38.0086 38.5118 38.0132 39.0672 38.3582 39.4065C38.3634 40.1101 38.2198 40.8112 37.9361 41.4495C37.692 41.9928 37.357 42.4821 36.9414 42.9046C35.0288 44.849 31.8929 44.8755 29.9498 42.9642C29.526 42.5474 29.1848 42.0642 28.9348 41.5269C28.6388 40.8915 28.4805 40.186 28.4753 39.4849C28.4753 39.4836 28.4753 39.4825 28.4753 39.4812L28.3838 28.3692L39.4946 28.2775C39.4965 28.2781 39.4983 28.2775 39.5008 28.2775C39.851 28.274 40.2022 28.3095 40.5468 28.3804C40.8914 28.4526 41.2283 28.5602 41.5481 28.7026Z" fill="white"/>
<path d="M26.6307 28.3837L26.7224 39.4982C26.7295 40.1986 26.5828 40.9078 26.2973 41.5481C26.0557 42.09 25.7224 42.5788 25.3056 43.0025C23.3943 44.9456 20.2583 44.9708 18.314 43.0583C17.8915 42.6428 17.5484 42.159 17.2972 41.6242C17.0037 40.9912 16.848 40.2956 16.8397 39.5964C17.1791 39.2514 17.1751 38.6966 16.8295 38.3566C16.4845 38.0173 15.9291 38.0219 15.5898 38.3669L15.6014 38.355C14.8954 38.364 14.1918 38.2191 13.5478 37.9312C13.0065 37.6902 12.5171 37.3563 12.0934 36.9395C10.1503 35.0282 10.1244 31.8929 12.0357 29.9498C12.4525 29.526 12.9357 29.1848 13.4736 28.9342C14.109 28.6382 14.8157 28.48 15.5187 28.4754L26.6307 28.3837Z" fill="#763283"/>
<path d="M63.6152 35.7188C62.952 35.7188 62.4738 35.4874 62.1808 35.0247C61.9032 34.5774 61.7643 34.0145 61.7643 33.3358C61.7643 32.5955 61.9032 31.7163 62.1808 30.6984C62.4584 29.6804 62.8209 28.6085 63.2682 27.4825C63.7309 26.3566 64.2321 25.2615 64.772 24.1973C65.3118 23.1176 65.8516 22.1382 66.3915 21.259C66.9313 20.3799 67.4249 19.6781 67.8721 19.1537C68.3349 18.6293 68.6973 18.3671 68.9595 18.3671C69.1292 18.3671 69.268 18.4674 69.376 18.6679C69.4839 18.8529 69.5688 19.0843 69.6304 19.3619C69.6921 19.6241 69.723 19.8632 69.723 20.0791C69.723 20.4956 69.615 21.0431 69.3991 21.7218C69.1986 22.385 68.9055 23.133 68.5199 23.9659C68.1498 24.7834 67.7025 25.6163 67.1781 26.4646C66.6691 27.2974 66.1061 28.0995 65.4892 28.8707C64.8876 29.6418 64.2476 30.3051 63.5689 30.8603C63.4764 31.2768 63.3993 31.6855 63.3376 32.0865C63.2913 32.4721 63.2682 32.8423 63.2682 33.197C63.2682 34.3846 63.6075 34.9785 64.2861 34.9785C64.7026 34.9785 65.1113 34.7934 65.5123 34.4232C65.9288 34.053 66.3143 33.5903 66.6691 33.0351C67.0393 32.4644 67.3554 31.8783 67.6177 31.2768L67.9647 31.4618C67.3477 32.7729 66.6768 33.814 65.9519 34.5852C65.227 35.3409 64.4481 35.7188 63.6152 35.7188ZM63.7771 30.0737C64.317 29.5339 64.8414 28.9169 65.3504 28.2229C65.8593 27.5134 66.3298 26.7807 66.7616 26.025C67.2089 25.2692 67.6022 24.5366 67.9415 23.8271C68.2809 23.1176 68.5431 22.4852 68.7282 21.93C68.9132 21.3593 69.0058 20.9197 69.0058 20.6112C69.0058 20.457 68.9827 20.3568 68.9364 20.3105C68.9055 20.2642 68.8747 20.2411 68.8438 20.2411C68.7204 20.2411 68.5045 20.4416 68.196 20.8426C67.903 21.2282 67.556 21.7526 67.1549 22.4158C66.7539 23.079 66.3452 23.8348 65.9288 24.6831C65.5123 25.5314 65.1113 26.4183 64.7257 27.3437C64.3555 28.2691 64.0393 29.1791 63.7771 30.0737Z" fill="black"/>
<path d="M68.7589 35.7651C68.0957 35.7651 67.6252 35.5568 67.3476 35.1404C67.07 34.7394 66.9312 34.2458 66.9312 33.6597C66.9312 33.1816 67.0083 32.688 67.1625 32.1791C67.3168 31.6701 67.5173 31.1919 67.7641 30.7446C68.0263 30.2974 68.3116 29.9349 68.6201 29.6573C68.944 29.3796 69.2679 29.2408 69.5918 29.2408C69.7306 29.2408 69.8925 29.2794 70.0776 29.3565C69.9388 29.4799 69.7691 29.7113 69.5686 30.0506C69.3835 30.3745 69.2062 30.7524 69.0365 31.1842C68.8669 31.6007 68.7203 32.0171 68.5969 32.4335C68.489 32.85 68.435 33.2047 68.435 33.4978C68.435 33.9605 68.5121 34.2998 68.6663 34.5157C68.8206 34.7163 69.0211 34.8165 69.2679 34.8165C69.5918 34.8165 69.9774 34.6468 70.4247 34.3075C70.8719 33.9528 71.3115 33.5055 71.7434 32.9657C71.3115 32.6109 70.9722 32.1482 70.7254 31.5775C70.4941 30.9914 70.3784 30.3976 70.3784 29.7961C70.3784 29.2871 70.4632 28.809 70.6329 28.3617C70.818 27.9144 71.0802 27.5596 71.4195 27.2974C71.7588 27.0198 72.1675 26.881 72.6457 26.881C73.278 26.881 73.7022 27.0507 73.9181 27.39C74.1341 27.7293 74.242 28.1535 74.242 28.6624C74.242 29.264 74.0955 29.9349 73.8024 30.6752C73.5094 31.4002 73.1392 32.1019 72.6919 32.7806C72.9696 32.9348 73.2626 33.0119 73.5711 33.0119C73.9258 33.0119 74.3577 32.8963 74.8667 32.6649C75.3757 32.4181 75.769 31.9785 76.0466 31.3462L76.3242 31.5775C76.0158 32.3024 75.5762 32.8191 75.0055 33.1276C74.4502 33.4207 73.9181 33.5672 73.4091 33.5672C72.9927 33.5672 72.6225 33.4901 72.2986 33.3358C71.7742 34.0299 71.1958 34.6083 70.5635 35.071C69.9465 35.5337 69.345 35.7651 68.7589 35.7651ZM72.1598 32.3641C72.5454 31.7935 72.8616 31.1996 73.1084 30.5827C73.3706 29.9503 73.5017 29.3565 73.5017 28.8013C73.5017 28.354 73.4323 28.0301 73.2935 27.8296C73.1701 27.6136 73.0081 27.5057 72.8076 27.5057C72.4991 27.5057 72.183 27.7293 71.8591 28.1766C71.5352 28.6239 71.3732 29.1868 71.3732 29.8655C71.3732 30.3128 71.4349 30.7678 71.5583 31.2305C71.6971 31.6778 71.8976 32.0557 72.1598 32.3641Z" fill="black"/>
<path d="M77.579 36.089C76.2063 36.089 75.5199 35.3255 75.5199 33.7985C75.5199 33.1199 75.6433 32.287 75.8901 31.2999C76.1523 30.2974 76.4762 29.2717 76.8618 28.2229C76.7075 28.192 76.561 28.1689 76.4222 28.1535C76.2834 28.1226 76.1523 28.084 76.0289 28.0378V27.6213C76.1523 27.6368 76.2988 27.6522 76.4685 27.6676C76.6381 27.683 76.8309 27.6985 77.0469 27.7139C77.3708 26.881 77.7178 26.079 78.088 25.3078C78.4581 24.5212 78.8206 23.8271 79.1753 23.2256C79.5455 22.6086 79.8925 22.1228 80.2164 21.768C80.5558 21.3979 80.8411 21.2128 81.0724 21.2128C81.1958 21.2128 81.3038 21.259 81.3963 21.3516C81.5043 21.4287 81.5583 21.5521 81.5583 21.7218C81.5583 21.984 81.3963 22.4158 81.0724 23.0174C80.7486 23.6035 80.3475 24.3052 79.8694 25.1227C79.3913 25.9401 78.9286 26.827 78.4813 27.7833H79.3373C79.8463 27.7833 80.3784 27.7756 80.9336 27.7602C81.5043 27.7447 82.075 27.7062 82.6457 27.6445V28.0609C80.9645 28.246 79.6072 28.3385 78.5738 28.3385H78.2268C77.872 29.156 77.5713 29.9966 77.3245 30.8603C77.0777 31.7241 76.9543 32.5646 76.9543 33.3821C76.9543 34.0453 77.0546 34.5235 77.2551 34.8165C77.4556 35.0941 77.7872 35.233 78.2499 35.233C79.0519 35.233 79.8385 34.8782 80.6097 34.1687C81.3809 33.4592 82.0596 32.4952 82.6457 31.2768L82.9464 31.5081C82.5763 32.3718 82.1058 33.1507 81.5352 33.8448C80.9799 34.5389 80.363 35.0864 79.6843 35.4874C79.0057 35.8885 78.3039 36.089 77.579 36.089Z" fill="black"/>
<path d="M83.8061 35.7651C83.1428 35.7651 82.6724 35.5568 82.3948 35.1404C82.1172 34.7394 81.9784 34.2458 81.9784 33.6597C81.9784 33.1816 82.0555 32.688 82.2097 32.1791C82.3639 31.6701 82.5645 31.1919 82.8112 30.7446C83.0734 30.2974 83.3588 29.9349 83.6673 29.6573C83.9911 29.3796 84.315 29.2408 84.6389 29.2408C84.7778 29.2408 84.9397 29.2794 85.1248 29.3565C84.986 29.4799 84.8163 29.7113 84.6158 30.0506C84.4307 30.3745 84.2534 30.7524 84.0837 31.1842C83.914 31.6007 83.7675 32.0171 83.6441 32.4335C83.5362 32.85 83.4822 33.2047 83.4822 33.4978C83.4822 33.9605 83.5593 34.2998 83.7135 34.5157C83.8678 34.7163 84.0683 34.8165 84.315 34.8165C84.6389 34.8165 85.0245 34.6468 85.4718 34.3075C85.9191 33.9528 86.3587 33.5055 86.7906 32.9657C86.3587 32.6109 86.0194 32.1482 85.7726 31.5775C85.5412 30.9914 85.4256 30.3976 85.4256 29.7961C85.4256 29.2871 85.5104 28.809 85.68 28.3617C85.8651 27.9144 86.1273 27.5596 86.4667 27.2974C86.806 27.0198 87.2147 26.881 87.6928 26.881C88.3252 26.881 88.7494 27.0507 88.9653 27.39C89.1812 27.7293 89.2892 28.1535 89.2892 28.6624C89.2892 29.264 89.1427 29.9349 88.8496 30.6752C88.5566 31.4002 88.1864 32.1019 87.7391 32.7806C88.0167 32.9348 88.3098 33.0119 88.6183 33.0119C88.973 33.0119 89.4049 32.8963 89.9139 32.6649C90.4228 32.4181 90.8162 31.9785 91.0938 31.3462L91.3714 31.5775C91.0629 32.3024 90.6234 32.8191 90.0527 33.1276C89.4974 33.4207 88.9653 33.5672 88.4563 33.5672C88.0399 33.5672 87.6697 33.4901 87.3458 33.3358C86.8214 34.0299 86.243 34.6083 85.6106 35.071C84.9937 35.5337 84.3922 35.7651 83.8061 35.7651ZM87.207 32.3641C87.5926 31.7935 87.9088 31.1996 88.1556 30.5827C88.4178 29.9503 88.5489 29.3565 88.5489 28.8013C88.5489 28.354 88.4795 28.0301 88.3406 27.8296C88.2173 27.6136 88.0553 27.5057 87.8548 27.5057C87.5463 27.5057 87.2301 27.7293 86.9062 28.1766C86.5823 28.6239 86.4204 29.1868 86.4204 29.8655C86.4204 30.3128 86.4821 30.7678 86.6055 31.2305C86.7443 31.6778 86.9448 32.0557 87.207 32.3641Z" fill="black"/>
<path d="M90.3589 41.5027C90.2046 41.5027 90.0273 41.4487 89.8267 41.3407C89.6262 41.2482 89.4566 41.0554 89.3178 40.7624C89.1635 40.4693 89.0864 40.0374 89.0864 39.4668C89.0864 38.7881 89.2021 37.9013 89.4334 36.8062C89.6648 35.7265 89.981 34.5312 90.382 33.2202C90.783 31.9091 91.2457 30.5673 91.7701 29.1946C92.2945 27.8064 92.8575 26.4723 93.459 25.1921C94.076 23.8965 94.7006 22.7397 95.333 21.7218C95.9808 20.6884 96.6132 19.8709 97.2301 19.2694C97.8471 18.6679 98.4332 18.3671 98.9884 18.3671C99.3123 18.3671 99.5206 18.4674 99.6131 18.6679C99.7211 18.8684 99.7751 19.1074 99.7751 19.3851C99.7751 20.0483 99.59 20.7732 99.2198 21.5598C98.8651 22.3464 98.3869 23.1407 97.7854 23.9428C97.1839 24.7294 96.5206 25.4851 95.7957 26.2101C95.0708 26.9196 94.3382 27.5288 93.5978 28.0378C93.5207 28.2229 93.4436 28.4157 93.3665 28.6162C93.3048 28.8013 93.2354 28.994 93.1583 29.1946C93.3279 29.2254 93.459 29.3179 93.5516 29.4722C93.6595 29.611 93.7212 29.7652 93.7367 29.9349C93.8446 30.629 93.9603 31.2536 94.0837 31.8089C94.2071 32.3487 94.3922 32.7729 94.6389 33.0813C94.9012 33.3898 95.2713 33.5441 95.7495 33.5441C96.2893 33.5441 96.7443 33.3513 97.1145 32.9657C97.4846 32.5646 97.8856 32.0017 98.3175 31.2768L98.6645 31.5081C98.279 32.4335 97.7854 33.1045 97.1839 33.5209C96.5978 33.9374 96.0811 34.1456 95.6338 34.1456C95.3562 34.1456 95.0631 34.0762 94.7546 33.9374C94.4616 33.7985 94.1839 33.6135 93.9217 33.3821C93.9217 34.3538 93.8138 35.3178 93.5978 36.2741C93.3973 37.2303 93.1274 38.1018 92.7881 38.8884C92.4488 39.675 92.0709 40.3074 91.6545 40.7855C91.238 41.2636 90.8062 41.5027 90.3589 41.5027ZM93.968 27.0892C94.9706 26.1638 95.8343 25.2384 96.5592 24.3129C97.2995 23.3721 97.8702 22.5392 98.2712 21.8143C98.6723 21.074 98.8728 20.5496 98.8728 20.2411C98.8728 20.0251 98.7648 19.9172 98.5489 19.9172C98.1478 19.9172 97.6928 20.2488 97.1839 20.912C96.6749 21.5598 96.1428 22.4235 95.5875 23.5032C95.0323 24.5829 94.4924 25.7782 93.968 27.0892ZM90.9604 40.3922C91.13 40.3922 91.3228 40.238 91.5388 39.9295C91.7547 39.621 91.9629 39.2123 92.1634 38.7033C92.3794 38.2097 92.5722 37.6622 92.7418 37.0607C92.9115 36.4591 93.0503 35.8576 93.1583 35.2561C93.2662 34.6546 93.3202 34.1147 93.3202 33.6366C93.3202 33.1585 93.2585 32.7266 93.1351 32.341C93.0117 31.94 92.8112 31.4696 92.5336 30.9297C92.148 32.0865 91.801 33.2047 91.4925 34.2844C91.184 35.3641 90.945 36.3357 90.7753 37.1995C90.6056 38.0632 90.5208 38.7573 90.5208 39.2817C90.5208 40.022 90.6673 40.3922 90.9604 40.3922Z" fill="black"/>
<path d="M98.9774 36.1121C98.4993 36.1121 98.0983 35.9502 97.7744 35.6263C97.435 35.3178 97.2654 34.8396 97.2654 34.1918C97.2654 33.6366 97.3888 33.0428 97.6356 32.4104C97.8823 31.7626 98.2217 31.1302 98.6535 30.5133C99.0854 29.8809 99.5712 29.3102 100.111 28.8013C100.666 28.2768 101.245 27.8604 101.846 27.5519C102.463 27.2435 103.072 27.0892 103.674 27.0892C104.275 27.0892 104.777 27.2512 105.178 27.5751C105.579 27.8835 105.779 28.3 105.779 28.8244C105.779 29.21 105.671 29.4722 105.455 29.611C105.255 29.7498 104.985 29.8192 104.646 29.8192C104.723 29.5416 104.761 29.2717 104.761 29.0095C104.761 28.6547 104.676 28.354 104.507 28.1072C104.337 27.845 104.044 27.7139 103.628 27.7139C103.196 27.7139 102.756 27.8681 102.309 28.1766C101.862 28.4696 101.43 28.8707 101.013 29.3796C100.597 29.8732 100.227 30.413 99.9028 30.9991C99.5789 31.5852 99.3245 32.1636 99.1394 32.7343C98.9543 33.305 98.8617 33.814 98.8617 34.2613C98.8617 34.8628 99.07 35.1635 99.4864 35.1635C99.8411 35.1635 100.227 35.0016 100.643 34.6777C101.06 34.3384 101.484 33.9142 101.916 33.4052C102.363 32.8808 102.787 32.341 103.188 31.7857C103.589 31.2305 103.944 30.7215 104.252 30.2588C104.314 30.1663 104.353 30.12 104.368 30.12C104.507 30.1354 104.692 30.1971 104.923 30.3051C105.155 30.3976 105.27 30.5287 105.27 30.6984C105.27 30.8372 105.201 31.03 105.062 31.2768C104.923 31.5081 104.769 31.778 104.599 32.0865C104.43 32.395 104.275 32.7112 104.137 33.0351C103.998 33.3435 103.928 33.6366 103.928 33.9142C103.928 34.1456 103.99 34.3769 104.114 34.6083C104.237 34.8242 104.437 34.9322 104.715 34.9322C105.131 34.9322 105.679 34.6314 106.358 34.0299C107.036 33.413 107.723 32.4952 108.417 31.2768L108.648 31.5081C108.324 32.341 107.908 33.0736 107.399 33.706C106.89 34.3384 106.342 34.8319 105.756 35.1867C105.185 35.5414 104.623 35.7188 104.067 35.7188C103.497 35.7188 103.072 35.5491 102.795 35.2098C102.533 34.8705 102.401 34.5003 102.401 34.0993C102.401 33.8988 102.425 33.6752 102.471 33.4284C101.808 34.323 101.198 34.9939 100.643 35.4412C100.103 35.8885 99.5481 36.1121 98.9774 36.1121ZM104.669 25.5391C104.561 25.4774 104.476 25.3772 104.414 25.2384C104.368 25.0996 104.345 24.9993 104.345 24.9376C104.345 24.7988 104.422 24.5829 104.576 24.2898C104.746 23.9813 104.954 23.6651 105.201 23.3413C105.448 23.0019 105.71 22.7166 105.988 22.4852C106.265 22.2539 106.52 22.1382 106.751 22.1382C106.874 22.1382 106.982 22.1922 107.075 22.3001C107.183 22.3927 107.245 22.5778 107.26 22.8554C106.705 23.3335 106.219 23.7885 105.802 24.2204C105.386 24.6523 105.008 25.0918 104.669 25.5391Z" fill="black"/>
<path d="M110.419 36.3203C109.679 36.3203 109.062 36.0735 108.568 35.58C108.075 35.0864 107.828 34.3461 107.828 33.359C107.828 32.5878 107.974 31.8397 108.267 31.1148C108.576 30.3745 108.977 29.7113 109.47 29.1252C109.964 28.539 110.512 28.0763 111.113 27.737C111.715 27.3823 112.308 27.2049 112.895 27.2049C113.527 27.2049 113.959 27.39 114.19 27.7602C114.422 28.1303 114.537 28.5159 114.537 28.9169C114.537 29.3642 114.429 29.7575 114.213 30.0968C114.013 30.4362 113.735 30.6058 113.38 30.6058C113.118 30.6058 112.895 30.4902 112.709 30.2588C112.941 30.1354 113.141 29.8886 113.311 29.5185C113.481 29.1329 113.565 28.7704 113.565 28.4311C113.565 28.246 113.527 28.1072 113.45 28.0146C113.388 27.9067 113.257 27.8527 113.057 27.8527C112.64 27.8527 112.208 28.0378 111.761 28.4079C111.329 28.7781 110.92 29.2563 110.535 29.8424C110.165 30.4285 109.856 31.0454 109.609 31.6932C109.378 32.341 109.262 32.9502 109.262 33.5209C109.262 33.9991 109.378 34.4386 109.609 34.8396C109.841 35.2407 110.288 35.4412 110.951 35.4412C111.568 35.4412 112.185 35.2715 112.802 34.9322C113.434 34.5929 114.021 34.107 114.56 33.4746C115.1 32.8423 115.532 32.1019 115.856 31.2536L116.157 31.485C115.802 32.4104 115.316 33.2433 114.699 33.9836C114.082 34.7085 113.404 35.2792 112.663 35.6957C111.923 36.1121 111.175 36.3203 110.419 36.3203Z" fill="black"/>
<path d="M119.864 25.0301C119.617 25.0301 119.394 24.9685 119.193 24.8451C119.008 24.7217 118.915 24.5289 118.915 24.2667C118.915 23.9428 119.101 23.6651 119.471 23.4338C119.856 23.187 120.234 23.0636 120.604 23.0636C120.836 23.0636 121.021 23.1176 121.16 23.2256C121.298 23.3335 121.368 23.5186 121.368 23.7808C121.368 24.0739 121.206 24.3592 120.882 24.6368C120.573 24.899 120.234 25.0301 119.864 25.0301ZM117.088 35.6263C116.486 35.6263 116.039 35.4335 115.746 35.0479C115.453 34.6777 115.306 34.2227 115.306 33.6829C115.306 33.3281 115.368 32.8808 115.491 32.341C115.63 31.8012 115.808 31.2382 116.023 30.6521C116.239 30.0506 116.486 29.4876 116.764 28.9632C117.057 28.4388 117.365 28.0146 117.689 27.6907C118.013 27.3514 118.329 27.1818 118.638 27.1818C118.777 27.1818 118.892 27.228 118.985 27.3206C119.093 27.3977 119.147 27.5211 119.147 27.6907C119.147 27.8758 119.023 28.1766 118.777 28.593C118.545 29.0095 118.268 29.4876 117.944 30.0274C117.62 30.5673 117.334 31.1379 117.088 31.7395C116.856 32.3256 116.741 32.8885 116.741 33.4284C116.741 33.9836 116.833 34.3538 117.018 34.5389C117.203 34.724 117.489 34.8165 117.874 34.8165C118.399 34.8165 118.954 34.5543 119.54 34.0299C120.142 33.5055 120.774 32.5878 121.437 31.2768L121.645 31.5081C121.198 32.8346 120.55 33.8525 119.702 34.562C118.869 35.2715 117.998 35.6263 117.088 35.6263Z" fill="black"/>
<path d="M122.923 35.7188C122.26 35.7188 121.781 35.4874 121.488 35.0247C121.211 34.5774 121.072 34.0145 121.072 33.3358C121.072 32.5955 121.211 31.7163 121.488 30.6984C121.766 29.6804 122.128 28.6085 122.576 27.4825C123.038 26.3566 123.54 25.2615 124.08 24.1973C124.619 23.1176 125.159 22.1382 125.699 21.259C126.239 20.3799 126.732 19.6781 127.18 19.1537C127.642 18.6293 128.005 18.3671 128.267 18.3671C128.437 18.3671 128.576 18.4674 128.684 18.6679C128.791 18.8529 128.876 19.0843 128.938 19.3619C129 19.6241 129.031 19.8632 129.031 20.0791C129.031 20.4956 128.923 21.0431 128.707 21.7218C128.506 22.385 128.213 23.133 127.828 23.9659C127.457 24.7834 127.01 25.6163 126.486 26.4646C125.977 27.2974 125.414 28.0995 124.797 28.8707C124.195 29.6418 123.555 30.3051 122.876 30.8603C122.784 31.2768 122.707 31.6855 122.645 32.0865C122.599 32.4721 122.576 32.8423 122.576 33.197C122.576 34.3846 122.915 34.9785 123.594 34.9785C124.01 34.9785 124.419 34.7934 124.82 34.4232C125.236 34.053 125.622 33.5903 125.977 33.0351C126.347 32.4644 126.663 31.8783 126.925 31.2768L127.272 31.4618C126.655 32.7729 125.984 33.814 125.259 34.5852C124.535 35.3409 123.756 35.7188 122.923 35.7188ZM123.085 30.0737C123.625 29.5339 124.149 28.9169 124.658 28.2229C125.167 27.5134 125.637 26.7807 126.069 26.025C126.516 25.2692 126.91 24.5366 127.249 23.8271C127.588 23.1176 127.851 22.4852 128.036 21.93C128.221 21.3593 128.313 20.9197 128.313 20.6112C128.313 20.457 128.29 20.3568 128.244 20.3105C128.213 20.2642 128.182 20.2411 128.151 20.2411C128.028 20.2411 127.812 20.4416 127.504 20.8426C127.211 21.2282 126.864 21.7526 126.463 22.4158C126.061 23.079 125.653 23.8348 125.236 24.6831C124.82 25.5314 124.419 26.4183 124.033 27.3437C123.663 28.2691 123.347 29.1791 123.085 30.0737Z" fill="black"/>
</svg>
