<svg width="153" height="55" viewBox="0 0 153 55" fill="none" xmlns="http://www.w3.org/2000/svg">
<path d="M37.9155 10.6915C38.4867 11.2534 38.9496 11.9067 39.2916 12.6342C39.6236 13.3505 39.8259 14.1213 39.8912 14.905C40.6753 14.9568 41.4492 15.1463 42.1673 15.4677C42.8996 15.7946 43.5623 16.246 44.1361 16.8103C46.7686 19.3998 46.8036 23.6472 44.2142 26.2797C43.7931 26.7079 43.3206 27.0744 42.8048 27.3737C43.3255 27.6646 43.8033 28.0226 44.2321 28.4444C46.8646 31.0338 46.8996 35.2812 44.3102 37.9137C43.7458 38.4875 43.0906 38.9498 42.3632 39.2893C41.6505 39.6212 40.881 39.8248 40.0974 39.8889C40.045 40.6736 39.856 41.4469 39.5371 42.165C39.2053 42.9023 38.7527 43.5638 38.1914 44.1344C35.6014 46.7675 31.3527 46.8039 28.7202 44.2145C28.2915 43.7928 27.9255 43.3209 27.6262 42.8051C27.3354 43.3257 26.9767 43.8042 26.5556 44.2323C23.9662 46.8646 19.7175 46.8984 17.0844 44.3084C16.5131 43.7465 16.0502 43.0932 15.7082 42.3657C15.3763 41.6494 15.1739 40.8786 15.1086 40.0949C14.3246 40.0432 13.5512 39.853 12.8326 39.5322C12.1002 39.2053 11.4375 38.7539 10.8637 38.1896C8.23123 35.6001 8.19619 31.3527 10.7856 28.7202C11.2067 28.292 11.6792 27.9255 12.195 27.6262C11.6743 27.3353 11.1965 26.9773 10.7677 26.5555C8.1353 23.9662 8.10025 19.7187 10.6896 17.0863C11.254 16.5125 11.9092 16.0502 12.6366 15.7107C13.3493 15.3788 14.1188 15.1752 14.9024 15.1111C14.9549 14.3264 15.1438 13.5531 15.4627 12.835C15.7945 12.0977 16.2472 11.4362 16.8085 10.8656C19.3985 8.23252 23.6472 8.19618 26.2797 10.7856C26.7084 11.2073 27.0743 11.6792 27.3737 12.195C27.6645 11.6743 28.0232 11.1959 28.4443 10.7677C31.0337 8.13529 35.2824 8.10146 37.9155 10.6915ZM37.7027 13.3756C37.4515 12.8408 37.1084 12.357 36.686 11.9414C34.7416 10.0289 31.6056 10.0542 29.6943 11.9973C29.2775 12.421 28.9443 12.9098 28.7026 13.4517C28.4171 14.0919 28.2705 14.8011 28.2775 15.5016L28.3692 26.6161L39.4812 26.5244C40.1842 26.5199 40.8908 26.3616 41.5269 26.0649C42.0642 25.8151 42.5474 25.4738 42.9642 25.05C44.8755 23.1069 44.8496 19.9715 42.9065 18.0602C42.4828 17.6434 41.9934 17.3096 41.4521 17.0686C40.8144 16.7831 40.1164 16.6388 39.4159 16.6446L39.4103 16.6503C39.0709 16.9953 38.5161 17.0005 38.1705 16.6605C37.8255 16.3212 37.821 15.7658 38.1603 15.4208C38.1551 14.7159 37.9987 14.0149 37.7027 13.3756ZM26.0649 13.4729C25.8151 12.9357 25.4738 12.4525 25.05 12.0356C23.1069 10.1243 19.9709 10.1509 18.0584 12.0952C17.6428 12.5177 17.3077 13.0071 17.0636 13.5503C16.7812 14.1862 16.6376 14.8848 16.6421 15.5865L16.6478 15.5921C16.9928 15.9314 16.9974 16.4868 16.658 16.8318C16.3187 17.1768 15.7633 17.1814 15.4183 16.8421C14.7141 16.8466 14.0149 17.0025 13.3782 17.2997C12.8403 17.5502 12.3565 17.8921 11.9397 18.3158C10.0284 20.2589 10.0542 23.3943 11.9973 25.3056C12.4211 25.7225 12.9098 26.0556 13.4518 26.2973C14.092 26.5828 14.8012 26.7294 15.5016 26.7224C15.5029 26.7224 15.5041 26.7224 15.5054 26.7224L26.6162 26.6307L26.5245 15.5187C26.5245 15.5174 26.5245 15.5162 26.5245 15.515C26.5193 14.8138 26.361 14.1084 26.0649 13.4729ZM43.0025 29.6942C42.5788 29.2774 42.09 28.9442 41.5481 28.7026C41.2283 28.5601 40.8914 28.4526 40.5468 28.3804C40.2021 28.3095 39.8509 28.2739 39.5007 28.2775C39.4983 28.2775 39.4964 28.2781 39.4946 28.2775L28.3837 28.3692L28.4754 39.4813C28.4754 39.4825 28.4754 39.4837 28.4754 39.485C28.4805 40.1861 28.6389 40.8915 28.9349 41.527C29.1848 42.0643 29.526 42.5474 29.9498 42.9643C31.8929 44.8756 35.0289 44.849 36.9414 42.9047C37.357 42.4822 37.6921 41.9928 37.9362 41.4496C38.2198 40.8113 38.3634 40.1101 38.3583 39.4066C38.0133 39.0672 38.0087 38.5118 38.3481 38.1668C38.6874 37.8218 39.2428 37.8173 39.5878 38.1566L39.5884 38.1572C40.2908 38.152 40.9875 37.9963 41.6218 37.7003C42.1597 37.4498 42.6434 37.1079 43.0603 36.6842C44.9716 34.741 44.9457 31.6056 43.0025 29.6942ZM26.7224 39.4982L26.6307 28.3836L15.5186 28.4754C14.8156 28.4799 14.109 28.6382 13.4735 28.9342C12.9356 29.1847 12.4524 29.526 12.0356 29.9497C10.1243 31.8928 10.1502 35.0282 12.0933 36.9395C12.517 37.3563 13.0065 37.6902 13.5477 37.9312C14.1917 38.2191 14.8953 38.364 15.6013 38.355L15.5897 38.3669C15.929 38.0219 16.4844 38.0173 16.8294 38.3567C17.1751 38.6966 17.179 39.2514 16.8396 39.5964C16.8479 40.2956 17.0036 40.9911 17.2971 41.6242C17.5483 42.159 17.8914 42.6428 18.3139 43.0584C20.2583 44.9709 23.3942 44.9456 25.3055 43.0025C25.7224 42.5788 26.0555 42.09 26.2972 41.5481C26.5827 40.9078 26.7294 40.1987 26.7224 39.4982Z" fill="#021F02"/>
<path d="M36.686 11.9415C37.1085 12.357 37.4516 12.8408 37.7027 13.3756C37.9988 14.0148 38.1552 14.7159 38.1604 15.4207C37.821 15.7657 37.8256 16.3211 38.1706 16.6604C38.5163 17.0004 39.071 16.9952 39.4104 16.6502L39.4159 16.6446C40.1163 16.6388 40.8143 16.7831 41.4521 17.0686C41.9934 17.3096 42.4828 17.6435 42.9065 18.0602C44.8496 19.9715 44.8755 23.1069 42.9642 25.05C42.5474 25.4737 42.0642 25.815 41.5269 26.065C40.8909 26.3616 40.1841 26.5199 39.4812 26.5245L28.3693 26.6162L28.2776 15.5016C28.2705 14.8011 28.4172 14.092 28.7027 13.4517C28.9443 12.9097 29.2776 12.421 29.6944 11.9973C31.6057 10.0542 34.7417 10.0289 36.686 11.9415Z" fill="#46B430"/>
<path d="M25.0502 12.0357C25.474 12.4525 25.8152 12.9357 26.0652 13.4729C26.3612 14.1084 26.5195 14.8138 26.5246 15.5149C26.5246 15.5162 26.5247 15.5174 26.5247 15.5187L26.6163 26.6306L15.5055 26.7224C15.5042 26.7224 15.5031 26.7224 15.5018 26.7224C14.8013 26.7294 14.0922 26.5828 13.4519 26.2973C12.9099 26.0556 12.4212 25.7224 11.9975 25.3056C10.0544 23.3943 10.0285 20.2589 11.9398 18.3158C12.3566 17.8921 12.8405 17.5502 13.3783 17.2996C14.015 17.0024 14.7142 16.8466 15.4184 16.842C15.7634 17.1814 16.3188 17.1768 16.6582 16.8318C16.9976 16.4868 16.993 15.9314 16.648 15.5921L16.6423 15.5865C16.6378 14.8848 16.7814 14.1862 17.0638 13.5503C17.3079 13.0071 17.643 12.5177 18.0586 12.0952C19.971 10.1508 23.1071 10.1243 25.0502 12.0357Z" fill="white"/>
<path d="M41.5481 28.7027C42.0901 28.9443 42.5788 29.2776 43.0025 29.6943C44.9456 31.6056 44.9715 34.741 43.0602 36.6841C42.6434 37.1078 42.1596 37.4497 41.6217 37.7003C40.9875 37.9963 40.2908 38.152 39.5884 38.1572L39.5878 38.1566C39.2428 37.8172 38.6874 37.8218 38.348 38.1668C38.0086 38.5118 38.0132 39.0672 38.3582 39.4065C38.3634 40.1101 38.2198 40.8112 37.9361 41.4496C37.692 41.9928 37.357 42.4822 36.9414 42.9047C35.0288 44.8491 31.8929 44.8755 29.9498 42.9642C29.526 42.5474 29.1848 42.0642 28.9348 41.5269C28.6388 40.8915 28.4805 40.186 28.4753 39.4849C28.4753 39.4837 28.4753 39.4825 28.4753 39.4812L28.3838 28.3693L39.4946 28.2776C39.4965 28.2781 39.4983 28.2775 39.5008 28.2775C39.851 28.2741 40.2022 28.3096 40.5468 28.3805C40.8914 28.4526 41.2283 28.5602 41.5481 28.7027Z" fill="white"/>
<path d="M26.6307 28.3837L26.7224 39.4982C26.7295 40.1987 26.5828 40.9078 26.2973 41.5481C26.0557 42.0901 25.7224 42.5788 25.3056 43.0025C23.3943 44.9456 20.2583 44.9709 18.314 43.0583C17.8915 42.6428 17.5484 42.159 17.2972 41.6242C17.0037 40.9912 16.848 40.2957 16.8397 39.5964C17.1791 39.2514 17.1751 38.6966 16.8295 38.3566C16.4845 38.0173 15.9291 38.0219 15.5898 38.3669L15.6014 38.355C14.8954 38.364 14.1918 38.2192 13.5478 37.9312C13.0065 37.6902 12.5171 37.3563 12.0934 36.9396C10.1503 35.0283 10.1244 31.8929 12.0357 29.9498C12.4525 29.526 12.9357 29.1848 13.4736 28.9343C14.109 28.6382 14.8157 28.48 15.5187 28.4754L26.6307 28.3837Z" fill="#46B430"/>
<path d="M73.3553 35.7419C72.8155 35.7419 72.4221 35.5723 72.1754 35.233C71.9286 34.9091 71.8052 34.5157 71.8052 34.053C71.8052 33.6674 71.8592 33.2819 71.9671 32.8963C72.0905 32.5107 72.2062 32.1328 72.3142 31.7626C72.4376 31.3924 72.4993 31.0608 72.4993 30.7678C72.4993 30.4593 72.4299 30.2434 72.291 30.12C72.1522 29.9966 71.998 29.9349 71.8283 29.9349C71.4427 29.9349 71.0186 30.2357 70.5559 30.8372C70.1086 31.4387 69.5225 32.287 68.7976 33.3821C68.5508 33.7523 68.3426 34.1302 68.1729 34.5157C68.0032 34.8859 67.8413 35.2252 67.6871 35.5337C67.5637 35.5337 67.4094 35.5183 67.2243 35.4874C67.0393 35.4566 66.8696 35.4026 66.7154 35.3255C66.5766 35.2638 66.5071 35.179 66.5071 35.071C66.5071 34.963 66.5766 34.7085 66.7154 34.3075C66.8696 33.8911 67.0393 33.413 67.2243 32.8731C67.4249 32.3179 67.5945 31.7626 67.7333 31.2074C67.8876 30.6367 67.9647 30.1508 67.9647 29.7498C67.9647 29.4876 67.9184 29.2794 67.8259 29.1252C67.7488 28.9555 67.6022 28.8707 67.3863 28.8707C67.047 28.8707 66.6382 29.0789 66.1601 29.4953C65.682 29.8963 65.1884 30.4285 64.6794 31.0917C64.1704 31.7549 63.6846 32.4875 63.2219 33.2896C62.7746 34.0762 62.4121 34.8628 62.1345 35.6494C61.9186 35.6494 61.6564 35.5954 61.3479 35.4874C61.0394 35.3795 60.8852 35.2715 60.8852 35.1635C60.8852 35.071 60.97 34.8011 61.1397 34.3538C61.2939 33.8911 61.479 33.3435 61.6949 32.7112C61.8954 32.0634 62.0728 31.4079 62.2271 30.7446C62.3967 30.0814 62.4815 29.4953 62.4815 28.9863C62.5741 28.8784 62.7206 28.7704 62.9211 28.6624C63.1216 28.5545 63.3299 28.5005 63.5458 28.5005C63.9622 28.5005 64.1704 28.701 64.1704 29.102C64.1704 29.3025 64.1088 29.6496 63.9854 30.1431C63.8774 30.6213 63.7386 31.1534 63.5689 31.7395C63.8774 31.2459 64.2244 30.7446 64.61 30.2357C65.011 29.7113 65.4275 29.2331 65.8593 28.8013C66.2912 28.3694 66.7231 28.0224 67.1549 27.7602C67.6022 27.4825 68.0341 27.3437 68.4505 27.3437C68.9287 27.3437 69.2526 27.5211 69.4222 27.8758C69.6073 28.2152 69.6999 28.6239 69.6999 29.102C69.6999 29.4876 69.6536 29.8963 69.561 30.3282C69.4839 30.7446 69.3914 31.138 69.2834 31.5081C69.1755 31.8629 69.0752 32.1482 68.9827 32.3641C69.3066 31.778 69.6613 31.2151 70.0469 30.6752C70.4479 30.12 70.8798 29.6727 71.3425 29.3334C71.8052 28.9786 72.2988 28.8013 72.8232 28.8013C73.3167 28.8013 73.656 28.9478 73.8411 29.2408C74.0416 29.5339 74.1419 29.8809 74.1419 30.2819C74.1419 30.683 74.0725 31.1225 73.9337 31.6007C73.7949 32.0788 73.6483 32.5415 73.4941 32.9888C73.3553 33.4361 73.2859 33.8217 73.2859 34.1456C73.2859 34.3461 73.3321 34.5312 73.4247 34.7008C73.5327 34.8551 73.7177 34.9322 73.9799 34.9322C74.4118 34.9322 74.8128 34.7394 75.183 34.3538C75.5686 33.9528 75.9233 33.4746 76.2472 32.9194C76.5711 32.3487 76.8488 31.8012 77.0801 31.2768L77.3577 31.6007C77.111 32.2485 76.7948 32.8963 76.4092 33.5441C76.0236 34.1764 75.5686 34.7008 75.0442 35.1173C74.5352 35.5337 73.9722 35.7419 73.3553 35.7419Z" fill="black"/>
<path d="M79.1504 36.0427C78.2095 36.0427 77.5 35.7805 77.0219 35.2561C76.5592 34.7471 76.3278 34.1147 76.3278 33.359C76.3278 32.6649 76.4975 31.9323 76.8368 31.1611C77.1916 30.3899 77.6543 29.665 78.225 28.9863C78.8111 28.3077 79.4512 27.7602 80.1452 27.3437C80.8393 26.9118 81.5256 26.6959 82.2043 26.6959C82.559 26.6959 82.8829 26.7885 83.176 26.9735C83.4845 27.1586 83.6387 27.5365 83.6387 28.1072C83.6387 28.6933 83.4613 29.2485 83.1066 29.773C82.7673 30.2819 82.3123 30.7369 81.7416 31.138C81.1863 31.539 80.5694 31.8706 79.8907 32.1328C79.2275 32.3796 78.5643 32.5338 77.9011 32.5955C77.8702 32.7497 77.8471 32.8963 77.8317 33.0351C77.8162 33.1739 77.8085 33.305 77.8085 33.4284C77.8085 33.9065 77.9319 34.3538 78.1787 34.7702C78.4409 35.1713 78.9267 35.3718 79.6362 35.3718C80.2995 35.3718 80.955 35.1867 81.6028 34.8165C82.2506 34.4309 82.8521 33.9296 83.4073 33.3127C83.9626 32.6957 84.433 32.0171 84.8186 31.2768L85.0962 31.485C84.6798 32.4104 84.1477 33.2124 83.4999 33.8911C82.8675 34.5697 82.1734 35.0941 81.4177 35.4643C80.6773 35.8499 79.9216 36.0427 79.1504 36.0427ZM78.0167 32.1559C78.4332 32.0171 78.9036 31.8166 79.428 31.5544C79.9524 31.2768 80.4537 30.9529 80.9318 30.5827C81.4254 30.2125 81.8264 29.8038 82.1349 29.3565C82.4588 28.9092 82.6207 28.4388 82.6207 27.9452C82.6207 27.7756 82.5899 27.6445 82.5282 27.5519C82.4665 27.4594 82.3354 27.4131 82.1349 27.4131C81.7647 27.4131 81.3714 27.5596 80.955 27.8527C80.5385 28.1303 80.1375 28.5005 79.7519 28.9632C79.3663 29.4259 79.0193 29.9349 78.7108 30.4902C78.4023 31.0454 78.171 31.6007 78.0167 32.1559Z" fill="black"/>
<path d="M85.2352 41.5027C84.8959 41.5027 84.5874 41.3947 84.3098 41.1788C84.0322 40.9783 83.8934 40.639 83.8934 40.1608C83.8934 39.6981 84.0399 39.2663 84.3329 38.8652C84.6106 38.4796 84.973 38.1172 85.4203 37.7779C85.8676 37.454 86.3535 37.1532 86.8779 36.8756C87.4177 36.598 87.9267 36.3357 88.4048 36.089C88.6207 35.5491 88.8212 34.9707 89.0063 34.3538C89.2068 33.7214 89.3996 33.0274 89.5847 32.2716C88.9986 33.1199 88.3817 33.8294 87.7339 34.4001C87.1015 34.9553 86.4614 35.233 85.8136 35.233C85.2584 35.233 84.8265 35.0247 84.518 34.6083C84.225 34.1919 84.0785 33.652 84.0785 32.9888C84.0785 32.1868 84.2712 31.4233 84.6568 30.6984C85.0579 29.9735 85.5746 29.3334 86.2069 28.7781C86.8393 28.2229 87.5102 27.791 88.2197 27.4825C88.9292 27.1586 89.5924 26.9967 90.2094 26.9967C90.6567 26.9967 90.9729 27.0738 91.1579 27.228C91.3585 27.3668 91.4587 27.5365 91.4587 27.737C91.4587 27.8758 91.4201 27.9838 91.343 28.0609C91.2659 28.138 91.2119 28.1843 91.1811 28.1997C91.0268 27.9684 90.7184 27.8527 90.2557 27.8527C89.6541 27.8527 89.068 28.0301 88.4973 28.3848C87.9421 28.7396 87.4485 29.1946 87.0167 29.7498C86.5848 30.3051 86.2378 30.8835 85.9756 31.485C85.7288 32.0711 85.6054 32.6109 85.6054 33.1045C85.6054 33.4746 85.6748 33.76 85.8136 33.9605C85.9679 34.1456 86.1684 34.2381 86.4151 34.2381C86.8624 34.2381 87.3946 33.9451 88.0115 33.359C88.6439 32.7574 89.2531 32.0325 89.8392 31.1842C89.8855 30.9683 89.924 30.7755 89.9549 30.6058C90.0012 30.4362 90.0551 30.2202 90.1168 29.958C90.1631 29.7421 90.2711 29.4953 90.4407 29.2177C90.6258 28.9246 90.9112 28.7781 91.2968 28.7781C91.4356 28.7781 91.5975 28.8013 91.7826 28.8475C91.7826 29.0943 91.7055 29.5493 91.5513 30.2125C91.4124 30.8603 91.2042 31.6238 90.9266 32.503C90.6644 33.3667 90.3559 34.2613 90.0012 35.1867C90.7569 34.8319 91.4896 34.3152 92.199 33.6366C92.9085 32.9425 93.4329 32.1559 93.7723 31.2768L94.073 31.5081C93.8417 32.2022 93.4715 32.8346 92.9625 33.4052C92.4535 33.9759 91.906 34.4695 91.3199 34.8859C90.7492 35.3024 90.2248 35.6263 89.7467 35.8576C89.3148 36.891 88.8598 37.8319 88.3817 38.6802C87.9035 39.5439 87.4023 40.2302 86.8779 40.7392C86.3689 41.2482 85.8213 41.5027 85.2352 41.5027ZM85.1658 40.7624C85.4743 40.7624 85.8907 40.4539 86.4151 39.8369C86.955 39.2354 87.5334 38.1943 88.1503 36.7136C87.5334 37.0221 86.955 37.3383 86.4151 37.6622C85.8907 38.0015 85.4589 38.3563 85.1196 38.7264C84.7802 39.0966 84.6106 39.5053 84.6106 39.9526C84.6106 40.1994 84.6646 40.3922 84.7725 40.531C84.8805 40.6852 85.0116 40.7624 85.1658 40.7624Z" fill="black"/>
<path d="M94.4587 36.1121C93.9806 36.1121 93.5796 35.9502 93.2557 35.6263C92.9164 35.3178 92.7467 34.8396 92.7467 34.1919C92.7467 33.6366 92.8701 33.0428 93.1169 32.4104C93.3637 31.7626 93.703 31.1302 94.1348 30.5133C94.5667 29.8809 95.0526 29.3102 95.5924 28.8013C96.1476 28.2768 96.726 27.8604 97.3276 27.5519C97.9445 27.2435 98.5537 27.0892 99.1553 27.0892C99.7568 27.0892 100.258 27.2512 100.659 27.5751C101.06 27.8835 101.261 28.3 101.261 28.8244C101.261 29.21 101.153 29.4722 100.937 29.611C100.736 29.7498 100.466 29.8192 100.127 29.8192C100.204 29.5416 100.243 29.2717 100.243 29.0095C100.243 28.6547 100.158 28.354 99.9882 28.1072C99.8185 27.845 99.5254 27.7139 99.109 27.7139C98.6771 27.7139 98.2376 27.8681 97.7903 28.1766C97.343 28.4696 96.9111 28.8707 96.4947 29.3796C96.0782 29.8732 95.7081 30.413 95.3842 30.9991C95.0603 31.5852 94.8058 32.1636 94.6207 32.7343C94.4356 33.305 94.3431 33.814 94.3431 34.2613C94.3431 34.8628 94.5513 35.1635 94.9677 35.1635C95.3225 35.1635 95.7081 35.0016 96.1245 34.6777C96.5409 34.3384 96.9651 33.9142 97.397 33.4052C97.8443 32.8808 98.2684 32.341 98.6694 31.7857C99.0704 31.2305 99.4252 30.7215 99.7337 30.2588C99.7954 30.1663 99.8339 30.12 99.8493 30.12C99.9882 30.1354 100.173 30.1971 100.405 30.3051C100.636 30.3976 100.752 30.5287 100.752 30.6984C100.752 30.8372 100.682 31.03 100.543 31.2768C100.405 31.5081 100.25 31.778 100.081 32.0865C99.911 32.395 99.7568 32.7112 99.618 33.0351C99.4792 33.3435 99.4098 33.6366 99.4098 33.9142C99.4098 34.1456 99.4715 34.3769 99.5948 34.6083C99.7182 34.8242 99.9187 34.9322 100.196 34.9322C100.613 34.9322 101.16 34.6314 101.839 34.0299C102.518 33.413 103.204 32.4952 103.898 31.2768L104.129 31.5081C103.806 32.341 103.389 33.0736 102.88 33.706C102.371 34.3384 101.824 34.8319 101.237 35.1867C100.667 35.5414 100.104 35.7188 99.5486 35.7188C98.9779 35.7188 98.5537 35.5491 98.2761 35.2098C98.0139 34.8705 97.8828 34.5003 97.8828 34.0993C97.8828 33.8988 97.9059 33.6752 97.9522 33.4284C97.289 34.323 96.6798 34.9939 96.1245 35.4412C95.5847 35.8885 95.0294 36.1121 94.4587 36.1121Z" fill="black"/>
<path d="M105.229 31.6932C105.399 31.2305 105.892 30.9297 106.71 30.7909C107.527 30.6367 108.491 30.5596 109.602 30.5596C110.419 30.5596 111.183 30.5904 111.892 30.6521C112.617 30.6984 113.149 30.7369 113.489 30.7678C112.887 31.1534 112.316 31.3616 111.777 31.3924C111.252 31.4233 110.72 31.4387 110.18 31.4387H107.844C107.443 31.4387 107.034 31.4618 106.617 31.5081C106.201 31.5544 105.738 31.6161 105.229 31.6932Z" fill="black"/>
<path d="M118.032 36.2046C117.307 36.2046 116.729 36.0427 116.297 35.7188C115.88 35.4103 115.587 35.0247 115.418 34.562C115.233 34.0993 115.14 33.6366 115.14 33.1739C115.14 32.7112 115.202 32.3564 115.325 32.1096C115.448 31.8629 115.595 31.6778 115.765 31.5544C115.95 31.431 116.119 31.3385 116.274 31.2768C116.443 31.2151 116.559 31.1534 116.621 31.0917C117.083 30.5827 117.508 30.0506 117.893 29.4953C118.279 28.9401 118.618 28.354 118.911 27.737V27.4594C118.911 26.8887 119.004 26.4877 119.189 26.2563C119.389 26.0096 119.597 25.8862 119.813 25.8862C120.06 25.8862 120.184 25.9864 120.184 26.1869C120.184 26.2641 120.16 26.3874 120.114 26.5571C120.068 26.7268 120.045 26.9427 120.045 27.2049C120.045 27.7139 120.145 28.2691 120.345 28.8707C120.546 29.4568 120.747 30.0814 120.947 30.7446C121.148 31.3924 121.248 32.0711 121.248 32.7806C121.248 33.1816 121.202 33.5595 121.109 33.9142C121.649 33.8217 122.158 33.5826 122.636 33.197C123.114 32.796 123.577 32.1636 124.024 31.2999L124.232 31.5313C123.939 32.3796 123.5 33.0274 122.914 33.4746C122.327 33.9065 121.687 34.1764 120.993 34.2844C120.747 34.9476 120.353 35.4335 119.813 35.7419C119.289 36.0504 118.695 36.2046 118.032 36.2046ZM119.651 33.8911C119.682 33.7369 119.705 33.5749 119.721 33.4052C119.736 33.2356 119.744 33.0351 119.744 32.8037C119.744 32.0788 119.651 31.3616 119.466 30.6521C119.297 29.9272 119.15 29.2485 119.027 28.6162C118.672 29.2023 118.294 29.7652 117.893 30.3051C117.508 30.8295 117.137 31.2691 116.783 31.6238C117.014 32.1174 117.369 32.5801 117.847 33.0119C118.34 33.4438 118.942 33.7369 119.651 33.8911ZM118.078 35.3949C118.263 35.3949 118.51 35.3332 118.819 35.2098C119.127 35.0864 119.366 34.7702 119.536 34.2613C118.888 34.1379 118.31 33.8834 117.801 33.4978C117.307 33.1122 116.937 32.7266 116.69 32.341C116.351 32.3564 116.181 32.6263 116.181 33.1507C116.181 33.706 116.343 34.2227 116.667 34.7008C117.006 35.1635 117.477 35.3949 118.078 35.3949Z" fill="black"/>
<path d="M126.077 36.0427C125.136 36.0427 124.426 35.7805 123.948 35.2561C123.486 34.7471 123.254 34.1147 123.254 33.359C123.254 32.6649 123.424 31.9323 123.763 31.1611C124.118 30.3899 124.581 29.665 125.151 28.9863C125.737 28.3077 126.378 27.7602 127.072 27.3437C127.766 26.9118 128.452 26.6959 129.131 26.6959C129.485 26.6959 129.809 26.7885 130.102 26.9735C130.411 27.1586 130.565 27.5365 130.565 28.1072C130.565 28.6933 130.388 29.2485 130.033 29.773C129.694 30.2819 129.239 30.7369 128.668 31.138C128.113 31.539 127.496 31.8706 126.817 32.1328C126.154 32.3796 125.491 32.5338 124.827 32.5955C124.797 32.7497 124.773 32.8963 124.758 33.0351C124.743 33.1739 124.735 33.305 124.735 33.4284C124.735 33.9065 124.858 34.3538 125.105 34.7702C125.367 35.1713 125.853 35.3718 126.563 35.3718C127.226 35.3718 127.881 35.1867 128.529 34.8165C129.177 34.4309 129.778 33.9296 130.334 33.3127C130.889 32.6957 131.359 32.0171 131.745 31.2768L132.023 31.485C131.606 32.4104 131.074 33.2124 130.426 33.8911C129.794 34.5697 129.1 35.0941 128.344 35.4643C127.604 35.8499 126.848 36.0427 126.077 36.0427ZM124.943 32.1559C125.36 32.0171 125.83 31.8166 126.354 31.5544C126.879 31.2768 127.38 30.9529 127.858 30.5827C128.352 30.2125 128.753 29.8038 129.061 29.3565C129.385 28.9092 129.547 28.4388 129.547 27.9452C129.547 27.7756 129.516 27.6445 129.455 27.5519C129.393 27.4594 129.262 27.4131 129.061 27.4131C128.691 27.4131 128.298 27.5596 127.881 27.8527C127.465 28.1303 127.064 28.5005 126.678 28.9632C126.293 29.4259 125.946 29.9349 125.637 30.4902C125.329 31.0454 125.097 31.6007 124.943 32.1559Z" fill="black"/>
<path d="M138.755 35.4874C138.215 35.4874 137.807 35.3486 137.529 35.071C137.267 34.7934 137.136 34.4386 137.136 34.0068C137.136 33.6829 137.19 33.3435 137.298 32.9888C137.421 32.6341 137.537 32.2716 137.645 31.9014C137.753 31.5158 137.807 31.1457 137.807 30.7909C137.807 30.3591 137.714 30.066 137.529 29.9118C137.359 29.7421 137.144 29.6573 136.881 29.6573C136.403 29.6573 135.917 29.8578 135.424 30.2588C134.93 30.6444 134.452 31.1457 133.989 31.7626C133.527 32.3641 133.095 32.9888 132.694 33.6366C132.293 34.2844 131.938 34.8628 131.63 35.3718C131.383 35.3718 131.151 35.3255 130.935 35.233C130.704 35.1558 130.527 35.0324 130.403 34.8628C130.403 34.7857 130.488 34.5466 130.658 34.1456C130.812 33.7446 130.997 33.251 131.213 32.6649C131.429 32.0788 131.622 31.4773 131.791 30.8603C131.961 30.2434 132.046 29.6804 132.046 29.1714C132.139 29.0635 132.285 28.9555 132.486 28.8475C132.686 28.7396 132.894 28.6856 133.11 28.6856C133.527 28.6856 133.735 28.8861 133.735 29.2871C133.735 29.5339 133.665 29.9503 133.527 30.5364C133.388 31.1071 133.21 31.7086 132.995 32.341C133.411 31.7086 133.874 31.084 134.383 30.467C134.907 29.8346 135.462 29.3102 136.048 28.8938C136.635 28.4774 137.221 28.2691 137.807 28.2691C138.408 28.2691 138.84 28.4851 139.102 28.9169C139.38 29.3488 139.519 29.8269 139.519 30.3513C139.519 30.8295 139.442 31.2768 139.287 31.6932C139.133 32.0942 138.971 32.4875 138.802 32.8731C138.647 33.2433 138.57 33.6212 138.57 34.0068C138.57 34.3307 138.632 34.562 138.755 34.7008C138.894 34.8242 139.064 34.8859 139.264 34.8859C139.65 34.8859 140.035 34.7085 140.421 34.3538C140.807 33.9836 141.177 33.5209 141.532 32.9657C141.902 32.4104 142.226 31.8474 142.503 31.2768L142.758 31.5775C142.28 32.7035 141.709 33.6366 141.046 34.3769C140.382 35.1173 139.619 35.4874 138.755 35.4874Z" fill="black"/>
<path d="M143.17 36.1121C142.692 36.1121 142.291 35.9502 141.967 35.6263C141.628 35.3178 141.458 34.8396 141.458 34.1919C141.458 33.6366 141.581 33.0428 141.828 32.4104C142.075 31.7626 142.414 31.1302 142.846 30.5133C143.278 29.8809 143.764 29.3102 144.304 28.8013C144.859 28.2768 145.437 27.8604 146.039 27.5519C146.656 27.2435 147.265 27.0892 147.867 27.0892C148.468 27.0892 148.969 27.2512 149.37 27.5751C149.771 27.8835 149.972 28.3 149.972 28.8244C149.972 29.21 149.864 29.4722 149.648 29.611C149.447 29.7498 149.178 29.8192 148.838 29.8192C148.915 29.5416 148.954 29.2717 148.954 29.0095C148.954 28.6547 148.869 28.354 148.699 28.1072C148.53 27.845 148.237 27.7139 147.82 27.7139C147.388 27.7139 146.949 27.8681 146.502 28.1766C146.054 28.4696 145.622 28.8707 145.206 29.3796C144.79 29.8732 144.419 30.413 144.095 30.9991C143.772 31.5852 143.517 32.1636 143.332 32.7343C143.147 33.305 143.054 33.814 143.054 34.2613C143.054 34.8628 143.263 35.1635 143.679 35.1635C144.034 35.1635 144.419 35.0016 144.836 34.6777C145.252 34.3384 145.676 33.9142 146.108 33.4052C146.556 32.8808 146.98 32.341 147.381 31.7857C147.782 31.2305 148.136 30.7215 148.445 30.2588C148.507 30.1663 148.545 30.12 148.561 30.12C148.699 30.1354 148.885 30.1971 149.116 30.3051C149.347 30.3976 149.463 30.5287 149.463 30.6984C149.463 30.8372 149.393 31.03 149.255 31.2768C149.116 31.5081 148.962 31.778 148.792 32.0865C148.622 32.395 148.468 32.7112 148.329 33.0351C148.19 33.3435 148.121 33.6366 148.121 33.9142C148.121 34.1456 148.183 34.3769 148.306 34.6083C148.43 34.8242 148.63 34.9322 148.908 34.9322C149.324 34.9322 149.872 34.6314 150.55 34.0299C151.229 33.413 151.915 32.4952 152.609 31.2768L152.841 31.5081C152.517 32.341 152.1 33.0736 151.591 33.706C151.082 34.3384 150.535 34.8319 149.949 35.1867C149.378 35.5414 148.815 35.7188 148.26 35.7188C147.689 35.7188 147.265 35.5491 146.987 35.2098C146.725 34.8705 146.594 34.5003 146.594 34.0993C146.594 33.8988 146.617 33.6752 146.663 33.4284C146 34.323 145.391 34.9939 144.836 35.4412C144.296 35.8885 143.741 36.1121 143.17 36.1121Z" fill="black"/>
</svg>
