<svg version="1.2" xmlns="http://www.w3.org/2000/svg" viewBox="0 0 155 55" width="155" height="55">
	<title>milionaria</title>
	<style>
		.s0 { fill: #021f02 } 
		.s1 { fill: #005892 } 
		.s2 { fill: #ffd700 } 
		.s3 { fill: #000000 } 
	</style>
	<path class="s0" d="m33.7 10q0.9 0.8 1.4 1.9 0.5 1.1 0.6 2.4 1.2 0 2.3 0.5 1.2 0.5 2.1 1.4c2.6 2.6 2.7 7 0 9.6q-0.6 0.7-1.4 1.2 0.8 0.4 1.5 1.1c2.6 2.6 2.7 6.9 0 9.6q-0.8 0.9-2 1.4-1.1 0.5-2.3 0.6 0 1.2-0.5 2.3-0.5 1.2-1.4 2.1c-2.6 2.6-7 2.7-9.7 0q-0.6-0.6-1.1-1.4-0.4 0.8-1.1 1.5c-2.6 2.6-6.9 2.7-9.6 0q-0.9-0.8-1.4-2-0.5-1.1-0.6-2.3-1.2 0-2.4-0.5-1.1-0.5-2-1.4c-2.6-2.6-2.7-7 0-9.7q0.6-0.6 1.4-1.1-0.8-0.4-1.5-1.1c-2.6-2.6-2.7-6.9 0-9.6q0.8-0.9 1.9-1.4 1.1-0.5 2.4-0.6 0-1.2 0.5-2.4 0.5-1.1 1.4-2c2.6-2.6 7-2.7 9.7 0q0.6 0.6 1.1 1.4 0.4-0.8 1.1-1.5c2.6-2.6 6.9-2.7 9.6 0zm-0.2 2.7q-0.4-0.8-1-1.5c-2-1.9-5.2-1.9-7.2 0.1q-0.6 0.6-1 1.5c-0.3 0.6-0.4 1.3-0.4 2.1l0.1 11.3 11.3-0.1c0.7 0 1.4-0.2 2.1-0.5q0.8-0.4 1.5-1c1.9-2 1.9-5.2-0.1-7.1q-0.7-0.7-1.5-1-1-0.5-2.1-0.5c-0.3 0.4-0.9 0.4-1.2 0-0.4-0.3-0.4-0.9 0-1.2q0-1.1-0.5-2.1zm-11.9 0.1q-0.4-0.8-1-1.5c-2-1.9-5.2-1.9-7.1 0.1q-0.7 0.6-1 1.5-0.5 1-0.5 2v0.1c0.4 0.3 0.4 0.9 0 1.2-0.3 0.4-0.9 0.4-1.2 0q-1.1 0-2.1 0.5-0.8 0.4-1.5 1c-1.9 2-1.9 5.2 0.1 7.2q0.6 0.6 1.5 1c0.6 0.3 1.3 0.4 2.1 0.4q0 0 0 0l11.3-0.1-0.1-11.3q0 0 0 0c0-0.7-0.2-1.5-0.5-2.1zm17.3 16.5q-0.7-0.6-1.5-1-0.5-0.2-1-0.3-0.5-0.1-1.1-0.1 0 0 0 0l-11.3 0.1 0.1 11.3q0 0 0 0c0 0.7 0.2 1.4 0.5 2.1q0.3 0.8 1 1.5c2 1.9 5.2 1.9 7.1-0.1q0.7-0.7 1-1.5 0.5-1 0.5-2.1c-0.4-0.3-0.4-0.9 0-1.2 0.3-0.4 0.9-0.4 1.2 0q1.1-0.1 2.1-0.5 0.8-0.4 1.5-1c1.9-2 1.9-5.2-0.1-7.2zm-16.6 10l-0.1-11.3-11.3 0.1c-0.7 0-1.5 0.2-2.1 0.5q-0.8 0.3-1.5 1c-1.9 2-1.9 5.2 0.1 7.1q0.6 0.7 1.5 1 1 0.5 2.1 0.5c0.3-0.4 0.9-0.4 1.2 0 0.4 0.3 0.4 0.9 0 1.2q0 1.1 0.5 2.1 0.4 0.8 1 1.5c2 1.9 5.2 1.9 7.2-0.1q0.6-0.7 1-1.5c0.3-0.6 0.4-1.4 0.4-2.1z"/>
	<path class="s1" d="m32.5 11.2q0.6 0.7 1 1.5 0.5 1 0.5 2.1c-0.4 0.3-0.4 0.9 0 1.2 0.3 0.4 0.9 0.4 1.2 0q1.1 0 2.1 0.5 0.8 0.3 1.5 1c2 1.9 2 5.1 0.1 7.1q-0.7 0.6-1.5 1c-0.7 0.3-1.4 0.5-2.1 0.5l-11.3 0.1-0.1-11.3c0-0.8 0.1-1.5 0.4-2.1q0.4-0.9 1-1.5c2-2 5.2-2 7.2-0.1z"/>
	<path class="s2" d="m20.6 11.3q0.6 0.7 1 1.5c0.3 0.6 0.5 1.4 0.5 2.1q0 0 0 0l0.1 11.3-11.3 0.1q0 0 0 0c-0.8 0-1.5-0.1-2.1-0.4q-0.9-0.4-1.5-1c-2-2-2-5.2-0.1-7.2q0.7-0.6 1.5-1 1-0.5 2.1-0.5c0.3 0.4 0.9 0.4 1.2 0 0.4-0.3 0.4-0.9 0-1.2v-0.1q0-1 0.5-2 0.3-0.9 1-1.5c1.9-2 5.1-2 7.1-0.1z"/>
	<path class="s2" d="m37.4 28.3q0.8 0.4 1.5 1c2 2 2 5.2 0.1 7.2q-0.7 0.6-1.5 1-1 0.4-2.1 0.5c-0.3-0.4-0.9-0.4-1.2 0-0.4 0.3-0.4 0.9 0 1.2q0 1.1-0.5 2.1-0.3 0.8-1 1.5c-1.9 2-5.1 2-7.1 0.1q-0.7-0.7-1-1.5c-0.3-0.7-0.5-1.4-0.5-2.1q0 0 0 0l-0.1-11.3 11.3-0.1q0 0 0 0 0.6 0 1.1 0.1 0.5 0.1 1 0.3z"/>
	<path class="s1" d="m22.2 28l0.1 11.3c0 0.7-0.1 1.5-0.4 2.1q-0.4 0.8-1 1.5c-2 2-5.2 2-7.2 0.1q-0.6-0.7-1-1.5-0.5-1-0.5-2.1c0.4-0.3 0.4-0.9 0-1.2-0.3-0.4-0.9-0.4-1.2 0q-1.1 0-2.1-0.5-0.9-0.3-1.5-1c-2-1.9-2-5.1-0.1-7.1q0.7-0.7 1.5-1c0.6-0.3 1.4-0.5 2.1-0.5z"/>
	<path id="+milionária" class="s3" aria-label="+milionária"  d="m47.2 32.5q-0.3 0-0.3-0.3 0-1 0.3-2 0.4-1.1 0.7-2.1-0.5 0-0.9 0.1-0.4 0-1 0.1-0.4 0-1.2 0-0.5 0-0.5-0.5 0-0.2 0.2-0.6 0.8-0.1 1.3-0.1 0.6 0 1.1 0h1.4q0.2-0.8 0.4-1.6 0.2-1 0.5-1.8 0.3-0.4 0.9-0.4 0.3 0 0.6 0.1-0.2 1.1-0.5 1.9-0.3 0.9-0.6 1.8 0.8 0 1.6 0.1 0.8 0 1.8 0.1 0.3 0.2 0.3 0.4 0 0.4-0.6 0.4-0.8 0-1.7 0-0.9 0-1.8 0-0.1 0.3-0.3 1-0.2 0.7-0.5 1.5-0.3 0.8-0.6 1.3-0.3 0.6-0.6 0.6zm8.8 0.6q-0.2 0-0.3-0.2-0.1-0.2-0.1-0.4 0-0.3 0.1-0.6 0.2-0.3 0.3-0.5 0.3-0.8 0.6-1.7 0.4-0.9 0.6-1.7 0.3-0.8 0.3-1.3 0.1-0.3 0.6-0.5 0.5-0.2 0.8-0.2 0.1 0 0.3 0.1 0.1 0.1 0.1 0.3 0 0.1-0.1 0.6-0.2 0.4-0.4 1-0.3 0.6-0.5 1.1-0.2 0.5-0.2 0.7 0.2-0.3 0.7-0.9 0.6-0.7 1.2-1.4 0.7-0.7 1.3-1.2 0.6-0.5 1.1-0.5 0.8 0 0.8 0.7 0 0.9-0.3 2-0.3 1.1-0.4 2 0.3-0.3 0.7-0.8 0.5-0.6 1.1-1.2 0.5-0.6 1.1-1 0.5-0.4 1-0.4 0.7 0 0.7 0.7 0 0.7-0.2 1.4-0.2 0.6-0.2 1.3 0 0.4 0.1 0.9 0.1 0.4 0.7 0.4 0.8 0 1.5-0.4 0.7-0.4 1.3-1 0.7-0.6 1.2-1.2h0.1q0 0 0.2 0.1 0.1 0.2 0 0.4-0.7 0.8-1.6 1.6-0.9 0.7-1.8 1.2-0.9 0.4-1.7 0.3-1-0.1-1.4-0.8-0.3-0.6-0.3-1.8 0-0.3 0-0.5 0-0.2 0-0.4v-0.2q0-0.3-0.1-0.3-0.1 0-0.5 0.3-0.4 0.5-0.8 1.1-0.5 0.7-0.9 1.4-0.4 0.6-0.8 1-0.3 0.4-0.7 0.4-0.3 0-0.5-0.2-0.2-0.2-0.2-0.5 0-0.2 0-0.3 0.2-0.6 0.4-1.4 0.2-0.8 0.4-1.5 0.1-0.8 0.1-1.2 0-0.2-0.1-0.3-0.5-0.1-1.1 0.5-0.5 0.6-1.2 1.4-0.6 0.9-1.3 1.9-0.6 0.9-1.2 1.5-0.1 0.1-0.2 0.2-0.1 0-0.3 0zm18.3-7.6q-0.4 0-0.7-0.3-0.3-0.3-0.3-0.8 0-0.4 0.3-0.7 0.3-0.3 0.7-0.3 0.4 0 0.8 0.3 0.3 0.3 0.3 0.7 0 0.5-0.3 0.8-0.4 0.3-0.8 0.3zm-2.1 8q-1 0-1.6-0.5-0.7-0.6-0.5-1.8 0-0.4 0.2-1.1 0.3-0.7 0.6-1.5 0.4-0.7 0.8-1.3 0.4-0.5 0.9-0.5 0.3 0 0.6 0.2 0.3 0.2 0.3 0.6 0 0.2-0.3 0.5-0.2 0.4-0.6 0.9-0.4 0.5-0.7 1.2-0.3 0.6-0.3 1.4 0 0.6 0.3 0.9 0.3 0.2 0.7 0.2 0.6 0 1.2-0.3 0.6-0.3 1.3-0.7 0.3-0.3 1-1 0.8-0.7 1.7-1.7 0.1-0.1 0.1-0.1 0.3 0 0.3 0.4 0 0-0.4 0.4-0.3 0.4-0.8 0.9-0.4 0.5-0.9 0.9-0.4 0.4-0.6 0.5-0.7 0.6-1.5 1-0.8 0.5-1.8 0.5zm7.3-0.1q-1.3 0-2-0.9-0.6-0.9-0.6-2.1 0-1 0.6-2.4 0.6-1.4 1.5-3.1 1-1.6 2.2-3.2 1.2-1.6 2.5-2.9 1.3-1.3 2.5-2 1.2-0.8 2.2-0.8 0.5 0 1 0.4 0.4 0.4 0.4 0.9 0 0.8-0.6 1.8-0.6 1.1-1.7 2.3-1 1.3-2.2 2.5-1.3 1.3-2.5 2.4-1.3 1.1-2.4 2.1-1.1 0.9-1.8 1.4 0 0.2 0 0.5 0 0.2 0 0.4 0 0.8 0.3 1.3 0.3 0.5 1.1 0.5 1 0 1.8-0.5 0.9-0.4 1.7-1 0.7-0.6 1.3-1.2 0.6-0.6 0.9-0.9 0.1-0.1 0.1-0.1 0.1 0 0.2 0.2 0.1 0.1 0 0.2-0.3 0.4-0.8 0.9-0.4 0.4-0.6 0.7-1 1-2.3 1.8-1.3 0.8-2.8 0.8zm-0.8-4.4q0.9-0.6 2.1-1.7 1.3-1.2 2.6-2.6 1.3-1.4 2.4-2.8 1.1-1.5 1.7-2.7 0.7-1.3 0.7-2.1 0-0.1 0-0.2-0.1-0.2-0.3-0.2-0.5 0-1.3 0.6-0.8 0.6-1.6 1.5-0.8 0.9-1.6 1.9-0.8 1.1-1.4 1.9-0.6 0.9-0.9 1.4-0.7 1.2-1.4 2.5-0.6 1.2-1 2.5zm10.1-3.5q-0.4 0-0.7-0.3-0.3-0.3-0.3-0.8 0-0.4 0.3-0.7 0.3-0.3 0.7-0.3 0.4 0 0.8 0.3 0.3 0.3 0.3 0.7 0 0.5-0.3 0.8-0.4 0.3-0.8 0.3zm-2.1 8q-0.9 0-1.6-0.5-0.7-0.6-0.5-1.8 0-0.4 0.2-1.1 0.3-0.7 0.6-1.5 0.4-0.7 0.8-1.3 0.4-0.5 0.9-0.5 0.3 0 0.6 0.2 0.3 0.2 0.3 0.6 0 0.2-0.3 0.5-0.2 0.4-0.6 0.9-0.4 0.5-0.7 1.2-0.3 0.6-0.3 1.4 0 0.6 0.3 0.9 0.3 0.2 0.7 0.2 0.6 0 1.2-0.3 0.6-0.3 1.3-0.7 0.3-0.3 1-1 0.8-0.7 1.7-1.7 0.1-0.1 0.2-0.1 0.2 0 0.2 0.4 0 0-0.4 0.4-0.3 0.4-0.8 0.9-0.4 0.5-0.9 0.9-0.4 0.4-0.6 0.5-0.7 0.6-1.5 1-0.8 0.5-1.8 0.5zm5.7-0.1q-0.7 0-1.1-0.3-0.3-0.4-0.3-1.1 0-1 0.5-2 0.6-1 1.2-1.8 0-0.1-0.1-0.3 0-0.2 0-0.3 0-0.8 0.5-1.5 0.4-0.7 1.1-1.2 0.8-0.4 1.6-0.4 1 0 1.4 0.6 0.6 0.5 0.6 1.5 0 1-0.6 2.1-0.4 1.1-1 2 0.2 0.1 0.5 0.2 0.3 0.1 0.5 0.1 1 0 1.7-0.4 0.7-0.4 1.7-1.3 0.2-0.1 0.3-0.1 0.1 0 0.1 0.2 0 0.2-0.2 0.4-0.7 0.8-1.7 1.3-1 0.5-2 0.5-0.3 0-0.6-0.1-0.4 0-0.7-0.1-0.6 0.7-1.5 1.4-0.8 0.6-1.9 0.6zm3.1-3.1q0.3-0.6 0.6-1.5 0.2-0.9 0.3-1.8 0-0.5-0.3-1-0.2-0.5-0.9-0.5-0.6 0-1 0.4-0.4 0.5-0.5 1.2 0.2-0.1 0.5-0.2 0.4-0.1 0.6-0.1 0.3 0 0.6 0.2 0.2 0.1 0.2 0.4 0 0.2-0.4 0.3-0.3 0.2-0.7 0.5-0.4 0.3-0.5 0.5 0.2 0.5 0.6 0.9 0.4 0.4 0.9 0.7zm-2.4 2.2q0.3 0 0.7-0.2 0.4-0.4 0.8-0.7 0.4-0.4 0.5-0.6-0.4-0.2-0.9-0.8-0.6-0.5-0.9-0.8-0.1 0.2-0.3 0.6-0.2 0.5-0.4 1-0.1 0.5-0.1 0.9 0 0.6 0.6 0.6zm12.7 0.7q-2.3 0-2.3-2.2 0-0.7 0.4-1.6 0.3-0.9 0.7-1.6-1.6 1.2-2.6 2.3-0.9 1.1-1.4 1.6-0.1 0.1-0.3 0.5-0.1 0.3-0.4 0.7-0.2 0.2-0.5 0.2-0.3 0-0.4-0.2-0.1-0.2-0.1-0.4 0-0.2 0.1-0.4 0.4-0.6 0.9-1.9 0.5-1.4 0.8-2.8 0-0.2 0.1-0.4 0-0.1 0.1-0.3 0.2-0.3 0.6-0.5 0.5-0.2 0.8-0.2 0.1 0 0.3 0.1 0.1 0.1 0.1 0.3 0 0.1-0.1 0.6-0.2 0.5-0.5 1.1-0.2 0.6-0.4 1.1-0.2 0.5-0.3 0.7 0.2-0.2 0.7-0.6 0.5-0.5 1.1-1.1 0.6-0.5 1.2-1 0.7-0.6 1.1-0.9 0.5-0.3 0.7-0.3 0.4 0 0.7 0.2 0.3 0.1 0.3 0.6 0 0.2-0.3 0.6-0.3 0.5-0.7 1.1-0.4 0.6-0.8 1.3-0.3 0.8-0.3 1.5 0 0.5 0.3 0.8 0.3 0.4 0.8 0.4 0.7 0 1.4-0.4 0.7-0.3 1.3-0.8 0.6-0.5 1.1-1 0.4-0.5 0.7-0.8 0 0 0.1 0 0 0 0.1 0 0.1 0.1 0.1 0.2 0 0.2-0.1 0.3-0.7 0.8-1.5 1.5-0.7 0.7-1.7 1.2-0.9 0.5-1.9 0.5zm11.3-0.1q-0.9 0-1.3-0.4-0.5-0.5-0.6-1.2-0.2-0.7-0.1-1.3-0.5 0.5-1.1 1.2-0.6 0.7-1.3 1.1-0.8 0.5-1.5 0.5-0.6 0-1-0.2-0.4-0.3-0.4-0.9 0-1 0.7-2.1 0.6-1.1 1.6-2.1 1-1 2.1-1.7 1.2-0.6 2.2-0.6 0.3 0 0.8 0.1 0.5 0.1 0.9 0.4 0.4 0.2 0.4 0.6 0 0.2-0.3 0.2-0.2 0.1-0.3 0.2-0.8 1-0.8 3.2 0 0.3 0 0.8 0 0.5 0.2 0.8 0.2 0.4 0.6 0.4 0.6 0 1.3-0.5 0.6-0.5 1.3-1.2 0.7-0.8 1.3-1.4 0-0.1 0.1-0.1 0.1 0 0.2 0.2 0.1 0.2 0 0.3-0.7 0.8-1.3 1.4-0.6 0.6-1.3 1.2-1.3 1.1-2.4 1.1zm-4.4-1.4q0.6-0.3 1.3-1.1 0.7-0.8 1.3-1.9 0.6-1 1-2-0.7 0-1.5 0.5-0.9 0.5-1.6 1.3-0.8 0.7-1.3 1.5-0.5 0.8-0.5 1.5 0 0.5 0.4 0.5 0.3 0 0.9-0.3zm3.2-7.2q-0.3 0-0.3-0.2 0-0.1 0.1-0.2 0.7-0.7 1.2-1.1 0.6-0.5 1.3-1 0.3-0.3 0.6-0.3 0.1 0 0.2 0.2 0.1 0.2 0.1 0.5 0 0.2-0.1 0.3-0.1 0.1-0.1 0.2-0.1 0.1-0.5 0.3-0.5 0.3-1 0.6-0.5 0.3-1 0.5-0.4 0.2-0.5 0.2zm10.9 9q-0.9 0-1.6-0.5-0.7-0.4-0.7-1.5 0-0.7 0.5-1.8 0.6-1.2 1.4-2.1-0.2 0-0.4 0-0.2 0-0.5 0-0.4 0-0.8-0.1-0.4-0.1-0.6-0.5-0.1 0.2-0.5 0.7-0.5 0.6-1.1 1.3-0.6 0.6-1 1.1-0.5 0.5-0.7 0.5-0.1 0-0.1-0.1-0.1 0-0.1-0.1 0-0.2 0.3-0.4 0.3-0.3 0.4-0.5 1.1-1.1 1.6-1.9 0.5-0.7 0.7-1.1-0.1-0.3-0.1-0.8 0-0.6 0.1-1.2 0.2-0.7 0.6-1.2 0.3-0.5 0.7-0.5 0.5 0 0.8 0.5 0.3 0.5 0.3 1 0 0.3-0.2 0.7-0.3 0.4-0.6 0.8-0.3 0.3-0.6 0.6 0.3 0.6 1 0.6 0.5 0 0.9-0.2 0.3-0.3 0.6-0.6 0.3-0.3 0.6-0.3 0.4 0 0.7 0.3 0.3 0.3 0.3 0.7-0.5 0.5-1.1 1.4-0.6 0.8-0.9 1.7-0.4 1-0.4 1.7 0 0.5 0.3 0.7 0.3 0.2 0.8 0.2 0.6 0 1.1-0.3 0.6-0.2 1.2-0.6 0.3-0.3 1-1 0.8-0.7 1.7-1.7 0.1-0.1 0.2-0.1 0.2 0 0.2 0.4 0 0-0.4 0.4-0.3 0.4-0.8 0.9-0.4 0.5-0.9 0.9-0.4 0.4-0.6 0.5-0.7 0.6-1.5 1-0.8 0.5-1.8 0.5zm8.9-8q-0.4 0-0.7-0.3-0.3-0.3-0.3-0.8 0-0.4 0.3-0.7 0.3-0.3 0.7-0.3 0.4 0 0.7 0.3 0.4 0.3 0.4 0.7 0 0.5-0.4 0.8-0.3 0.3-0.7 0.3zm-2.1 8q-1 0-1.6-0.5-0.7-0.6-0.6-1.8 0.1-0.4 0.3-1.1 0.3-0.7 0.6-1.5 0.4-0.7 0.8-1.3 0.4-0.5 0.8-0.5 0.4 0 0.7 0.2 0.3 0.2 0.3 0.6 0 0.2-0.3 0.5-0.3 0.4-0.7 0.9-0.3 0.5-0.6 1.2-0.3 0.6-0.3 1.4 0 0.6 0.3 0.9 0.3 0.2 0.7 0.2 0.6 0 1.2-0.3 0.6-0.3 1.2-0.7 0.4-0.3 1.1-1 0.8-0.7 1.7-1.7 0.1-0.1 0.1-0.1 0.3 0 0.3 0.4 0 0-0.4 0.4-0.3 0.4-0.8 0.9-0.5 0.5-0.9 0.9-0.4 0.4-0.6 0.5-0.7 0.6-1.5 1-0.8 0.5-1.8 0.5zm11.6-0.4q-0.9 0-1.4-0.4-0.4-0.5-0.6-1.2-0.1-0.7-0.1-1.3-0.4 0.5-1 1.2-0.6 0.7-1.4 1.1-0.7 0.5-1.5 0.5-0.5 0-0.9-0.2-0.4-0.3-0.4-0.9 0-1 0.6-2.1 0.7-1.1 1.7-2.1 1-1 2.1-1.7 1.2-0.6 2.1-0.6 0.3 0 0.8 0.1 0.6 0.1 0.9 0.4 0.5 0.2 0.5 0.6 0 0.2-0.3 0.2-0.2 0.1-0.3 0.2-0.9 1-0.9 3.2 0 0.3 0.1 0.8 0 0.5 0.2 0.8 0.2 0.4 0.6 0.4 0.5 0 1.2-0.5 0.7-0.5 1.4-1.2 0.7-0.8 1.2-1.4 0.1-0.1 0.2-0.1 0.1 0 0.2 0.2 0.1 0.2 0 0.3-0.7 0.8-1.4 1.4-0.6 0.6-1.3 1.2-1.3 1.1-2.3 1.1zm-4.4-1.4q0.6-0.3 1.3-1.1 0.6-0.8 1.2-1.9 0.7-1 1.1-2-0.7 0-1.5 0.5-0.9 0.5-1.7 1.3-0.7 0.7-1.2 1.5-0.5 0.8-0.5 1.5 0 0.5 0.4 0.5 0.3 0 0.9-0.3z"/>
</svg>