<svg width="300" height="55" viewBox="0 0 300 55" fill="none" xmlns="http://www.w3.org/2000/svg">
<path d="M37.9155 10.6915C38.4867 11.2534 38.9496 11.9067 39.2916 12.6342C39.6236 13.3506 39.8259 14.1213 39.8912 14.905C40.6753 14.9568 41.4492 15.1463 42.1673 15.4677C42.8996 15.7946 43.5623 16.246 44.1361 16.8104C46.7686 19.3998 46.8036 23.6472 44.2142 26.2797C43.7931 26.7079 43.3206 27.0744 42.8048 27.3738C43.3255 27.6646 43.8033 28.0226 44.2321 28.4444C46.8646 31.0338 46.8996 35.2813 44.3102 37.9138C43.7458 38.4875 43.0906 38.9498 42.3632 39.2893C41.6505 39.6213 40.881 39.8248 40.0974 39.8889C40.045 40.6736 39.856 41.4469 39.5371 42.165C39.2053 42.9023 38.7527 43.5638 38.1914 44.1345C35.6014 46.7676 31.3527 46.8039 28.7202 44.2145C28.2915 43.7928 27.9255 43.3209 27.6262 42.8051C27.3354 43.3258 26.9767 43.8042 26.5556 44.2323C23.9662 46.8646 19.7175 46.8984 17.0844 44.3084C16.5131 43.7465 16.0502 43.0932 15.7082 42.3658C15.3763 41.6494 15.1739 40.8786 15.1086 40.0949C14.3246 40.0432 13.5512 39.853 12.8326 39.5322C12.1002 39.2053 11.4375 38.7539 10.8637 38.1896C8.23123 35.6001 8.19619 31.3527 10.7856 28.7202C11.2067 28.2921 11.6792 27.9255 12.195 27.6262C11.6743 27.3354 11.1965 26.9773 10.7677 26.5556C8.1353 23.9662 8.10025 19.7187 10.6896 17.0863C11.254 16.5125 11.9092 16.0503 12.6366 15.7107C13.3493 15.3788 14.1188 15.1752 14.9024 15.1111C14.9549 14.3264 15.1438 13.5531 15.4627 12.8351C15.7945 12.0977 16.2472 11.4363 16.8085 10.8656C19.3985 8.23253 23.6472 8.1962 26.2797 10.7856C26.7084 11.2073 27.0743 11.6792 27.3737 12.195C27.6645 11.6743 28.0232 11.1959 28.4443 10.7678C31.0337 8.1353 35.2824 8.10147 37.9155 10.6915ZM37.7027 13.3756C37.4515 12.8408 37.1084 12.357 36.686 11.9415C34.7416 10.0289 31.6056 10.0542 29.6943 11.9973C29.2775 12.421 28.9443 12.9098 28.7026 13.4517C28.4171 14.092 28.2705 14.8011 28.2775 15.5016L28.3692 26.6161L39.4812 26.5245C40.1842 26.5199 40.8908 26.3616 41.5269 26.0649C42.0642 25.8151 42.5474 25.4738 42.9642 25.05C44.8755 23.1069 44.8496 19.9715 42.9065 18.0602C42.4828 17.6435 41.9934 17.3096 41.4521 17.0686C40.8144 16.7831 40.1164 16.6388 39.4159 16.6446L39.4103 16.6503C39.0709 16.9953 38.5161 17.0005 38.1705 16.6605C37.8255 16.3212 37.821 15.7658 38.1603 15.4208C38.1551 14.716 37.9987 14.0149 37.7027 13.3756ZM26.0649 13.4729C25.8151 12.9357 25.4738 12.4525 25.05 12.0357C23.1069 10.1244 19.9709 10.1509 18.0584 12.0952C17.6428 12.5177 17.3077 13.0071 17.0636 13.5503C16.7812 14.1862 16.6376 14.8848 16.6421 15.5865L16.6478 15.5921C16.9928 15.9315 16.9974 16.4869 16.658 16.8319C16.3187 17.1769 15.7633 17.1814 15.4183 16.8421C14.7141 16.8466 14.0149 17.0025 13.3782 17.2997C12.8403 17.5502 12.3565 17.8921 11.9397 18.3159C10.0284 20.259 10.0542 23.3943 11.9973 25.3056C12.4211 25.7225 12.9098 26.0556 13.4518 26.2973C14.092 26.5828 14.8012 26.7294 15.5016 26.7224C15.5029 26.7224 15.5041 26.7224 15.5054 26.7224L26.6162 26.6307L26.5245 15.5187C26.5245 15.5174 26.5245 15.5163 26.5245 15.515C26.5193 14.8138 26.361 14.1084 26.0649 13.4729ZM43.0025 29.6943C42.5788 29.2775 42.09 28.9443 41.5481 28.7026C41.2283 28.5602 40.8914 28.4526 40.5468 28.3804C40.2021 28.3095 39.8509 28.274 39.5007 28.2775C39.4983 28.2775 39.4964 28.2782 39.4946 28.2775L28.3837 28.3692L28.4754 39.4813C28.4754 39.4826 28.4754 39.4837 28.4754 39.485C28.4805 40.1861 28.6389 40.8915 28.9349 41.527C29.1848 42.0643 29.526 42.5474 29.9498 42.9643C31.8929 44.8756 35.0289 44.8491 36.9414 42.9047C37.357 42.4822 37.6921 41.9928 37.9362 41.4496C38.2198 40.8113 38.3634 40.1102 38.3583 39.4066C38.0133 39.0673 38.0087 38.5119 38.3481 38.1669C38.6874 37.8219 39.2428 37.8173 39.5878 38.1566L39.5884 38.1573C40.2908 38.1521 40.9875 37.9963 41.6218 37.7004C42.1597 37.4498 42.6434 37.108 43.0603 36.6842C44.9716 34.741 44.9457 31.6056 43.0025 29.6943ZM26.7224 39.4982L26.6307 28.3836L15.5186 28.4754C14.8156 28.4799 14.109 28.6383 13.4735 28.9342C12.9356 29.1848 12.4524 29.526 12.0356 29.9498C10.1243 31.8929 10.1502 35.0282 12.0933 36.9395C12.517 37.3563 13.0065 37.6902 13.5477 37.9312C14.1917 38.2191 14.8953 38.364 15.6013 38.355L15.5897 38.3669C15.929 38.0219 16.4844 38.0173 16.8294 38.3567C17.1751 38.6967 17.179 39.2514 16.8396 39.5964C16.8479 40.2956 17.0036 40.9911 17.2971 41.6242C17.5483 42.159 17.8914 42.6428 18.3139 43.0584C20.2583 44.9709 23.3942 44.9457 25.3055 43.0026C25.7224 42.5788 26.0555 42.09 26.2972 41.5481C26.5827 40.9078 26.7294 40.1987 26.7224 39.4982Z" fill="#021F02"/>
<path d="M36.686 11.9415C37.1085 12.357 37.4516 12.8408 37.7027 13.3756C37.9988 14.0148 38.1552 14.7159 38.1604 15.4207C37.821 15.7657 37.8256 16.3211 38.1706 16.6604C38.5163 17.0004 39.071 16.9952 39.4104 16.6502L39.4159 16.6446C40.1163 16.6388 40.8143 16.7831 41.4521 17.0686C41.9934 17.3096 42.4828 17.6435 42.9065 18.0603C44.8496 19.9716 44.8755 23.1069 42.9642 25.05C42.5474 25.4738 42.0642 25.815 41.5269 26.065C40.8909 26.3616 40.1841 26.5199 39.4812 26.5245L28.3693 26.6162L28.2776 15.5016C28.2705 14.8012 28.4172 14.092 28.7027 13.4517C28.9443 12.9098 29.2776 12.421 29.6944 11.9973C31.6057 10.0542 34.7417 10.029 36.686 11.9415Z" fill="#005892"/>
<path d="M25.0502 12.0357C25.474 12.4525 25.8152 12.9357 26.0652 13.473C26.3612 14.1084 26.5195 14.8139 26.5246 15.515C26.5246 15.5162 26.5247 15.5174 26.5247 15.5187L26.6163 26.6306L15.5055 26.7224C15.5042 26.7224 15.5031 26.7224 15.5018 26.7224C14.8013 26.7295 14.0922 26.5828 13.4519 26.2973C12.9099 26.0557 12.4212 25.7224 11.9975 25.3056C10.0544 23.3943 10.0285 20.2589 11.9398 18.3158C12.3566 17.8921 12.8405 17.5502 13.3783 17.2997C14.015 17.0024 14.7142 16.8466 15.4184 16.8421C15.7634 17.1814 16.3188 17.1768 16.6582 16.8318C16.9976 16.4868 16.993 15.9314 16.648 15.5921L16.6423 15.5865C16.6378 14.8848 16.7814 14.1862 17.0638 13.5503C17.3079 13.0071 17.643 12.5177 18.0586 12.0952C19.971 10.1508 23.1071 10.1243 25.0502 12.0357Z" fill="#FFD700"/>
<path d="M41.5481 28.7027C42.0901 28.9443 42.5788 29.2775 43.0025 29.6943C44.9456 31.6056 44.9715 34.741 43.0602 36.6841C42.6434 37.1078 42.1596 37.4497 41.6217 37.7003C40.9875 37.9962 40.2908 38.152 39.5884 38.1572L39.5878 38.1565C39.2428 37.8172 38.6874 37.8218 38.348 38.1668C38.0086 38.5118 38.0132 39.0672 38.3582 39.4065C38.3634 40.1101 38.2198 40.8112 37.9361 41.4496C37.692 41.9928 37.357 42.4822 36.9414 42.9046C35.0288 44.849 31.8929 44.8755 29.9498 42.9642C29.526 42.5474 29.1848 42.0642 28.9348 41.5269C28.6388 40.8915 28.4805 40.186 28.4753 39.4849C28.4753 39.4836 28.4753 39.4825 28.4753 39.4812L28.3838 28.3692L39.4946 28.2776C39.4965 28.2781 39.4983 28.2775 39.5008 28.2775C39.851 28.274 40.2022 28.3095 40.5468 28.3805C40.8914 28.4526 41.2283 28.5602 41.5481 28.7027Z" fill="#FFD700"/>
<path d="M26.6307 28.3837L26.7224 39.4982C26.7295 40.1987 26.5828 40.9078 26.2973 41.5481C26.0557 42.0901 25.7224 42.5788 25.3056 43.0025C23.3943 44.9456 20.2583 44.9709 18.314 43.0583C17.8915 42.6428 17.5484 42.159 17.2972 41.6242C17.0037 40.9912 16.848 40.2957 16.8397 39.5964C17.1791 39.2514 17.1751 38.6966 16.8295 38.3566C16.4845 38.0173 15.9291 38.0219 15.5898 38.3669L15.6014 38.355C14.8954 38.364 14.1918 38.2192 13.5478 37.9312C13.0065 37.6902 12.5171 37.3563 12.0934 36.9396C10.1503 35.0283 10.1244 31.8929 12.0357 29.9498C12.4525 29.526 12.9357 29.1848 13.4736 28.9343C14.109 28.6382 14.8157 28.48 15.5187 28.4754L26.6307 28.3837Z" fill="#005892"/>
<text x="70" y="35" font-family="Arial" font-size="24" font-style="italic" fill="black">+milionária</text>
</svg>
