<svg width="109" height="55" viewBox="0 0 109 55" fill="none" xmlns="http://www.w3.org/2000/svg">
<path d="M37.9155 10.6915C38.4867 11.2534 38.9496 11.9067 39.2916 12.6342C39.6236 13.3506 39.8259 14.1213 39.8912 14.905C40.6753 14.9568 41.4492 15.1463 42.1673 15.4677C42.8996 15.7946 43.5623 16.246 44.1361 16.8104C46.7686 19.3998 46.8036 23.6472 44.2142 26.2797C43.7931 26.7079 43.3206 27.0744 42.8048 27.3738C43.3255 27.6646 43.8033 28.0226 44.2321 28.4444C46.8646 31.0338 46.8996 35.2813 44.3102 37.9138C43.7458 38.4875 43.0906 38.9498 42.3632 39.2893C41.6505 39.6213 40.881 39.8248 40.0974 39.8889C40.045 40.6736 39.856 41.4469 39.5371 42.165C39.2053 42.9023 38.7527 43.5638 38.1914 44.1345C35.6014 46.7676 31.3527 46.8039 28.7202 44.2145C28.2915 43.7928 27.9255 43.3209 27.6262 42.8051C27.3354 43.3258 26.9767 43.8042 26.5556 44.2323C23.9662 46.8646 19.7175 46.8984 17.0844 44.3084C16.5131 43.7465 16.0502 43.0932 15.7082 42.3658C15.3763 41.6494 15.1739 40.8786 15.1086 40.0949C14.3246 40.0432 13.5512 39.853 12.8326 39.5322C12.1002 39.2053 11.4375 38.7539 10.8637 38.1896C8.23123 35.6001 8.19619 31.3527 10.7856 28.7202C11.2067 28.2921 11.6792 27.9255 12.195 27.6262C11.6743 27.3354 11.1965 26.9773 10.7677 26.5556C8.1353 23.9662 8.10025 19.7187 10.6896 17.0863C11.254 16.5125 11.9092 16.0503 12.6366 15.7107C13.3493 15.3788 14.1188 15.1752 14.9024 15.1111C14.9549 14.3264 15.1438 13.5531 15.4627 12.8351C15.7945 12.0977 16.2472 11.4363 16.8085 10.8656C19.3985 8.23253 23.6472 8.1962 26.2797 10.7856C26.7084 11.2073 27.0743 11.6792 27.3737 12.195C27.6645 11.6743 28.0232 11.1959 28.4443 10.7678C31.0337 8.1353 35.2824 8.10147 37.9155 10.6915ZM37.7027 13.3756C37.4515 12.8408 37.1084 12.357 36.686 11.9415C34.7416 10.0289 31.6056 10.0542 29.6943 11.9973C29.2775 12.421 28.9443 12.9098 28.7026 13.4517C28.4171 14.092 28.2705 14.8011 28.2775 15.5016L28.3692 26.6161L39.4812 26.5245C40.1842 26.5199 40.8908 26.3616 41.5269 26.0649C42.0642 25.8151 42.5474 25.4738 42.9642 25.05C44.8755 23.1069 44.8496 19.9715 42.9065 18.0602C42.4828 17.6435 41.9934 17.3096 41.4521 17.0686C40.8144 16.7831 40.1164 16.6388 39.4159 16.6446L39.4103 16.6503C39.0709 16.9953 38.5161 17.0005 38.1705 16.6605C37.8255 16.3212 37.821 15.7658 38.1603 15.4208C38.1551 14.716 37.9987 14.0149 37.7027 13.3756ZM26.0649 13.4729C25.8151 12.9357 25.4738 12.4525 25.05 12.0357C23.1069 10.1244 19.9709 10.1509 18.0584 12.0952C17.6428 12.5177 17.3077 13.0071 17.0636 13.5503C16.7812 14.1862 16.6376 14.8848 16.6421 15.5865L16.6478 15.5921C16.9928 15.9315 16.9974 16.4869 16.658 16.8319C16.3187 17.1769 15.7633 17.1814 15.4183 16.8421C14.7141 16.8466 14.0149 17.0025 13.3782 17.2997C12.8403 17.5502 12.3565 17.8921 11.9397 18.3159C10.0284 20.259 10.0542 23.3943 11.9973 25.3056C12.4211 25.7225 12.9098 26.0556 13.4518 26.2973C14.092 26.5828 14.8012 26.7294 15.5016 26.7224C15.5029 26.7224 15.5041 26.7224 15.5054 26.7224L26.6162 26.6307L26.5245 15.5187C26.5245 15.5174 26.5245 15.5163 26.5245 15.515C26.5193 14.8138 26.361 14.1084 26.0649 13.4729ZM43.0025 29.6943C42.5788 29.2775 42.09 28.9443 41.5481 28.7026C41.2283 28.5602 40.8914 28.4526 40.5468 28.3804C40.2021 28.3095 39.8509 28.274 39.5007 28.2775C39.4983 28.2775 39.4964 28.2782 39.4946 28.2775L28.3837 28.3692L28.4754 39.4813C28.4754 39.4826 28.4754 39.4837 28.4754 39.485C28.4805 40.1861 28.6389 40.8915 28.9349 41.527C29.1848 42.0643 29.526 42.5474 29.9498 42.9643C31.8929 44.8756 35.0289 44.8491 36.9414 42.9047C37.357 42.4822 37.6921 41.9928 37.9362 41.4496C38.2198 40.8113 38.3634 40.1102 38.3583 39.4066C38.0133 39.0673 38.0087 38.5119 38.3481 38.1669C38.6874 37.8219 39.2428 37.8173 39.5878 38.1566L39.5884 38.1573C40.2908 38.1521 40.9875 37.9963 41.6218 37.7004C42.1597 37.4498 42.6434 37.108 43.0603 36.6842C44.9716 34.741 44.9457 31.6056 43.0025 29.6943ZM26.7224 39.4982L26.6307 28.3836L15.5186 28.4754C14.8156 28.4799 14.109 28.6383 13.4735 28.9342C12.9356 29.1848 12.4524 29.526 12.0356 29.9498C10.1243 31.8929 10.1502 35.0282 12.0933 36.9395C12.517 37.3563 13.0065 37.6902 13.5477 37.9312C14.1917 38.2191 14.8953 38.364 15.6013 38.355L15.5897 38.3669C15.929 38.0219 16.4844 38.0173 16.8294 38.3567C17.1751 38.6967 17.179 39.2514 16.8396 39.5964C16.8479 40.2956 17.0036 40.9911 17.2971 41.6242C17.5483 42.159 17.8914 42.6428 18.3139 43.0584C20.2583 44.9709 23.3942 44.9457 25.3055 43.0026C25.7224 42.5788 26.0555 42.09 26.2972 41.5481C26.5827 40.9078 26.7294 40.1987 26.7224 39.4982Z" fill="#021F02"/>
<path d="M36.686 11.9415C37.1085 12.357 37.4516 12.8408 37.7027 13.3756C37.9988 14.0148 38.1552 14.7159 38.1604 15.4207C37.821 15.7657 37.8256 16.3211 38.1706 16.6604C38.5163 17.0004 39.071 16.9952 39.4104 16.6502L39.4159 16.6446C40.1163 16.6388 40.8143 16.7831 41.4521 17.0686C41.9934 17.3096 42.4828 17.6435 42.9065 18.0603C44.8496 19.9716 44.8755 23.1069 42.9642 25.05C42.5474 25.4738 42.0642 25.815 41.5269 26.065C40.8909 26.3616 40.1841 26.5199 39.4812 26.5245L28.3693 26.6162L28.2776 15.5016C28.2705 14.8012 28.4172 14.092 28.7027 13.4517C28.9443 12.9098 29.2776 12.421 29.6944 11.9973C31.6057 10.0542 34.7417 10.029 36.686 11.9415Z" fill="#005892"/>
<path d="M25.0502 12.0357C25.474 12.4525 25.8152 12.9357 26.0652 13.473C26.3612 14.1084 26.5195 14.8139 26.5246 15.515C26.5246 15.5162 26.5247 15.5174 26.5247 15.5187L26.6163 26.6306L15.5055 26.7224C15.5042 26.7224 15.5031 26.7224 15.5018 26.7224C14.8013 26.7295 14.0922 26.5828 13.4519 26.2973C12.9099 26.0557 12.4212 25.7224 11.9975 25.3056C10.0544 23.3943 10.0285 20.2589 11.9398 18.3158C12.3566 17.8921 12.8405 17.5502 13.3783 17.2997C14.015 17.0024 14.7142 16.8466 15.4184 16.8421C15.7634 17.1814 16.3188 17.1768 16.6582 16.8318C16.9976 16.4868 16.993 15.9314 16.648 15.5921L16.6423 15.5865C16.6378 14.8848 16.7814 14.1862 17.0638 13.5503C17.3079 13.0071 17.643 12.5177 18.0586 12.0952C19.971 10.1508 23.1071 10.1243 25.0502 12.0357Z" fill="white"/>
<path d="M41.5481 28.7027C42.0901 28.9443 42.5788 29.2775 43.0025 29.6943C44.9456 31.6056 44.9715 34.741 43.0602 36.6841C42.6434 37.1078 42.1596 37.4497 41.6217 37.7003C40.9875 37.9962 40.2908 38.152 39.5884 38.1572L39.5878 38.1565C39.2428 37.8172 38.6874 37.8218 38.348 38.1668C38.0086 38.5118 38.0132 39.0672 38.3582 39.4065C38.3634 40.1101 38.2198 40.8112 37.9361 41.4496C37.692 41.9928 37.357 42.4822 36.9414 42.9046C35.0288 44.849 31.8929 44.8755 29.9498 42.9642C29.526 42.5474 29.1848 42.0642 28.9348 41.5269C28.6388 40.8915 28.4805 40.186 28.4753 39.4849C28.4753 39.4836 28.4753 39.4825 28.4753 39.4812L28.3838 28.3692L39.4946 28.2776C39.4965 28.2781 39.4983 28.2775 39.5008 28.2775C39.851 28.274 40.2022 28.3095 40.5468 28.3805C40.8914 28.4526 41.2283 28.5602 41.5481 28.7027Z" fill="white"/>
<path d="M26.6307 28.3837L26.7224 39.4982C26.7295 40.1987 26.5828 40.9078 26.2973 41.5481C26.0557 42.0901 25.7224 42.5788 25.3056 43.0025C23.3943 44.9456 20.2583 44.9709 18.314 43.0583C17.8915 42.6428 17.5484 42.159 17.2972 41.6242C17.0037 40.9912 16.848 40.2957 16.8397 39.5964C17.1791 39.2514 17.1751 38.6966 16.8295 38.3566C16.4845 38.0173 15.9291 38.0219 15.5898 38.3669L15.6014 38.355C14.8954 38.364 14.1918 38.2192 13.5478 37.9312C13.0065 37.6902 12.5171 37.3563 12.0934 36.9396C10.1503 35.0283 10.1244 31.8929 12.0357 29.9498C12.4525 29.526 12.9357 29.1848 13.4736 28.9343C14.109 28.6382 14.8157 28.48 15.5187 28.4754L26.6307 28.3837Z" fill="#005892"/>
<path d="M66.1832 41.5027C65.9673 41.5027 65.7745 41.387 65.6049 41.1557C65.4506 40.9243 65.3735 40.477 65.3735 39.8138C65.3735 39.274 65.4275 38.603 65.5354 37.801C65.6588 36.999 65.8208 36.1507 66.0213 35.2561C66.2218 34.3769 66.4609 33.5441 66.7385 32.7574C66.1215 33.6366 65.4969 34.3538 64.8645 34.9091C64.2476 35.4489 63.6537 35.7188 63.0831 35.7188C62.6975 35.7188 62.3119 35.5646 61.9263 35.2561C61.5407 34.9476 61.3479 34.4386 61.3479 33.7291C61.3479 33.1893 61.4713 32.6109 61.7181 31.994C61.9648 31.3616 62.3042 30.7369 62.736 30.12C63.1679 29.503 63.6615 28.9478 64.2167 28.4542C64.772 27.9452 65.3581 27.5365 65.975 27.228C66.592 26.9196 67.2089 26.7653 67.8259 26.7653C68.3503 26.7653 68.7821 26.8733 69.1215 27.0892C69.4762 27.3052 69.6536 27.5751 69.6536 27.899C69.6536 28.0378 69.615 28.1843 69.5379 28.3385C69.4762 28.4774 69.376 28.5853 69.2371 28.6624C69.16 28.7241 69.0443 28.755 68.8901 28.755C68.8901 28.4157 68.7899 28.1226 68.5893 27.8758C68.3888 27.6136 68.0495 27.4825 67.5714 27.4825C67.0624 27.4825 66.5765 27.6368 66.1138 27.9452C65.6511 28.2383 65.227 28.6239 64.8414 29.102C64.4712 29.5647 64.1396 30.0737 63.8465 30.629C63.5689 31.1688 63.353 31.6932 63.1987 32.2022C63.0445 32.7112 62.9674 33.143 62.9674 33.4978C62.9674 33.8371 63.0368 34.107 63.1756 34.3075C63.3299 34.508 63.5304 34.6083 63.7771 34.6083C64.0856 34.6083 64.4172 34.4618 64.772 34.1687C65.1267 33.8757 65.4892 33.4901 65.8593 33.0119C66.2449 32.5338 66.6228 32.0094 66.993 31.4387C67.3786 30.8526 67.7487 30.2742 68.1035 29.7035C68.2115 29.5339 68.3117 29.4028 68.4043 29.3102C68.5122 29.2177 68.6202 29.1406 68.7282 29.0789C68.8978 29.0018 69.0443 28.9709 69.1677 28.9863C69.3065 29.0018 69.4068 29.0403 69.4685 29.102C69.5456 29.1791 69.5842 29.2794 69.5842 29.4028C69.5842 29.6496 69.4531 29.9812 69.1909 30.3976C68.9441 30.8141 68.6588 31.3462 68.3349 31.994C68.0264 32.6263 67.7642 33.413 67.5482 34.3538C68.2115 34.2921 68.8747 34.053 69.5379 33.6366C70.2011 33.2047 70.8258 32.4258 71.4119 31.2999L71.6895 31.5544C71.1805 32.7266 70.5327 33.5595 69.7461 34.053C68.9749 34.5466 68.2269 34.8319 67.502 34.9091C67.6254 35.3101 67.7179 35.7265 67.7796 36.1584C67.8567 36.5902 67.8953 37.0452 67.8953 37.5234C67.8953 38.2483 67.8182 38.9115 67.6639 39.513C67.5251 40.1146 67.3246 40.5927 67.0624 40.9475C66.8002 41.3176 66.5071 41.5027 66.1832 41.5027ZM66.8079 40.2302C66.9313 40.2302 67.0315 40.0837 67.1087 39.7907C67.2012 39.4976 67.2706 39.1197 67.3169 38.657C67.3632 38.2097 67.3863 37.7624 67.3863 37.3152C67.3863 36.6828 67.3323 36.1044 67.2243 35.58C67.0238 36.3974 66.8696 37.1609 66.7616 37.8704C66.6691 38.5953 66.6228 39.166 66.6228 39.5824C66.6228 40.0143 66.6845 40.2302 66.8079 40.2302Z" fill="black"/>
<path d="M72.716 35.7188C72.1916 35.7188 71.7674 35.4874 71.4435 35.0247C71.135 34.5466 70.9808 33.9991 70.9808 33.3821C70.9808 32.9348 71.0502 32.4181 71.189 31.832C71.3433 31.2459 71.5283 30.6675 71.7443 30.0969C71.9602 29.5262 72.1839 29.0558 72.4152 28.6856C72.6466 28.3154 72.8471 28.1303 73.0167 28.1303C73.0939 28.1303 73.225 28.1766 73.41 28.2691C73.5951 28.3463 73.7494 28.4542 73.8728 28.593C73.7031 28.8552 73.4949 29.2563 73.2481 29.7961C73.0013 30.3359 72.7854 30.9143 72.6003 31.5313C72.4152 32.1482 72.3227 32.7189 72.3227 33.2433C72.3227 33.3667 72.3381 33.5595 72.3689 33.8217C72.3998 34.0685 72.4769 34.2921 72.6003 34.4926C72.7237 34.6931 72.9088 34.7934 73.1556 34.7934C73.4486 34.7934 73.7494 34.6469 74.0578 34.3538C74.3663 34.0453 74.6748 33.652 74.9833 33.1739C75.3072 32.6958 75.6156 32.1791 75.9087 31.6238C76.2017 31.0685 76.4717 30.5364 76.7184 30.0274C76.9806 29.5185 77.1966 29.0943 77.3662 28.755C77.4588 28.7704 77.5899 28.8013 77.7595 28.8475C77.9446 28.8938 78.1066 28.9555 78.2454 29.0326C78.3996 29.1097 78.4767 29.2177 78.4767 29.3565C78.4767 29.4182 78.3996 29.6264 78.2454 29.9812C78.0911 30.3205 77.9061 30.7446 77.6901 31.2536C77.4896 31.7472 77.3122 32.2485 77.158 32.7574C77.0038 33.2664 76.9267 33.7137 76.9267 34.0993C76.9267 34.3769 76.9806 34.6006 77.0886 34.7702C77.212 34.9399 77.4125 35.0247 77.6901 35.0247C78.014 35.0247 78.4073 34.8782 78.87 34.5852C79.3328 34.2921 79.8032 33.868 80.2813 33.3127C80.7595 32.742 81.1836 32.0634 81.5538 31.2768L81.8545 31.485C81.5306 32.3179 81.1065 33.0582 80.5821 33.706C80.0577 34.3384 79.5024 34.8319 78.9163 35.1867C78.3302 35.5414 77.7595 35.7188 77.2043 35.7188C76.5873 35.7188 76.1632 35.5491 75.9318 35.2098C75.7005 34.8859 75.5848 34.4849 75.5848 34.0068C75.5848 33.8217 75.6002 33.6366 75.6311 33.4515C75.6619 33.251 75.7005 33.0505 75.7467 32.85C75.3149 33.6058 74.8445 34.2767 74.3355 34.8628C73.8419 35.4335 73.3021 35.7188 72.716 35.7188Z" fill="black"/>
<path d="M85.5673 25.0302C85.3205 25.0302 85.0968 24.9685 84.8963 24.8451C84.7112 24.7217 84.6187 24.5289 84.6187 24.2667C84.6187 23.9428 84.8038 23.6652 85.174 23.4338C85.5595 23.187 85.9374 23.0636 86.3076 23.0636C86.539 23.0636 86.724 23.1176 86.8629 23.2256C87.0017 23.3335 87.0711 23.5186 87.0711 23.7808C87.0711 24.0739 86.9091 24.3592 86.5852 24.6368C86.2767 24.8991 85.9374 25.0302 85.5673 25.0302ZM82.791 35.6263C82.1895 35.6263 81.7422 35.4335 81.4491 35.0479C81.1561 34.6777 81.0095 34.2227 81.0095 33.6829C81.0095 33.3281 81.0712 32.8808 81.1946 32.341C81.3334 31.8012 81.5108 31.2382 81.7267 30.6521C81.9427 30.0506 82.1895 29.4876 82.4671 28.9632C82.7601 28.4388 83.0686 28.0146 83.3925 27.6908C83.7164 27.3514 84.0326 27.1818 84.3411 27.1818C84.4799 27.1818 84.5956 27.228 84.6881 27.3206C84.7961 27.3977 84.8501 27.5211 84.8501 27.6908C84.8501 27.8758 84.7267 28.1766 84.4799 28.593C84.2485 29.0095 83.9709 29.4876 83.647 30.0274C83.3231 30.5673 83.0378 31.138 82.791 31.7395C82.5596 32.3256 82.444 32.8885 82.444 33.4284C82.444 33.9836 82.5365 34.3538 82.7216 34.5389C82.9067 34.724 83.192 34.8165 83.5776 34.8165C84.102 34.8165 84.6573 34.5543 85.2434 34.0299C85.8449 33.5055 86.4773 32.5878 87.1405 31.2768L87.3487 31.5081C86.9014 32.8346 86.2536 33.8525 85.4053 34.562C84.5724 35.2715 83.701 35.6263 82.791 35.6263Z" fill="black"/>
<path d="M94.1786 35.4874C93.6388 35.4874 93.23 35.3486 92.9524 35.071C92.6902 34.7934 92.5591 34.4386 92.5591 34.0068C92.5591 33.6829 92.6131 33.3435 92.721 32.9888C92.8444 32.6341 92.9601 32.2716 93.0681 31.9014C93.176 31.5158 93.23 31.1457 93.23 30.7909C93.23 30.3591 93.1375 30.066 92.9524 29.9118C92.7827 29.7421 92.5668 29.6573 92.3046 29.6573C91.8265 29.6573 91.3406 29.8578 90.8471 30.2588C90.3535 30.6444 89.8754 31.1457 89.4126 31.7626C88.9499 32.3641 88.5181 32.9888 88.1171 33.6366C87.716 34.2844 87.3613 34.8628 87.0528 35.3718C86.806 35.3718 86.5747 35.3255 86.3587 35.233C86.1274 35.1558 85.95 35.0324 85.8266 34.8628C85.8266 34.7857 85.9115 34.5466 86.0811 34.1456C86.2354 33.7446 86.4204 33.251 86.6364 32.6649C86.8523 32.0788 87.0451 31.4773 87.2148 30.8603C87.3844 30.2434 87.4693 29.6804 87.4693 29.1714C87.5618 29.0635 87.7083 28.9555 87.9088 28.8475C88.1093 28.7396 88.3176 28.6856 88.5335 28.6856C88.9499 28.6856 89.1582 28.8861 89.1582 29.2871C89.1582 29.5339 89.0888 29.9503 88.9499 30.5364C88.8111 31.1071 88.6337 31.7086 88.4178 32.341C88.8343 31.7086 89.297 31.084 89.806 30.467C90.3304 29.8346 90.8856 29.3102 91.4717 28.8938C92.0578 28.4774 92.6439 28.2691 93.23 28.2691C93.8315 28.2691 94.2634 28.4851 94.5256 28.9169C94.8032 29.3488 94.9421 29.8269 94.9421 30.3513C94.9421 30.8295 94.8649 31.2768 94.7107 31.6932C94.5565 32.0942 94.3945 32.4875 94.2249 32.8731C94.0706 33.2433 93.9935 33.6212 93.9935 34.0068C93.9935 34.3307 94.0552 34.562 94.1786 34.7008C94.3174 34.8242 94.4871 34.8859 94.6876 34.8859C95.0732 34.8859 95.4588 34.7085 95.8443 34.3538C96.2299 33.9836 96.6001 33.5209 96.9549 32.9657C97.325 32.4104 97.6489 31.8474 97.9265 31.2768L98.181 31.5775C97.7029 32.7035 97.1322 33.6366 96.469 34.3769C95.8058 35.1173 95.0423 35.4874 94.1786 35.4874Z" fill="black"/>
<path d="M98.5933 36.1121C98.1152 36.1121 97.7142 35.9502 97.3903 35.6263C97.051 35.3178 96.8813 34.8397 96.8813 34.1919C96.8813 33.6366 97.0047 33.0428 97.2515 32.4104C97.4982 31.7626 97.8376 31.1302 98.2694 30.5133C98.7013 29.8809 99.1871 29.3102 99.727 28.8013C100.282 28.2769 100.861 27.8604 101.462 27.5519C102.079 27.2435 102.688 27.0892 103.29 27.0892C103.891 27.0892 104.393 27.2512 104.794 27.5751C105.195 27.8835 105.395 28.3 105.395 28.8244C105.395 29.21 105.287 29.4722 105.071 29.611C104.871 29.7498 104.601 29.8192 104.262 29.8192C104.339 29.5416 104.377 29.2717 104.377 29.0095C104.377 28.6547 104.292 28.354 104.123 28.1072C103.953 27.845 103.66 27.7139 103.244 27.7139C102.812 27.7139 102.372 27.8681 101.925 28.1766C101.478 28.4696 101.046 28.8707 100.629 29.3796C100.213 29.8732 99.8426 30.413 99.5187 30.9991C99.1948 31.5852 98.9404 32.1636 98.7553 32.7343C98.5702 33.305 98.4776 33.814 98.4776 34.2613C98.4776 34.8628 98.6859 35.1635 99.1023 35.1635C99.4571 35.1635 99.8426 35.0016 100.259 34.6777C100.676 34.3384 101.1 33.9142 101.532 33.4052C101.979 32.8808 102.403 32.341 102.804 31.7858C103.205 31.2305 103.56 30.7215 103.868 30.2588C103.93 30.1663 103.968 30.12 103.984 30.12C104.123 30.1354 104.308 30.1971 104.539 30.3051C104.771 30.3976 104.886 30.5287 104.886 30.6984C104.886 30.8372 104.817 31.03 104.678 31.2768C104.539 31.5081 104.385 31.778 104.215 32.0865C104.046 32.395 103.891 32.7112 103.753 33.0351C103.614 33.3435 103.544 33.6366 103.544 33.9142C103.544 34.1456 103.606 34.3769 103.729 34.6083C103.853 34.8242 104.053 34.9322 104.331 34.9322C104.747 34.9322 105.295 34.6314 105.974 34.0299C106.652 33.413 107.339 32.4952 108.033 31.2768L108.264 31.5081C107.94 32.341 107.524 33.0736 107.015 33.706C106.506 34.3384 105.958 34.8319 105.372 35.1867C104.801 35.5414 104.238 35.7188 103.683 35.7188C103.112 35.7188 102.688 35.5491 102.411 35.2098C102.148 34.8705 102.017 34.5003 102.017 34.0993C102.017 33.8988 102.041 33.6752 102.087 33.4284C101.424 34.323 100.814 34.9939 100.259 35.4412C99.7193 35.8885 99.164 36.1121 98.5933 36.1121Z" fill="black"/>
</svg>
